<?xml version="1.0" encoding="UTF-8"?>
<svg id="Layer_1" data-name="Layer 1" xmlns="http://www.w3.org/2000/svg" viewBox="0 0 1691.07 319.38">
  <defs>
    <style>
      .cls-1 {
        fill: #12332d;
      }
    </style>
  </defs>
  <path class="cls-1" d="M365.5,278.75c-.75,2.79-1.13,5-1.13,6.65,0,2.15,.74,3.61,2.22,4.37,1.48,.76,3.92,1.14,7.31,1.14l-1.13,3.8h-31.99l1.04-3.8c2.01,0,3.74-.14,5.19-.43,1.45-.28,2.7-.84,3.77-1.66,1.07-.82,1.97-1.96,2.69-3.42,.72-1.46,1.4-3.35,2.03-5.7l4.34-16.9-11.32-27.34c-.94-2.28-1.79-4.08-2.55-5.41s-1.54-2.34-2.36-3.04c-.82-.7-1.75-1.14-2.78-1.33-1.04-.19-2.34-.28-3.92-.28l1.04-3.8h26.52l-1.04,3.8c-2.39,0-4.1,.24-5.14,.71s-1.56,1.34-1.56,2.61c0,.44,.05,.95,.14,1.52,.09,.57,.3,1.2,.61,1.9l10.1,24.49,13.12-19.27c1.38-1.96,2.37-3.48,2.97-4.56,.6-1.08,.9-2.18,.9-3.32,0-1.33-.61-2.34-1.84-3.04-1.23-.7-2.94-1.04-5.14-1.04l1.04-3.8h23.31l-1.04,3.8c-1.26,0-2.33,.09-3.21,.28-.88,.19-1.7,.57-2.45,1.14-.75,.57-1.51,1.36-2.26,2.37-.75,1.01-1.7,2.31-2.83,3.89l-20.19,28.57-4.43,17.09Zm36.61,16.9c-2.14,0-4.14-.43-5.99-1.28-1.86-.85-3.48-2.1-4.86-3.75-1.38-1.64-2.49-3.66-3.3-6.03-.82-2.37-1.23-5.05-1.23-8.02,0-4.11,.77-8.16,2.31-12.15,1.54-3.99,3.57-7.53,6.09-10.63,2.51-3.1,5.39-5.6,8.63-7.5,3.24-1.9,6.59-2.85,10.05-2.85,2.26,0,4.35,.43,6.27,1.28,1.92,.85,3.55,2.09,4.91,3.7,1.35,1.61,2.42,3.54,3.21,5.79,.79,2.25,1.18,4.73,1.18,7.45,0,3.99-.79,8.01-2.36,12.06-1.57,4.05-3.63,7.69-6.18,10.92s-5.46,5.87-8.73,7.93c-3.27,2.06-6.6,3.08-10,3.08Zm.57-4.75c2.14,0,4.26-1.11,6.37-3.32,2.11-2.21,3.99-5.01,5.66-8.4,1.67-3.38,3.02-7.07,4.06-11.06,1.04-3.99,1.56-7.79,1.56-11.39,0-3.35-.58-5.66-1.75-6.93-1.17-1.26-2.75-1.9-4.76-1.9-1.38,0-2.78,.49-4.2,1.47-1.42,.98-2.75,2.33-4.01,4.03-1.26,1.71-2.44,3.67-3.54,5.89-1.1,2.22-2.06,4.56-2.88,7.03-.82,2.47-1.45,4.98-1.89,7.55-.44,2.56-.66,5.02-.66,7.36,0,3.54,.57,6.04,1.7,7.5,1.13,1.46,2.58,2.18,4.34,2.18Zm47.08-2.09c1,0,2.33-.71,3.96-2.14,1.63-1.42,3.36-3.32,5.19-5.7,1.82-2.37,3.6-5.08,5.33-8.12,1.73-3.04,3.19-6.2,4.39-9.49l6.98-18.99h8.78l-6.98,21.74c-1.01,3.17-1.86,5.87-2.55,8.12-.69,2.25-1.26,4.15-1.7,5.7-.44,1.55-.75,2.82-.94,3.8-.19,.98-.28,1.76-.28,2.33,0,1.65,.57,2.47,1.7,2.47,.63,0,1.38-.3,2.26-.9,.88-.6,1.78-1.42,2.69-2.47,.91-1.04,1.79-2.21,2.64-3.51,.85-1.3,1.59-2.67,2.22-4.13l2.83,1.42c-.82,2.09-1.89,4.13-3.21,6.12-1.32,1.99-2.75,3.78-4.29,5.36-1.54,1.58-3.16,2.85-4.86,3.8s-3.37,1.42-5,1.42c-1.95,0-3.27-.7-3.96-2.09-.69-1.39-1.04-3.38-1.04-5.98,0-1.08,.05-2.23,.14-3.46,.09-1.23,.27-2.45,.52-3.65l-.28-.29c-1.7,3.04-3.35,5.54-4.95,7.5-1.6,1.96-3.16,3.54-4.67,4.75-1.51,1.2-2.99,2.04-4.43,2.52-1.45,.47-2.86,.71-4.25,.71-2.96,0-5.02-.82-6.18-2.47-1.17-1.65-1.75-3.67-1.75-6.08,0-2.66,.5-5.58,1.51-8.78,1.01-3.19,2.08-6.22,3.21-9.07,1.13-2.85,2.09-5.25,2.88-7.21,.79-1.96,1.42-3.61,1.89-4.94s.82-2.4,1.04-3.23c.22-.82,.33-1.49,.33-1.99,0-.25-.05-.49-.14-.71-.09-.22-.33-.33-.71-.33-.82,0-2,.73-3.54,2.18-1.54,1.46-3.63,3.8-6.28,7.03l-2.45-1.33c.94-1.83,2.14-3.67,3.59-5.51,1.45-1.83,2.99-3.48,4.62-4.94,1.63-1.46,3.33-2.63,5.09-3.51,1.76-.89,3.4-1.33,4.91-1.33,3.14,0,4.72,1.84,4.72,5.51,0,2.22-.61,5.08-1.84,8.59-1.23,3.51-2.82,7.71-4.77,12.58-1.26,3.1-2.3,5.89-3.11,8.35-.82,2.47-1.23,4.72-1.23,6.74,0,1.33,.19,2.26,.57,2.8,.38,.54,.85,.81,1.42,.81Zm41.99-31.23c.69-1.58,1.75-3.21,3.16-4.89,1.42-1.68,2.96-3.2,4.62-4.56,1.67-1.36,3.35-2.48,5.05-3.37,1.7-.89,3.18-1.33,4.44-1.33,1.51,0,2.61,.57,3.3,1.71,.69,1.14,1.04,2.98,1.04,5.51,0,1.01-.05,1.99-.14,2.94-.09,.95-.27,2.06-.52,3.32l.28,.28c.75-1.83,1.82-3.64,3.21-5.41,1.38-1.77,2.88-3.34,4.48-4.7,1.6-1.36,3.24-2.47,4.91-3.32,1.67-.85,3.22-1.28,4.67-1.28,1.82,0,3.35,.59,4.58,1.76,1.23,1.17,1.84,2.61,1.84,4.32s-.52,3.01-1.56,4.08c-1.04,1.08-2.38,1.61-4.01,1.61-1.01,0-1.81-.19-2.41-.57-.6-.38-1.12-.77-1.56-1.19-.44-.41-.85-.81-1.23-1.19-.38-.38-.85-.57-1.42-.57-1.2,0-2.58,.81-4.15,2.42-1.57,1.61-3.21,3.81-4.91,6.6-1.7,2.79-3.38,6.04-5.05,9.78-1.67,3.73-3.19,7.75-4.58,12.06l-4.25,13.1h-8.78l6.13-19.65c1.19-3.8,2.18-6.95,2.97-9.45,.79-2.5,1.4-4.59,1.84-6.26,.44-1.68,.74-2.99,.9-3.94,.16-.95,.24-1.77,.24-2.47,0-1.39-.47-2.09-1.42-2.09-.63,0-1.4,.25-2.31,.76-.91,.51-1.81,1.14-2.69,1.9-.88,.76-1.71,1.61-2.5,2.56-.79,.95-1.37,1.87-1.75,2.75l-2.45-1.23Zm128.05,19.18c-2.2,3.35-4.36,6.23-6.46,8.64-2.11,2.41-4.29,4.37-6.56,5.88-2.26,1.52-4.66,2.63-7.17,3.32-2.52,.7-5.22,1.04-8.12,1.04-4.28,0-8.11-.68-11.51-2.04-3.4-1.36-6.28-3.32-8.63-5.89-2.36-2.56-4.18-5.66-5.47-9.3-1.29-3.64-1.93-7.74-1.93-12.29,0-6.01,1.1-11.75,3.3-17.23,2.2-5.47,5.14-10.3,8.82-14.48,3.68-4.18,7.94-7.51,12.79-10.01,4.84-2.5,9.91-3.75,15.19-3.75,3.02,0,5.9,.46,8.63,1.38,2.74,.92,5.52,2.36,8.35,4.32l3.49-4.75h3.49l-4.34,23.83h-3.59c-.5-6.9-1.97-11.93-4.39-15.09-2.42-3.16-6.06-4.75-10.9-4.75-4.15,0-8.02,1.04-11.61,3.13-3.59,2.09-6.7,4.97-9.34,8.64-2.64,3.67-4.72,7.97-6.23,12.91s-2.26,10.25-2.26,15.95c0,15.7,6.07,23.54,18.21,23.54,4.53,0,8.63-1.23,12.31-3.7,3.68-2.47,7.19-6.33,10.52-11.58l3.4,2.28Zm23.59,18.89c-2.14,0-4.14-.43-5.99-1.28-1.86-.85-3.48-2.1-4.86-3.75-1.38-1.64-2.49-3.66-3.3-6.03-.82-2.37-1.23-5.05-1.23-8.02,0-4.11,.77-8.16,2.31-12.15,1.54-3.99,3.57-7.53,6.09-10.63,2.51-3.1,5.39-5.6,8.63-7.5,3.24-1.9,6.59-2.85,10.05-2.85,2.26,0,4.35,.43,6.27,1.28,1.92,.85,3.55,2.09,4.91,3.7,1.35,1.61,2.42,3.54,3.21,5.79,.79,2.25,1.18,4.73,1.18,7.45,0,3.99-.79,8.01-2.36,12.06-1.57,4.05-3.63,7.69-6.18,10.92s-5.46,5.87-8.73,7.93c-3.27,2.06-6.6,3.08-10,3.08Zm.57-4.75c2.14,0,4.26-1.11,6.37-3.32,2.11-2.21,3.99-5.01,5.66-8.4,1.67-3.38,3.02-7.07,4.06-11.06,1.04-3.99,1.56-7.79,1.56-11.39,0-3.35-.58-5.66-1.75-6.93-1.17-1.26-2.75-1.9-4.76-1.9-1.38,0-2.78,.49-4.2,1.47-1.42,.98-2.75,2.33-4.01,4.03-1.26,1.71-2.44,3.67-3.54,5.89-1.1,2.22-2.06,4.56-2.88,7.03-.82,2.47-1.45,4.98-1.89,7.55-.44,2.56-.66,5.02-.66,7.36,0,3.54,.57,6.04,1.7,7.5,1.13,1.46,2.58,2.18,4.34,2.18Zm93.7-27.82c.82-2.34,1.46-4.21,1.93-5.6,.47-1.39,.83-2.48,1.08-3.28,.25-.79,.41-1.41,.47-1.85,.06-.44,.09-.85,.09-1.23,0-1.83-.63-2.75-1.89-2.75-1.7,0-3.71,1.16-6.04,3.46-2.33,2.31-4.84,5.65-7.55,10.02-.94,1.52-1.83,3.05-2.64,4.6-.82,1.55-1.7,3.48-2.64,5.79-.94,2.31-2.04,5.24-3.3,8.78-1.26,3.54-2.86,8.1-4.81,13.67h-8.87l6.23-19.08c1.32-4.05,2.42-7.45,3.3-10.21s1.57-5.05,2.08-6.88c.5-1.83,.86-3.29,1.08-4.37,.22-1.08,.33-1.96,.33-2.66,0-2.09-.79-3.13-2.36-3.13-1.26,0-2.77,.73-4.53,2.18-1.76,1.46-3.55,3.36-5.38,5.7-1.83,2.34-3.57,4.98-5.24,7.93-1.67,2.94-3.07,5.93-4.2,8.97l-7.93,21.55h-8.3l6.98-21.74c1.19-3.67,2.17-6.75,2.93-9.26,.75-2.5,1.35-4.56,1.79-6.17,.44-1.61,.75-2.9,.94-3.84s.28-1.74,.28-2.37c0-1.77-.54-2.66-1.6-2.66-.69,0-1.5,.41-2.41,1.23-.91,.82-1.84,1.95-2.78,3.37s-1.87,3.05-2.78,4.89c-.91,1.84-1.71,3.77-2.41,5.79l-2.83-1.42c2.2-6.52,4.67-11.33,7.41-14.43,2.74-3.1,5.87-4.65,9.39-4.65,2.01,0,3.44,.57,4.29,1.71,.85,1.14,1.27,3.04,1.27,5.7,0,3.04-.54,5.95-1.6,8.73l.28,.28c5.85-10.95,12.05-16.42,18.59-16.42,2.45,0,4.37,.75,5.76,2.23,1.38,1.49,2.08,3.56,2.08,6.22,0,.89-.11,1.9-.33,3.04-.22,1.14-.65,2.82-1.27,5.03l.19,.28c1.76-3.04,3.44-5.62,5.05-7.74,1.6-2.12,3.16-3.84,4.67-5.17s3.03-2.31,4.58-2.94c1.54-.63,3.13-.95,4.76-.95,2.45,0,4.29,.67,5.52,1.99s1.84,3.42,1.84,6.26c0,.89-.09,1.85-.28,2.9-.19,1.04-.47,2.28-.85,3.7-.38,1.42-.87,3.07-1.46,4.94-.6,1.87-1.31,4.07-2.12,6.6-1.07,3.23-1.92,5.81-2.55,7.74-.63,1.93-1.1,3.46-1.42,4.6-.32,1.14-.52,1.99-.61,2.56-.09,.57-.14,1.14-.14,1.71,0,1.2,.31,1.8,.94,1.8,.94,0,2.36-.9,4.25-2.71,1.89-1.8,4.34-4.6,7.36-8.4l2.45,1.33c-1.07,2.09-2.44,4.16-4.1,6.22-1.67,2.06-3.41,3.89-5.24,5.51-1.83,1.61-3.63,2.93-5.43,3.94s-3.35,1.52-4.67,1.52c-1.57,0-2.82-.68-3.73-2.04-.91-1.36-1.37-3.18-1.37-5.46,0-.76,.08-1.61,.24-2.56,.16-.95,.5-2.31,1.04-4.08,.53-1.77,1.29-4.11,2.26-7.02,.97-2.91,2.28-6.71,3.92-11.39Zm33.87,24.68c-1.64,6.46-3.27,11.72-4.91,15.81-1.64,4.08-3.4,7.29-5.28,9.64-1.89,2.34-3.92,3.95-6.09,4.84-2.17,.89-4.61,1.33-7.31,1.33s-4.81-.7-6.51-2.09c-1.7-1.39-2.55-3.1-2.55-5.13,0-1.58,.41-2.83,1.23-3.75,.82-.92,1.95-1.38,3.4-1.38,1.32,0,2.23,.35,2.74,1.04,.5,.7,.93,1.46,1.27,2.28,.35,.82,.74,1.58,1.18,2.28,.44,.7,1.29,1.04,2.55,1.04,1.45,0,2.77-.76,3.96-2.28,1.2-1.52,2.11-3.51,2.74-5.98l13.68-53.45h-9.06l1.23-4.37h8.96c1.38-5.7,2.89-10.54,4.53-14.52,1.64-3.99,3.4-7.26,5.28-9.83,1.89-2.56,3.9-4.43,6.04-5.6,2.14-1.17,4.44-1.76,6.89-1.76,3.71,0,6.76,.78,9.15,2.33,2.39,1.55,3.58,3.5,3.58,5.84,0,1.46-.39,2.69-1.18,3.7-.79,1.01-1.9,1.52-3.35,1.52-1.2,0-2.12-.22-2.78-.66-.66-.44-1.17-1.01-1.51-1.71-.35-.7-.6-1.42-.75-2.18-.16-.76-.36-1.49-.61-2.18-.25-.7-.63-1.26-1.13-1.71-.5-.44-1.26-.67-2.26-.67-1.26,0-2.5,.68-3.73,2.04-1.23,1.36-2.41,3.26-3.54,5.7-1.13,2.44-2.2,5.33-3.21,8.69-1.01,3.36-1.92,7.03-2.74,11.01h9.53l-1.32,4.37h-9.25l-8.87,35.79Zm34.35,7.88c-2.14,0-4.14-.43-5.99-1.28-1.86-.85-3.48-2.1-4.86-3.75-1.38-1.64-2.49-3.66-3.3-6.03-.82-2.37-1.23-5.05-1.23-8.02,0-4.11,.77-8.16,2.31-12.15,1.54-3.99,3.57-7.53,6.09-10.63,2.51-3.1,5.39-5.6,8.63-7.5,3.24-1.9,6.59-2.85,10.05-2.85,2.26,0,4.35,.43,6.27,1.28,1.92,.85,3.55,2.09,4.91,3.7,1.35,1.61,2.42,3.54,3.21,5.79,.79,2.25,1.18,4.73,1.18,7.45,0,3.99-.79,8.01-2.36,12.06-1.57,4.05-3.63,7.69-6.18,10.92s-5.46,5.87-8.73,7.93c-3.27,2.06-6.6,3.08-10,3.08Zm.57-4.75c2.14,0,4.26-1.11,6.37-3.32,2.11-2.21,3.99-5.01,5.66-8.4,1.67-3.38,3.02-7.07,4.06-11.06,1.04-3.99,1.56-7.79,1.56-11.39,0-3.35-.58-5.66-1.75-6.93-1.17-1.26-2.75-1.9-4.76-1.9-1.38,0-2.78,.49-4.2,1.47-1.42,.98-2.75,2.33-4.01,4.03-1.26,1.71-2.44,3.67-3.54,5.89-1.1,2.22-2.06,4.56-2.88,7.03-.82,2.47-1.45,4.98-1.89,7.55-.44,2.56-.66,5.02-.66,7.36,0,3.54,.57,6.04,1.7,7.5,1.13,1.46,2.58,2.18,4.34,2.18Zm33.12-33.32c.69-1.58,1.75-3.21,3.16-4.89,1.42-1.68,2.96-3.2,4.62-4.56,1.67-1.36,3.35-2.48,5.05-3.37,1.7-.89,3.18-1.33,4.44-1.33,1.51,0,2.61,.57,3.3,1.71,.69,1.14,1.04,2.98,1.04,5.51,0,1.01-.05,1.99-.14,2.94-.09,.95-.27,2.06-.52,3.32l.28,.28c.75-1.83,1.82-3.64,3.21-5.41,1.38-1.77,2.88-3.34,4.48-4.7,1.6-1.36,3.24-2.47,4.91-3.32,1.67-.85,3.22-1.28,4.67-1.28,1.82,0,3.35,.59,4.58,1.76,1.23,1.17,1.84,2.61,1.84,4.32s-.52,3.01-1.56,4.08c-1.04,1.08-2.38,1.61-4.01,1.61-1.01,0-1.81-.19-2.41-.57-.6-.38-1.12-.77-1.56-1.19-.44-.41-.85-.81-1.23-1.19-.38-.38-.85-.57-1.42-.57-1.2,0-2.58,.81-4.15,2.42-1.57,1.61-3.21,3.81-4.91,6.6-1.7,2.79-3.38,6.04-5.05,9.78-1.67,3.73-3.19,7.75-4.58,12.06l-4.25,13.1h-8.78l6.13-19.65c1.19-3.8,2.18-6.95,2.97-9.45,.79-2.5,1.4-4.59,1.84-6.26,.44-1.68,.74-2.99,.9-3.94,.16-.95,.24-1.77,.24-2.47,0-1.39-.47-2.09-1.42-2.09-.63,0-1.4,.25-2.31,.76-.91,.51-1.81,1.14-2.69,1.9-.88,.76-1.71,1.61-2.5,2.56-.79,.95-1.37,1.87-1.75,2.75l-2.45-1.23Zm63.88-5.32l-7.83,26.11c-1.07,3.42-1.64,6.01-1.7,7.78,0,.57,.14,1.08,.42,1.52,.28,.44,.77,.66,1.46,.66,1.13,0,2.33-.43,3.59-1.28,1.26-.85,2.47-1.87,3.63-3.04,1.16-1.17,2.2-2.37,3.11-3.61,.91-1.23,1.59-2.2,2.03-2.9l2.74,1.61c-1.07,2.15-2.42,4.22-4.06,6.22-1.64,1.99-3.37,3.75-5.19,5.27-1.83,1.52-3.67,2.74-5.52,3.66-1.86,.92-3.54,1.38-5.05,1.38-2.2,0-3.79-.47-4.77-1.42-.98-.95-1.46-2.53-1.46-4.75,0-1.27,.22-2.97,.66-5.13,.44-2.15,1.19-5.09,2.26-8.83l6.98-23.26h-8.11l1.23-4.37h8.21l4.91-16.33h8.68l-4.91,16.33h10.29l-1.32,4.37h-10.29Zm116.44-19.75l-38.69,62.18h-4.06l-7.36-62.18h-.38l-12.08,46.23c-.19,.76-.35,1.49-.47,2.18-.13,.7-.19,1.36-.19,1.99,0,2.66,.74,4.64,2.22,5.93,1.48,1.3,3.44,1.98,5.9,2.04l-1.13,3.8h-26.04l1.04-3.8c2.96,0,5.6-1.06,7.93-3.18,2.33-2.12,3.93-4.79,4.81-8.02l11.04-41.96c.94-3.48,1.42-6.08,1.42-7.78,0-1.96-.71-3.21-2.12-3.75-1.42-.54-3.82-.81-7.22-.81l1.04-3.8h22.65l6.7,56.58h.38l35.57-56.58h19.91l-1.04,3.8c-1.83,0-3.3,.21-4.43,.62-1.13,.41-2.12,1.19-2.97,2.33s-1.62,2.72-2.31,4.75c-.69,2.03-1.45,4.65-2.26,7.88l-9.91,37.78c-.75,2.79-1.13,5-1.13,6.65,0,2.15,.74,3.61,2.22,4.37,1.48,.76,3.92,1.14,7.31,1.14l-1.13,3.8h-30.1l1.04-3.8c1.7,0,3.15-.14,4.34-.43,1.19-.28,2.25-.84,3.16-1.66,.91-.82,1.7-1.96,2.36-3.42,.66-1.46,1.3-3.35,1.93-5.7l12.46-47.18h-.38Zm54.35,11.87h7.83l-5.38,14.52c-.88,2.41-1.75,4.97-2.59,7.69-.85,2.72-1.6,5.35-2.26,7.88-.66,2.53-1.18,4.84-1.56,6.93-.38,2.09-.57,3.64-.57,4.65,0,1.84,.6,2.75,1.79,2.75,.88,0,2.15-.92,3.82-2.75,1.67-1.83,3.54-4.21,5.62-7.12l2.45,1.99c-2.64,4.68-5.49,8.31-8.54,10.87-3.05,2.56-5.99,3.84-8.82,3.84-1.45,0-2.56-.55-3.35-1.66-.79-1.11-1.18-2.93-1.18-5.46,0-.57,.01-1.23,.05-1.99,.03-.76,.11-1.77,.24-3.04l-.38-.09c-.94,1.77-2.06,3.4-3.35,4.89-1.29,1.49-2.69,2.79-4.2,3.89-1.51,1.11-3.08,1.96-4.72,2.56-1.64,.6-3.24,.9-4.81,.9-3.21,0-5.71-1.22-7.5-3.65-1.79-2.44-2.69-5.81-2.69-10.11s.91-8.83,2.74-13.39c1.82-4.56,4.18-8.69,7.08-12.39,2.89-3.7,6.1-6.74,9.62-9.11,3.52-2.37,6.98-3.56,10.38-3.56,2.08,0,3.77,.49,5.1,1.47,1.32,.98,2.39,2.58,3.21,4.79l1.98-5.32Zm-9.72,3.99c-2.39,0-4.86,1.11-7.41,3.32-2.55,2.22-4.86,4.98-6.94,8.31-2.08,3.32-3.77,6.9-5.1,10.73-1.32,3.83-1.98,7.39-1.98,10.68,0,2.28,.47,4.1,1.42,5.46,.94,1.36,2.23,2.04,3.87,2.04,1.45,0,2.96-.58,4.53-1.76,1.57-1.17,3.1-2.72,4.58-4.65,1.48-1.93,2.88-4.13,4.2-6.6,1.32-2.47,2.48-5.02,3.49-7.64,1.01-2.62,1.79-5.2,2.36-7.74,.57-2.53,.85-4.81,.85-6.83,0-1.65-.35-2.94-1.04-3.89s-1.64-1.42-2.83-1.42Zm44.63,3.89l-7.83,26.11c-1.07,3.42-1.64,6.01-1.7,7.78,0,.57,.14,1.08,.42,1.52,.28,.44,.77,.66,1.46,.66,1.13,0,2.33-.43,3.59-1.28,1.26-.85,2.47-1.87,3.63-3.04,1.16-1.17,2.2-2.37,3.11-3.61,.91-1.23,1.59-2.2,2.03-2.9l2.74,1.61c-1.07,2.15-2.42,4.22-4.06,6.22-1.64,1.99-3.37,3.75-5.19,5.27-1.83,1.52-3.67,2.74-5.52,3.66-1.86,.92-3.54,1.38-5.05,1.38-2.2,0-3.79-.47-4.77-1.42-.98-.95-1.46-2.53-1.46-4.75,0-1.27,.22-2.97,.66-5.13,.44-2.15,1.19-5.09,2.26-8.83l6.98-23.26h-8.11l1.23-4.37h8.21l4.91-16.33h8.68l-4.91,16.33h10.29l-1.32,4.37h-10.29Zm34.44,0l-7.83,26.11c-1.07,3.42-1.64,6.01-1.7,7.78,0,.57,.14,1.08,.42,1.52,.28,.44,.77,.66,1.46,.66,1.13,0,2.33-.43,3.59-1.28,1.26-.85,2.47-1.87,3.63-3.04,1.16-1.17,2.2-2.37,3.11-3.61,.91-1.23,1.59-2.2,2.03-2.9l2.74,1.61c-1.07,2.15-2.42,4.22-4.06,6.22-1.64,1.99-3.37,3.75-5.19,5.27-1.83,1.52-3.67,2.74-5.52,3.66-1.86,.92-3.54,1.38-5.05,1.38-2.2,0-3.79-.47-4.77-1.42-.98-.95-1.46-2.53-1.46-4.75,0-1.27,.22-2.97,.66-5.13,.44-2.15,1.19-5.09,2.26-8.83l6.98-23.26h-8.11l1.23-4.37h8.21l4.91-16.33h8.68l-4.91,16.33h10.29l-1.32,4.37h-10.29Zm47.27,29.81c-5.47,9.05-12.21,13.58-20.19,13.58-4.34,0-7.68-1.34-10-4.03-2.33-2.69-3.49-6.5-3.49-11.44,0-4.37,.9-8.73,2.69-13.1,1.79-4.37,4.14-8.31,7.03-11.82,2.89-3.51,6.13-6.36,9.72-8.54,3.58-2.18,7.17-3.28,10.76-3.28,3.02,0,5.49,.78,7.41,2.33,1.92,1.55,2.88,3.53,2.88,5.93,0,2.22-.82,4.5-2.45,6.83-1.64,2.34-3.85,4.56-6.65,6.65-2.8,2.09-6.07,3.99-9.81,5.7-3.74,1.71-7.72,3.04-11.94,3.99-.13,.89-.22,1.76-.28,2.61-.06,.85-.09,1.72-.09,2.61,0,6.9,2.42,10.35,7.27,10.35,2.33,0,4.73-.92,7.22-2.75,2.48-1.83,4.8-4.37,6.94-7.59l3.02,1.99Zm-5.38-34.17c-1.64,0-3.33,.63-5.09,1.9-1.76,1.27-3.44,2.96-5.05,5.08-1.6,2.12-3.07,4.54-4.39,7.26-1.32,2.72-2.39,5.54-3.21,8.45,3.02-.82,5.82-1.9,8.4-3.23,2.58-1.33,4.8-2.83,6.65-4.51,1.85-1.68,3.32-3.45,4.39-5.32,1.07-1.87,1.6-3.75,1.6-5.65,0-2.66-1.1-3.99-3.3-3.99Zm15.38,9.68c.69-1.58,1.75-3.21,3.16-4.89,1.42-1.68,2.96-3.2,4.62-4.56,1.67-1.36,3.35-2.48,5.05-3.37,1.7-.89,3.18-1.33,4.44-1.33,1.51,0,2.61,.57,3.3,1.71,.69,1.14,1.04,2.98,1.04,5.51,0,1.01-.05,1.99-.14,2.94-.09,.95-.27,2.06-.52,3.32l.28,.28c.75-1.83,1.82-3.64,3.21-5.41,1.38-1.77,2.88-3.34,4.48-4.7,1.6-1.36,3.24-2.47,4.91-3.32,1.67-.85,3.22-1.28,4.67-1.28,1.82,0,3.35,.59,4.58,1.76,1.23,1.17,1.84,2.61,1.84,4.32s-.52,3.01-1.56,4.08c-1.04,1.08-2.38,1.61-4.01,1.61-1.01,0-1.81-.19-2.41-.57-.6-.38-1.12-.77-1.56-1.19-.44-.41-.85-.81-1.23-1.19-.38-.38-.85-.57-1.42-.57-1.2,0-2.58,.81-4.15,2.42-1.57,1.61-3.21,3.81-4.91,6.6-1.7,2.79-3.38,6.04-5.05,9.78-1.67,3.73-3.19,7.75-4.58,12.06l-4.25,13.1h-8.78l6.13-19.65c1.19-3.8,2.18-6.95,2.97-9.45,.79-2.5,1.4-4.59,1.84-6.26,.44-1.68,.74-2.99,.9-3.94,.16-.95,.24-1.77,.24-2.47,0-1.39-.47-2.09-1.42-2.09-.63,0-1.4,.25-2.31,.76-.91,.51-1.81,1.14-2.69,1.9-.88,.76-1.71,1.61-2.5,2.56-.79,.95-1.37,1.87-1.75,2.75l-2.45-1.23Zm48.97,.38c0-2.09,.39-4.02,1.18-5.79,.79-1.77,1.87-3.31,3.26-4.6,1.38-1.3,3.03-2.31,4.95-3.04,1.92-.73,4.01-1.09,6.28-1.09,3.02,0,5.54,.76,7.55,2.28,2.01,1.52,3.02,3.48,3.02,5.89,0,1.33-.36,2.37-1.08,3.13-.72,.76-1.71,1.14-2.97,1.14-1.45,0-2.49-.43-3.11-1.28-.63-.85-1.17-1.8-1.6-2.85-.44-1.04-.91-2.01-1.42-2.9-.5-.89-1.35-1.33-2.55-1.33-1.38,0-2.55,.6-3.49,1.8-.94,1.2-1.42,2.69-1.42,4.46,0,2.09,.61,4.03,1.84,5.84s2.6,3.69,4.11,5.65c1.51,1.96,2.88,4.12,4.1,6.46,1.23,2.34,1.84,5.1,1.84,8.26,0,2.15-.46,4.18-1.37,6.08-.91,1.9-2.14,3.56-3.68,4.98-1.54,1.42-3.32,2.55-5.33,3.37-2.01,.82-4.09,1.23-6.23,1.23-3.77,0-6.78-.82-9.01-2.47-2.23-1.65-3.35-3.8-3.35-6.46,0-1.83,.42-3.27,1.27-4.32,.85-1.04,2-1.57,3.44-1.57,2.7,0,4.25,1.87,4.62,5.6,.19,2.03,.52,3.37,.99,4.03,.47,.67,1.43,1,2.88,1,2.26,0,4.06-.68,5.38-2.04,1.32-1.36,1.98-3.24,1.98-5.65,0-2.53-.63-4.78-1.89-6.74-1.26-1.96-2.64-3.88-4.15-5.74-1.51-1.87-2.89-3.84-4.15-5.93-1.26-2.09-1.89-4.56-1.89-7.4ZM0,172.71c5.22,0,9.76-1.4,13.63-4.21,3.87-2.8,5.8-7.74,5.8-14.8V24.71c0-7.06-1.94-11.99-5.8-14.8C9.76,7.11,5.22,5.7,0,5.7V2.71H35.36V153.7c0,7.06,1.89,12,5.67,14.8,3.78,2.81,8.28,4.21,13.5,4.21v2.99H0v-2.99ZM107.57,75.08c2.79-2.99,4.18-6.38,4.18-10.18h2.97v38.83h-2.97c0-3.8-1.4-7.2-4.18-10.18-2.79-2.99-7.69-4.48-14.71-4.48H30.77v-9.5h62.08c7.02,0,11.92-1.49,14.71-4.48ZM129.56,8.96l2.16,26.07-2.7,.27c-.54-5.97-2.25-11.22-5.13-15.75-2.88-4.52-7.56-6.79-14.04-6.79H31.58V2.71h97.44l.54,6.25Zm45.08,145.55c-1.98,6.88-.99,11.63,2.97,14.26,3.96,2.63,9.35,3.94,16.2,3.94v2.99h-55.88v-2.99c5.4,0,10.53-1.36,15.39-4.07s8.28-7.42,10.26-14.12L202.71,23.9c1.98-6.88,.27-11.63-5.13-14.26-5.4-2.62-12.42-3.94-21.05-3.94V2.71h53.45l45.08,151.8c1.98,6.7,5.4,11.41,10.26,14.12,4.86,2.72,9.89,4.07,15.12,4.07v2.99h-61v-2.99c6.84,0,12.32-1.31,16.47-3.94,4.14-2.62,5.22-7.37,3.24-14.26L215.13,6.52h3.78l-44.27,148Zm86.11-43.45v10.05h-82.87v-10.05h82.87Zm25.78-101.43c-4.95-2.62-10.12-3.94-15.52-3.94V2.71h54.79v2.99c-5.04,0-8.95,1.32-11.74,3.94-2.79,2.63-3.1,7.29-.95,13.99l49.67,152.07h-15.92L297.19,23.62c-2.16-6.7-5.71-11.36-10.66-13.99Zm128.35,20.23c0,4.35-.63,8.92-1.89,13.71-1.26,4.8-3.33,11.54-6.21,20.23l-36.71,111.88h-11.61L407.32,27.43l7.56,2.44Zm-21.46-20.23c-4.95-2.62-10.03-3.94-15.25-3.94V2.71h35.09l58.84,172.98h-16.2L404.35,23.62c-2.34-6.7-5.99-11.36-10.93-13.99Zm113.23,.14c-2.88-2.72-6.84-4.07-11.88-4.07V2.71h49.94v2.99c-5.4,0-10.48,1.36-15.25,4.07-4.77,2.72-8.06,7.51-9.85,14.39l-41.03,151.53h-11.34L508.27,24.17c1.8-6.88,1.26-11.68-1.62-14.39Zm177.07,166.73c-2.16-.54-4.95-.81-8.37-.81h-119.85v-2.44l100.41-132.52c.54-.72,1.08-1.45,1.62-2.17,.54-.72,1.08-1.45,1.62-2.17,8.81-12.31,17-21.72,24.56-28.24l9.18,2.71-108.51,3.26c-7.02,.18-12.55,4.48-16.6,12.9-4.05,8.42-6.88,17.97-8.5,28.65l-2.97-.54,7.29-46.98,.81-5.43h137.39v2.99l-93.93,125.19c-1.62,2.36-3.24,4.44-4.86,6.25-4.68,5.97-9.85,12.13-15.52,18.47-5.67,6.34-10.3,11.13-13.9,14.39l-7.29-3.26,108.24-5.16c6.48-.36,12.01-4.66,16.6-12.9,4.59-8.24,8.14-17.69,10.66-28.38l2.43,.54-11.34,46.17-2.97,11.95c-1.98-1.09-4.05-1.9-6.21-2.44ZM720.02,9.37c-5.49-2.44-10.93-3.67-16.33-3.67V2.71h36.98l48.86,100.75h-9.99l44.81-81.47c2.52-4.34,3.06-7.69,1.62-10.05-1.44-2.35-3.91-3.98-7.42-4.89-3.51-.9-7.69-1.36-12.55-1.36V2.71h60.46v2.99c-5.4,0-10.84,1.18-16.33,3.53-5.49,2.35-9.95,6.61-13.36,12.76l-46.16,83.64v48.07c0,7.06,1.89,12,5.67,14.8,3.78,2.81,8.27,4.21,13.5,4.21v2.99h-54.53v-2.99c5.22,0,9.76-1.4,13.63-4.21,3.87-2.8,5.8-7.74,5.8-14.8v-47.25l-41.84-83.91c-3.06-6.33-7.33-10.73-12.82-13.17Zm257.1,159.13c3.78,2.81,8.28,4.21,13.5,4.21v2.99h-54.53v-2.99c5.22,0,9.76-1.4,13.63-4.21,3.87-2.8,5.8-7.74,5.8-14.8V24.71c0-7.06-1.94-11.99-5.8-14.8-3.87-2.8-8.41-4.21-13.63-4.21V2.71h54.53v2.99c-5.22,0-9.72,1.4-13.5,4.21-3.78,2.81-5.67,7.74-5.67,14.8V153.7c0,7.06,1.89,12,5.67,14.8Zm83.14-94.64v10.05h-91.5v-10.05h91.5Zm18.35,94.64c3.78,2.81,8.28,4.21,13.5,4.21v2.99h-54.52v-2.99c5.22,0,9.76-1.4,13.63-4.21,3.87-2.8,5.8-7.74,5.8-14.8V24.71c0-7.06-1.94-11.99-5.8-14.8-3.87-2.8-8.41-4.21-13.63-4.21V2.71h54.52v2.99c-5.22,0-9.72,1.4-13.5,4.21-3.78,2.81-5.67,7.74-5.67,14.8V153.7c0,7.06,1.89,12,5.67,14.8ZM1222.35,11.27c11.42,7.51,19.97,17.83,25.64,30.96,5.67,13.13,8.5,28.2,8.5,45.21s-2.83,32.36-8.5,46.03c-5.67,13.67-14.22,24.44-25.64,32.31-11.43,7.88-25.42,11.81-41.97,11.81s-30.55-3.94-41.97-11.81c-11.43-7.88-19.97-18.64-25.64-32.31-5.67-13.67-8.5-29.01-8.5-46.03s2.83-32.09,8.5-45.21c5.67-13.12,14.21-23.44,25.64-30.96,11.43-7.51,25.42-11.27,41.97-11.27s30.54,3.76,41.97,11.27Zm-9.72,147.59c8.91-7.42,15.61-17.42,20.11-30.01,4.5-12.58,6.75-26.38,6.75-41.41s-2.25-28.33-6.75-40.46c-4.5-12.13-11.2-21.72-20.11-28.79s-19.66-10.59-32.26-10.59-23.35,3.53-32.26,10.59c-8.91,7.06-15.61,16.66-20.11,28.79-4.5,12.13-6.75,25.62-6.75,40.46s2.25,28.83,6.75,41.41c4.5,12.58,11.2,22.58,20.11,30.01,8.91,7.42,19.66,11.13,32.26,11.13s23.35-3.71,32.26-11.13ZM1271.2,2.31c3.15,.27,7.15,.41,12.01,.41h102.84c4.86,0,8.86-.14,12.01-.41,3.15-.27,5.71-.77,7.69-1.49l.81,7.88,3.24,28.24-2.97,.54c-.72-6.52-2.75-12.26-6.07-17.24-3.33-4.98-8.5-7.47-15.52-7.47h-101.22c-7.02,0-12.19,2.44-15.52,7.33-3.33,4.89-5.36,10.5-6.07,16.84l-2.97-.27,3.24-27.97,.81-7.88c1.98,.73,4.54,1.22,7.69,1.49Zm77.06,166.19c3.78,2.81,8.28,4.21,13.5,4.21v2.99h-54.52v-2.99c5.22,0,9.76-1.4,13.63-4.21,3.87-2.8,5.8-7.74,5.8-14.8V2.71h15.93V153.7c0,7.06,1.89,12,5.67,14.8Zm71.26,4.21c5.22,0,9.76-1.4,13.63-4.21,3.87-2.8,5.8-7.74,5.8-14.8V24.71c0-7.06-1.94-11.99-5.8-14.8-3.87-2.8-8.41-4.21-13.63-4.21V2.71h35.36V175.7h-35.36v-2.99Zm131.72-137.68l-2.7,.27c-.54-5.97-2.25-11.22-5.13-15.75-2.88-4.52-7.56-6.79-14.04-6.79h-78.28V2.71h97.44l.54,6.25,2.16,26.07Zm-23.35,38.15c2.79-2.99,4.18-6.38,4.18-10.18h2.97v38.83h-2.97c0-3.8-1.4-7.2-4.18-10.18-2.79-2.99-7.69-4.48-14.71-4.48h-62.08v-9.5h62.08c7.02,0,11.92-1.49,14.71-4.48Zm16.47,85.27c4.05-4.79,6.88-10.36,8.5-16.7l2.97,.81-7.29,26.88-1.62,6.25h-95.01v-10.05h75.85c7.02,0,12.55-2.4,16.6-7.2Zm29.01,17.24v-2.99c5.22,0,9.76-1.4,13.63-4.21,3.87-2.8,5.8-7.74,5.8-14.8V24.71c0-7.06-1.94-11.99-5.8-14.8-3.87-2.8-8.41-4.21-13.63-4.21V2.71h54.53v2.99c-5.22,0-9.72,1.4-13.5,4.21-3.78,2.81-5.67,7.74-5.67,14.8V175.7h-35.36Zm106.35-16.84c3.96-4.52,6.75-9.78,8.37-15.75l2.97,.82-7.02,25.53-1.62,6.25h-76.66v-10.05h57.49c7.02,0,12.51-2.26,16.47-6.79ZM33.07,267.64h241.79m0-1H33.07v2h241.79v-2Zm1305.04,1h-241.79m241.79-1h-241.79v2h241.79v-2Z"/>
</svg>