<?xml version="1.0" encoding="UTF-8"?>
<svg id="Layer_1" data-name="Layer 1" xmlns="http://www.w3.org/2000/svg" viewBox="0 0 2028.18 1044.55">
  <defs>
    <style>
      .cls-1 {
        fill: #a05030;
      }
    </style>
  </defs>
  <path class="cls-1" d="M464.64,1006.89c1.88,.97,4.98,1.45,9.3,1.45l-1.44,4.83h-40.68l1.32-4.83c2.56,0,4.76-.18,6.6-.54,1.84-.36,3.44-1.07,4.8-2.11,1.36-1.04,2.5-2.49,3.42-4.35,.92-1.85,1.78-4.26,2.58-7.24l5.52-21.49-14.4-34.77c-1.2-2.9-2.28-5.19-3.24-6.88s-1.96-2.98-3-3.86c-1.04-.88-2.22-1.45-3.54-1.69-1.32-.24-2.98-.36-4.98-.36l1.32-4.83h33.72l-1.32,4.83c-3.04,0-5.22,.3-6.54,.91s-1.98,1.71-1.98,3.32c0,.56,.06,1.21,.18,1.93,.12,.72,.38,1.53,.78,2.41l12.84,31.14,16.68-24.5c1.76-2.49,3.02-4.42,3.78-5.79,.76-1.37,1.14-2.78,1.14-4.23,0-1.69-.78-2.98-2.34-3.86-1.56-.88-3.74-1.33-6.54-1.33l1.32-4.83h29.64l-1.32,4.83c-1.6,0-2.96,.12-4.08,.36-1.12,.24-2.16,.72-3.12,1.45s-1.92,1.73-2.88,3.02c-.96,1.29-2.16,2.94-3.6,4.95l-25.68,36.33-5.64,21.73c-.96,3.54-1.44,6.36-1.44,8.45,0,2.74,.94,4.59,2.82,5.55Zm78.35-45.21c1,2.86,1.5,6.02,1.5,9.48,0,5.07-1,10.18-3,15.33-2,5.15-4.62,9.78-7.86,13.88-3.24,4.1-6.94,7.47-11.1,10.08-4.16,2.62-8.4,3.92-12.72,3.92-2.72,0-5.26-.54-7.62-1.63-2.36-1.09-4.42-2.67-6.18-4.77-1.76-2.09-3.16-4.65-4.2-7.67-1.04-3.02-1.56-6.42-1.56-10.2,0-5.23,.98-10.38,2.94-15.45,1.96-5.07,4.54-9.58,7.74-13.52,3.2-3.94,6.86-7.12,10.98-9.54,4.12-2.41,8.38-3.62,12.78-3.62,2.88,0,5.54,.54,7.98,1.63,2.44,1.09,4.52,2.66,6.24,4.71,1.72,2.05,3.08,4.51,4.08,7.36Zm-10.02,3.2c0-4.26-.74-7.2-2.22-8.81-1.48-1.61-3.5-2.41-6.06-2.41-1.76,0-3.54,.62-5.34,1.87-1.8,1.25-3.5,2.96-5.1,5.13-1.6,2.17-3.1,4.67-4.5,7.48-1.4,2.82-2.62,5.79-3.66,8.93-1.04,3.14-1.84,6.34-2.4,9.6-.56,3.26-.84,6.38-.84,9.36,0,4.51,.72,7.69,2.16,9.54,1.44,1.85,3.28,2.78,5.52,2.78,2.72,0,5.42-1.41,8.1-4.23,2.68-2.82,5.08-6.38,7.2-10.68,2.12-4.3,3.84-8.99,5.16-14.06,1.32-5.07,1.98-9.9,1.98-14.49Zm77.45,31.69c-1.08,1.65-2.2,3.14-3.36,4.47-1.16,1.33-2.3,2.37-3.42,3.14-1.12,.77-2.08,1.15-2.88,1.15-1.44,0-2.16-1.04-2.16-3.14,0-.72,.12-1.71,.36-2.96,.24-1.25,.64-2.86,1.2-4.83,.56-1.97,1.28-4.39,2.16-7.24,.88-2.86,1.96-6.3,3.24-10.32l8.88-27.64h-11.16l-8.88,24.14c-1.52,4.19-3.38,8.21-5.58,12.07-2.2,3.86-4.46,7.3-6.78,10.32-2.32,3.02-4.52,5.43-6.6,7.24-2.08,1.81-3.76,2.72-5.04,2.72-.72,0-1.32-.34-1.8-1.03-.48-.68-.72-1.87-.72-3.56,0-2.57,.52-5.43,1.56-8.57,1.04-3.14,2.36-6.68,3.96-10.62,2.48-6.2,4.5-11.53,6.06-15.99,1.56-4.47,2.34-8.11,2.34-10.92,0-4.67-2-7-6-7-1.92,0-4,.56-6.24,1.69-2.24,1.13-4.4,2.62-6.48,4.47-2.08,1.85-4.04,3.94-5.88,6.28-1.84,2.33-3.36,4.67-4.56,7l3.12,1.69c3.36-4.1,6.02-7.08,7.98-8.93,1.96-1.85,3.46-2.78,4.5-2.78,.48,0,.78,.14,.9,.42,.12,.28,.18,.58,.18,.91,0,.65-.14,1.49-.42,2.54-.28,1.05-.72,2.41-1.32,4.1-.6,1.69-1.4,3.78-2.4,6.28-1,2.5-2.22,5.55-3.66,9.17s-2.8,7.47-4.08,11.53c-1.28,4.06-1.92,7.79-1.92,11.17,0,3.06,.74,5.63,2.22,7.73,1.48,2.09,4.1,3.14,7.86,3.14,1.76,0,3.56-.3,5.4-.91,1.84-.6,3.72-1.67,5.64-3.2,1.92-1.53,3.9-3.54,5.94-6.04,2.04-2.49,4.14-5.67,6.3-9.54l.36,.36c-.32,1.53-.54,3.08-.66,4.65-.12,1.57-.18,3.04-.18,4.41,0,3.3,.44,5.84,1.32,7.6,.88,1.77,2.56,2.66,5.04,2.66,2.08,0,4.2-.6,6.36-1.81,2.16-1.21,4.22-2.82,6.18-4.83,1.96-2.01,3.78-4.29,5.46-6.82,1.68-2.54,3.04-5.13,4.08-7.79l-3.6-1.81c-.8,1.85-1.74,3.6-2.82,5.25Zm62.33-49.79c-1.84,0-3.82,.54-5.94,1.63-2.12,1.09-4.2,2.5-6.24,4.23-2.04,1.73-3.94,3.72-5.7,5.98-1.76,2.25-3.12,4.55-4.08,6.88l-.36-.36c.32-1.61,.54-3.02,.66-4.23,.12-1.21,.18-2.45,.18-3.74,0-3.22-.44-5.55-1.32-7-.88-1.45-2.28-2.17-4.2-2.17-1.6,0-3.48,.56-5.64,1.69-2.16,1.13-4.3,2.56-6.42,4.29-2.12,1.73-4.08,3.66-5.88,5.79-1.8,2.13-3.14,4.21-4.02,6.22l3.12,1.57c.48-1.13,1.22-2.29,2.22-3.5,1-1.21,2.06-2.29,3.18-3.26,1.12-.97,2.26-1.77,3.42-2.41,1.16-.64,2.14-.97,2.94-.97,1.2,0,1.8,.89,1.8,2.66,0,.89-.1,1.93-.3,3.14-.2,1.21-.58,2.88-1.14,5.01-.56,2.13-1.34,4.79-2.34,7.97-1,3.18-2.26,7.18-3.78,12.01l-7.8,24.99h11.16l5.4-16.66c1.76-5.47,3.7-10.58,5.82-15.33,2.12-4.75,4.26-8.89,6.42-12.43,2.16-3.54,4.24-6.34,6.24-8.39,2-2.05,3.76-3.08,5.28-3.08,.72,0,1.32,.24,1.8,.72s1,.99,1.56,1.51c.56,.52,1.22,1.03,1.98,1.51,.76,.48,1.78,.72,3.06,.72,2.08,0,3.78-.68,5.1-2.05,1.32-1.37,1.98-3.1,1.98-5.19s-.78-4-2.34-5.49c-1.56-1.49-3.5-2.23-5.82-2.23Zm119.87-26.56l-4.44,6.04c-3.6-2.49-7.14-4.33-10.62-5.49-3.48-1.17-7.14-1.75-10.98-1.75-6.72,0-13.16,1.59-19.32,4.77-6.16,3.18-11.58,7.42-16.26,12.74s-8.42,11.45-11.22,18.41c-2.8,6.96-4.2,14.26-4.2,21.91,0,5.79,.82,11.01,2.46,15.63,1.64,4.63,3.96,8.57,6.96,11.83,3,3.26,6.66,5.75,10.98,7.48s9.2,2.6,14.64,2.6c3.68,0,7.12-.44,10.32-1.33,3.2-.88,6.24-2.29,9.12-4.23s5.66-4.42,8.34-7.48c2.68-3.06,5.42-6.72,8.22-10.98l-4.32-2.9c-4.24,6.68-8.7,11.59-13.38,14.73-4.68,3.14-9.9,4.71-15.66,4.71-15.44,0-23.16-9.98-23.16-29.94,0-7.24,.96-14,2.88-20.28,1.92-6.28,4.56-11.75,7.92-16.42,3.36-4.67,7.32-8.33,11.88-10.98,4.56-2.66,9.48-3.98,14.76-3.98,6.16,0,10.78,2.01,13.86,6.04,3.08,4.03,4.94,10.42,5.58,19.19h4.56l5.52-30.3h-4.44Zm57.18,41.47c1,2.86,1.5,6.02,1.5,9.48,0,5.07-1,10.18-3,15.33-2,5.15-4.62,9.78-7.86,13.88-3.24,4.1-6.94,7.47-11.1,10.08-4.16,2.62-8.4,3.92-12.72,3.92-2.72,0-5.26-.54-7.62-1.63-2.36-1.09-4.42-2.67-6.18-4.77-1.76-2.09-3.16-4.65-4.2-7.67-1.04-3.02-1.56-6.42-1.56-10.2,0-5.23,.98-10.38,2.94-15.45,1.96-5.07,4.54-9.58,7.74-13.52,3.2-3.94,6.86-7.12,10.98-9.54,4.12-2.41,8.38-3.62,12.78-3.62,2.88,0,5.54,.54,7.98,1.63,2.44,1.09,4.52,2.66,6.24,4.71,1.72,2.05,3.08,4.51,4.08,7.36Zm-10.02,3.2c0-4.26-.74-7.2-2.22-8.81-1.48-1.61-3.5-2.41-6.06-2.41-1.76,0-3.54,.62-5.34,1.87-1.8,1.25-3.5,2.96-5.1,5.13-1.6,2.17-3.1,4.67-4.5,7.48-1.4,2.82-2.62,5.79-3.66,8.93-1.04,3.14-1.84,6.34-2.4,9.6-.56,3.26-.84,6.38-.84,9.36,0,4.51,.72,7.69,2.16,9.54,1.44,1.85,3.28,2.78,5.52,2.78,2.72,0,5.42-1.41,8.1-4.23,2.68-2.82,5.08-6.38,7.2-10.68,2.12-4.3,3.84-8.99,5.16-14.06,1.32-5.07,1.98-9.9,1.98-14.49Zm106.55,42.55c2.32-2.05,4.54-4.39,6.66-7,2.12-2.61,3.86-5.25,5.22-7.91l-3.12-1.69c-3.84,4.83-6.96,8.39-9.36,10.68s-4.2,3.44-5.4,3.44c-.8,0-1.2-.76-1.2-2.29,0-.72,.06-1.45,.18-2.17,.12-.72,.38-1.81,.78-3.26,.4-1.45,1-3.4,1.8-5.85,.8-2.45,1.88-5.73,3.24-9.84,1.04-3.22,1.94-6.01,2.7-8.39,.76-2.37,1.38-4.47,1.86-6.28,.48-1.81,.84-3.38,1.08-4.71,.24-1.33,.36-2.55,.36-3.68,0-3.62-.78-6.28-2.34-7.97-1.56-1.69-3.9-2.54-7.02-2.54-2.08,0-4.1,.4-6.06,1.21-1.96,.81-3.9,2.05-5.82,3.74-1.92,1.69-3.9,3.88-5.94,6.58-2.04,2.7-4.18,5.98-6.42,9.84l-.24-.36c.8-2.82,1.34-4.95,1.62-6.4,.28-1.45,.42-2.73,.42-3.86,0-3.38-.88-6.02-2.64-7.91-1.76-1.89-4.2-2.84-7.32-2.84-8.32,0-16.2,6.96-23.64,20.88l-.36-.36c1.36-3.54,2.04-7.24,2.04-11.11,0-3.38-.54-5.79-1.62-7.24-1.08-1.45-2.9-2.17-5.46-2.17-4.48,0-8.46,1.97-11.94,5.92-3.48,3.94-6.62,10.06-9.42,18.35l3.6,1.81c.88-2.57,1.9-5.03,3.06-7.36,1.16-2.33,2.34-4.41,3.54-6.22,1.2-1.81,2.38-3.24,3.54-4.29,1.16-1.04,2.18-1.57,3.06-1.57,1.36,0,2.04,1.13,2.04,3.38,0,.81-.12,1.81-.36,3.02-.24,1.21-.64,2.84-1.2,4.89-.56,2.05-1.32,4.67-2.28,7.85-.96,3.18-2.2,7.1-3.72,11.77l-8.88,27.64h10.56l10.08-27.4c1.44-3.86,3.22-7.67,5.34-11.41,2.12-3.74,4.34-7.1,6.66-10.08,2.32-2.98,4.6-5.39,6.84-7.24,2.24-1.85,4.16-2.78,5.76-2.78,2,0,3,1.33,3,3.98,0,.89-.14,2.01-.42,3.38-.28,1.37-.74,3.22-1.38,5.55-.64,2.33-1.52,5.25-2.64,8.75-1.12,3.5-2.52,7.83-4.2,12.98l-7.92,24.26h11.28c2.48-7.08,4.52-12.88,6.12-17.38,1.6-4.51,3-8.23,4.2-11.17,1.2-2.94,2.32-5.39,3.36-7.36,1.04-1.97,2.16-3.92,3.36-5.85,3.44-5.55,6.64-9.8,9.6-12.74,2.96-2.94,5.52-4.41,7.68-4.41,1.6,0,2.4,1.17,2.4,3.5,0,.48-.04,1.01-.12,1.57-.08,.56-.28,1.35-.6,2.35-.32,1.01-.78,2.4-1.38,4.16-.6,1.77-1.42,4.15-2.46,7.12-2.08,5.96-3.74,10.78-4.98,14.49-1.24,3.7-2.2,6.68-2.88,8.93-.68,2.25-1.12,3.98-1.32,5.19-.2,1.21-.3,2.29-.3,3.26,0,2.9,.58,5.21,1.74,6.94,1.16,1.73,2.74,2.6,4.74,2.6,1.68,0,3.66-.65,5.94-1.93,2.28-1.29,4.58-2.96,6.9-5.01Zm45.84-54.14c1.04-5.07,2.2-9.74,3.48-14,1.28-4.26,2.64-7.95,4.08-11.05,1.44-3.1,2.94-5.51,4.5-7.24,1.56-1.73,3.14-2.6,4.74-2.6,1.28,0,2.24,.28,2.88,.85,.64,.56,1.12,1.29,1.44,2.17,.32,.89,.58,1.81,.78,2.78,.2,.97,.52,1.89,.96,2.78,.44,.89,1.08,1.61,1.92,2.17,.84,.56,2.02,.85,3.54,.85,1.84,0,3.26-.64,4.26-1.93,1-1.29,1.5-2.86,1.5-4.71,0-2.98-1.52-5.45-4.56-7.42-3.04-1.97-6.92-2.96-11.64-2.96-3.12,0-6.04,.75-8.76,2.23-2.72,1.49-5.28,3.86-7.68,7.12s-4.64,7.42-6.72,12.49c-2.08,5.07-4,11.23-5.76,18.47h-11.4l-1.56,5.55h11.52l-17.4,67.96c-.8,3.14-1.96,5.67-3.48,7.6-1.52,1.93-3.2,2.9-5.04,2.9-1.6,0-2.68-.44-3.24-1.33-.56-.89-1.06-1.85-1.5-2.9-.44-1.05-.98-2.01-1.62-2.9-.64-.89-1.8-1.33-3.48-1.33-1.84,0-3.28,.58-4.32,1.75-1.04,1.17-1.56,2.76-1.56,4.77,0,2.57,1.08,4.75,3.24,6.52,2.16,1.77,4.92,2.66,8.28,2.66s6.54-.56,9.3-1.69c2.76-1.13,5.34-3.18,7.74-6.16,2.4-2.98,4.64-7.06,6.72-12.25,2.08-5.19,4.16-11.89,6.24-20.1l11.28-45.51h11.76l1.68-5.55h-12.12Zm64.26,8.39c1,2.86,1.5,6.02,1.5,9.48,0,5.07-1,10.18-3,15.33-2,5.15-4.62,9.78-7.86,13.88-3.24,4.1-6.94,7.47-11.1,10.08-4.16,2.62-8.4,3.92-12.72,3.92-2.72,0-5.26-.54-7.62-1.63-2.36-1.09-4.42-2.67-6.18-4.77-1.76-2.09-3.16-4.65-4.2-7.67-1.04-3.02-1.56-6.42-1.56-10.2,0-5.23,.98-10.38,2.94-15.45,1.96-5.07,4.54-9.58,7.74-13.52,3.2-3.94,6.86-7.12,10.98-9.54,4.12-2.41,8.38-3.62,12.78-3.62,2.88,0,5.54,.54,7.98,1.63,2.44,1.09,4.52,2.66,6.24,4.71,1.72,2.05,3.08,4.51,4.08,7.36Zm-10.02,3.2c0-4.26-.74-7.2-2.22-8.81-1.48-1.61-3.5-2.41-6.06-2.41-1.76,0-3.54,.62-5.34,1.87-1.8,1.25-3.5,2.96-5.1,5.13-1.6,2.17-3.1,4.67-4.5,7.48-1.4,2.82-2.62,5.79-3.66,8.93-1.04,3.14-1.84,6.34-2.4,9.6-.56,3.26-.84,6.38-.84,9.36,0,4.51,.72,7.69,2.16,9.54,1.44,1.85,3.28,2.78,5.52,2.78,2.72,0,5.42-1.41,8.1-4.23,2.68-2.82,5.08-6.38,7.2-10.68,2.12-4.3,3.84-8.99,5.16-14.06,1.32-5.07,1.98-9.9,1.98-14.49Zm68.63-18.11c-1.84,0-3.82,.54-5.94,1.63-2.12,1.09-4.2,2.5-6.24,4.23-2.04,1.73-3.94,3.72-5.7,5.98-1.76,2.25-3.12,4.55-4.08,6.88l-.36-.36c.32-1.61,.54-3.02,.66-4.23,.12-1.21,.18-2.45,.18-3.74,0-3.22-.44-5.55-1.32-7-.88-1.45-2.28-2.17-4.2-2.17-1.6,0-3.48,.56-5.64,1.69-2.16,1.13-4.3,2.56-6.42,4.29-2.12,1.73-4.08,3.66-5.88,5.79-1.8,2.13-3.14,4.21-4.02,6.22l3.12,1.57c.48-1.13,1.22-2.29,2.22-3.5,1-1.21,2.06-2.29,3.18-3.26,1.12-.97,2.26-1.77,3.42-2.41,1.16-.64,2.14-.97,2.94-.97,1.2,0,1.8,.89,1.8,2.66,0,.89-.1,1.93-.3,3.14-.2,1.21-.58,2.88-1.14,5.01-.56,2.13-1.34,4.79-2.34,7.97-1,3.18-2.26,7.18-3.78,12.01l-7.8,24.99h11.16l5.4-16.66c1.76-5.47,3.7-10.58,5.82-15.33,2.12-4.75,4.26-8.89,6.42-12.43,2.16-3.54,4.24-6.34,6.24-8.39,2-2.05,3.76-3.08,5.28-3.08,.72,0,1.32,.24,1.8,.72s1,.99,1.56,1.51c.56,.52,1.22,1.03,1.98,1.51,.76,.48,1.78,.72,3.06,.72,2.08,0,3.78-.68,5.1-2.05,1.32-1.37,1.98-3.1,1.98-5.19s-.78-4-2.34-5.49c-1.56-1.49-3.5-2.23-5.82-2.23Zm40.2-13.88h-11.04l-6.24,20.76h-10.44l-1.56,5.55h10.32l-8.88,29.58c-1.36,4.75-2.32,8.49-2.88,11.23-.56,2.74-.84,4.91-.84,6.52,0,2.82,.62,4.83,1.86,6.04,1.24,1.21,3.26,1.81,6.06,1.81,1.92,0,4.06-.58,6.42-1.75,2.36-1.17,4.7-2.72,7.02-4.65,2.32-1.93,4.52-4.16,6.6-6.7,2.08-2.53,3.8-5.17,5.16-7.91l-3.48-2.05c-.56,.89-1.42,2.11-2.58,3.68-1.16,1.57-2.48,3.1-3.96,4.59-1.48,1.49-3.02,2.78-4.62,3.86-1.6,1.09-3.12,1.63-4.56,1.63-.88,0-1.5-.28-1.86-.85-.36-.56-.54-1.21-.54-1.93,.08-2.25,.8-5.55,2.16-9.9l9.96-33.2h13.08l1.68-5.55h-13.08l6.24-20.76Zm165.35-7.85l1.32-4.83h-25.32l-45.24,71.95h-.48l-8.52-71.95h-28.8l-1.32,4.83c4.32,0,7.38,.34,9.18,1.03,1.8,.68,2.7,2.27,2.7,4.77,0,2.17-.6,5.47-1.8,9.9l-14.04,53.36c-1.12,4.1-3.16,7.5-6.12,10.2-2.96,2.7-6.32,4.04-10.08,4.04l-1.32,4.83h33.12l1.44-4.83c-3.12-.08-5.62-.94-7.5-2.6-1.88-1.65-2.82-4.16-2.82-7.54,0-.8,.08-1.65,.24-2.53,.16-.88,.36-1.81,.6-2.78l15.36-58.79h.48l9.36,79.07h5.16l49.2-79.07h.48l-15.84,60c-.8,2.98-1.62,5.39-2.46,7.24-.84,1.85-1.84,3.3-3,4.35-1.16,1.05-2.5,1.75-4.02,2.11-1.52,.36-3.36,.54-5.52,.54l-1.32,4.83h38.28l1.44-4.83c-4.32,0-7.42-.48-9.3-1.45-1.88-.97-2.82-2.82-2.82-5.55,0-2.09,.48-4.91,1.44-8.45l12.6-48.04c1.04-4.1,2-7.44,2.88-10.02,.88-2.57,1.86-4.59,2.94-6.04,1.08-1.45,2.34-2.43,3.78-2.96,1.44-.52,3.32-.78,5.64-.78Zm52.44,68.08l3.12,2.54c-3.36,5.96-6.98,10.56-10.86,13.82-3.88,3.26-7.62,4.89-11.22,4.89-1.84,0-3.26-.71-4.26-2.11-1-1.41-1.5-3.72-1.5-6.94,0-.72,.02-1.57,.06-2.53,.04-.97,.14-2.25,.3-3.86l-.48-.12c-1.2,2.25-2.62,4.33-4.26,6.22-1.64,1.89-3.42,3.54-5.34,4.95-1.92,1.41-3.92,2.5-6,3.26-2.08,.76-4.12,1.15-6.12,1.15-4.08,0-7.26-1.55-9.54-4.65-2.28-3.1-3.42-7.38-3.42-12.86s1.16-11.23,3.48-17.02c2.32-5.79,5.32-11.05,9-15.75,3.68-4.71,7.76-8.57,12.24-11.59,4.48-3.02,8.88-4.53,13.2-4.53,2.64,0,4.8,.62,6.48,1.87,1.68,1.25,3.04,3.28,4.08,6.1l2.52-6.76h9.96l-6.84,18.47c-1.12,3.06-2.22,6.32-3.3,9.78-1.08,3.46-2.04,6.8-2.88,10.02-.84,3.22-1.5,6.16-1.98,8.81s-.72,4.63-.72,5.92c0,2.33,.76,3.5,2.28,3.5,1.12,0,2.74-1.17,4.86-3.5,2.12-2.33,4.5-5.35,7.14-9.05Zm-15.96-32.11c0-2.09-.44-3.74-1.32-4.95-.88-1.21-2.08-1.81-3.6-1.81-3.04,0-6.18,1.41-9.42,4.23-3.24,2.82-6.18,6.34-8.82,10.56-2.64,4.23-4.8,8.77-6.48,13.64-1.68,4.87-2.52,9.4-2.52,13.58,0,2.9,.6,5.21,1.8,6.94,1.2,1.73,2.84,2.6,4.92,2.6,1.84,0,3.76-.74,5.76-2.23,2-1.49,3.94-3.46,5.82-5.92,1.88-2.45,3.66-5.25,5.34-8.39,1.68-3.14,3.16-6.38,4.44-9.72,1.28-3.34,2.28-6.62,3-9.84,.72-3.22,1.08-6.11,1.08-8.69Zm59.75-28.13h-11.04l-6.24,20.76h-10.44l-1.56,5.55h10.32l-8.88,29.58c-1.36,4.75-2.32,8.49-2.88,11.23-.56,2.74-.84,4.91-.84,6.52,0,2.82,.62,4.83,1.86,6.04,1.24,1.21,3.26,1.81,6.06,1.81,1.92,0,4.06-.58,6.42-1.75,2.36-1.17,4.7-2.72,7.02-4.65,2.32-1.93,4.52-4.16,6.6-6.7,2.08-2.53,3.8-5.17,5.16-7.91l-3.48-2.05c-.56,.89-1.42,2.11-2.58,3.68-1.16,1.57-2.48,3.1-3.96,4.59-1.48,1.49-3.02,2.78-4.62,3.86-1.6,1.09-3.12,1.63-4.56,1.63-.88,0-1.5-.28-1.86-.85-.36-.56-.54-1.21-.54-1.93,.08-2.25,.8-5.55,2.16-9.9l9.96-33.2h13.08l1.68-5.55h-13.08l6.24-20.76Zm43.79,0h-11.04l-6.24,20.76h-10.44l-1.56,5.55h10.32l-8.88,29.58c-1.36,4.75-2.32,8.49-2.88,11.23-.56,2.74-.84,4.91-.84,6.52,0,2.82,.62,4.83,1.86,6.04,1.24,1.21,3.26,1.81,6.06,1.81,1.92,0,4.06-.58,6.42-1.75,2.36-1.17,4.7-2.72,7.02-4.65,2.32-1.93,4.52-4.16,6.6-6.7,2.08-2.53,3.8-5.17,5.16-7.91l-3.48-2.05c-.56,.89-1.42,2.11-2.58,3.68-1.16,1.57-2.48,3.1-3.96,4.59-1.48,1.49-3.02,2.78-4.62,3.86-1.6,1.09-3.12,1.63-4.56,1.63-.88,0-1.5-.28-1.86-.85-.36-.56-.54-1.21-.54-1.93,.08-2.25,.8-5.55,2.16-9.9l9.96-33.2h13.08l1.68-5.55h-13.08l6.24-20.76Zm60.83,25.59c0,2.82-1.04,5.71-3.12,8.69-2.08,2.98-4.9,5.79-8.46,8.45-3.56,2.66-7.72,5.07-12.48,7.24-4.76,2.17-9.82,3.86-15.18,5.07-.16,1.13-.28,2.23-.36,3.32-.08,1.09-.12,2.19-.12,3.32,0,8.77,3.08,13.16,9.24,13.16,2.96,0,6.02-1.17,9.18-3.5,3.16-2.33,6.1-5.55,8.82-9.66l3.84,2.53c-6.96,11.51-15.52,17.26-25.68,17.26-5.52,0-9.76-1.71-12.72-5.13-2.96-3.42-4.44-8.27-4.44-14.55,0-5.55,1.14-11.11,3.42-16.66s5.26-10.56,8.94-15.03c3.68-4.47,7.8-8.09,12.36-10.86,4.56-2.78,9.12-4.16,13.68-4.16,3.84,0,6.98,.99,9.42,2.96,2.44,1.97,3.66,4.49,3.66,7.54Zm-11.28,.24c0-3.38-1.4-5.07-4.2-5.07-2.08,0-4.24,.81-6.48,2.41-2.24,1.61-4.38,3.76-6.42,6.46-2.04,2.7-3.9,5.78-5.58,9.23-1.68,3.46-3.04,7.04-4.08,10.74,3.84-1.04,7.4-2.41,10.68-4.1,3.28-1.69,6.1-3.6,8.46-5.73,2.36-2.13,4.22-4.39,5.58-6.76,1.36-2.37,2.04-4.77,2.04-7.18Zm72.47-4.23c0-2.17-.78-4-2.34-5.49-1.56-1.49-3.5-2.23-5.82-2.23-1.84,0-3.82,.54-5.94,1.63-2.12,1.09-4.2,2.5-6.24,4.23-2.04,1.73-3.94,3.72-5.7,5.98-1.76,2.25-3.12,4.55-4.08,6.88l-.36-.36c.32-1.61,.54-3.02,.66-4.23,.12-1.21,.18-2.45,.18-3.74,0-3.22-.44-5.55-1.32-7-.88-1.45-2.28-2.17-4.2-2.17-1.6,0-3.48,.56-5.64,1.69-2.16,1.13-4.3,2.56-6.42,4.29-2.12,1.73-4.08,3.66-5.88,5.79-1.8,2.13-3.14,4.21-4.02,6.22l3.12,1.57c.48-1.13,1.22-2.29,2.22-3.5,1-1.21,2.06-2.29,3.18-3.26,1.12-.97,2.26-1.77,3.42-2.41,1.16-.64,2.14-.97,2.94-.97,1.2,0,1.8,.89,1.8,2.66,0,.89-.1,1.93-.3,3.14-.2,1.21-.58,2.88-1.14,5.01-.56,2.13-1.34,4.79-2.34,7.97-1,3.18-2.26,7.18-3.78,12.01l-7.8,24.99h11.16l5.4-16.66c1.76-5.47,3.7-10.58,5.82-15.33,2.12-4.75,4.26-8.89,6.42-12.43,2.16-3.54,4.24-6.34,6.24-8.39,2-2.05,3.76-3.08,5.28-3.08,.72,0,1.32,.24,1.8,.72s1,.99,1.56,1.51c.56,.52,1.22,1.03,1.98,1.51,.76,.48,1.78,.72,3.06,.72,2.08,0,3.78-.68,5.1-2.05,1.32-1.37,1.98-3.1,1.98-5.19Zm34.68-3.62c-2.56-1.93-5.76-2.9-9.6-2.9-2.88,0-5.54,.46-7.98,1.39-2.44,.93-4.54,2.21-6.3,3.86-1.76,1.65-3.14,3.6-4.14,5.85-1,2.25-1.5,4.71-1.5,7.36,0,3.62,.8,6.76,2.4,9.42,1.6,2.66,3.36,5.17,5.28,7.54,1.92,2.38,3.68,4.81,5.28,7.3,1.6,2.5,2.4,5.35,2.4,8.57s-.84,5.45-2.52,7.18c-1.68,1.73-3.96,2.6-6.84,2.6-1.84,0-3.06-.42-3.66-1.27-.6-.85-1.02-2.55-1.26-5.13-.48-4.75-2.44-7.12-5.88-7.12-1.84,0-3.3,.66-4.38,1.99-1.08,1.33-1.62,3.16-1.62,5.49,0,3.38,1.42,6.12,4.26,8.21s6.66,3.14,11.46,3.14c2.72,0,5.36-.52,7.92-1.57,2.56-1.04,4.82-2.47,6.78-4.29,1.96-1.81,3.52-3.92,4.68-6.34,1.16-2.41,1.74-4.99,1.74-7.73,0-4.02-.78-7.52-2.34-10.5-1.56-2.98-3.3-5.71-5.22-8.21-1.92-2.49-3.66-4.89-5.22-7.18-1.56-2.29-2.34-4.77-2.34-7.42,0-2.25,.6-4.14,1.8-5.67,1.2-1.53,2.68-2.29,4.44-2.29,1.52,0,2.6,.56,3.24,1.69,.64,1.13,1.24,2.35,1.8,3.68,.56,1.33,1.24,2.54,2.04,3.62,.8,1.09,2.12,1.63,3.96,1.63,1.6,0,2.86-.48,3.78-1.45,.92-.97,1.38-2.29,1.38-3.98,0-3.06-1.28-5.55-3.84-7.48ZM111.36,752.94c8.42,0,14.29,1.79,17.64,5.37,3.34,3.58,5.02,7.65,5.02,12.21h3.56v-46.57h-3.56c0,4.56-1.67,8.63-5.02,12.21-3.35,3.58-9.23,5.37-17.64,5.37H42.41v-80.12h89.35c7.77,0,13.38,2.72,16.83,8.14,3.45,5.43,5.5,11.72,6.15,18.89l3.24-.33-2.59-31.27-.65-7.49H0v3.58c6.26,0,11.71,1.68,16.35,5.05,4.64,3.37,6.96,9.28,6.96,17.75v154.7c0,8.47-2.32,14.39-6.96,17.75-4.64,3.37-10.09,5.05-16.35,5.05v3.58H65.39v-3.58c-6.26,0-11.65-1.68-16.19-5.05-4.53-3.36-6.8-9.28-6.8-17.75v-77.51H111.36Zm81.26,103.89h-27.19v-3.58c6.47,0,12.63-1.63,18.45-4.89,5.83-3.26,9.92-8.9,12.3-16.94l46.94-156.66c2.37-8.25,.32-13.95-6.15-17.1-6.47-3.15-14.89-4.72-25.25-4.72v-3.58h64.1l54.06,182.06c2.37,8.04,6.47,13.68,12.3,16.94,5.83,3.26,11.87,4.89,18.13,4.89v3.58h-73.16v-3.58c8.2,0,14.78-1.57,19.75-4.72,4.96-3.15,6.26-8.84,3.88-17.1l-11.91-40.06h-77.44l-11.98,40.06c-2.38,8.25-1.19,13.95,3.56,17.1,4.75,3.15,11.22,4.72,19.42,4.72v3.58h-39.82Zm32.42-77.51h70.25l-35.02-117.79-35.23,117.79Zm409.96-121.48c5.72-3.26,11.82-4.89,18.29-4.89v-3.58h-59.89v3.58c6.04,0,10.79,1.63,14.24,4.89,3.45,3.26,4.1,9.01,1.94,17.26l-46.62,172.2-67.33-197.93h-42.09v3.58c6.26,0,12.35,1.58,18.29,4.72,5.93,3.15,10.3,8.74,13.11,16.77l2.57,7.57-55,166.92-56.99-174.49c-2.59-8.03-2.22-13.62,1.13-16.77,3.34-3.15,8.04-4.72,14.08-4.72v-3.58h-65.72v3.58c6.47,0,12.68,1.58,18.61,4.72,5.93,3.15,10.2,8.74,12.79,16.77l59.57,182.39h27.84l44.03-134.18c2.78-8.39,4.92-15.24,6.44-20.61l52.48,154.79h27.19l49.21-181.73c2.15-8.25,6.1-14,11.82-17.26Zm155.55,31.92c-.65,.87-1.3,1.74-1.94,2.61-.65,.87-1.29,1.74-1.94,2.61l-120.43,158.94v2.93h143.74c4.1,0,7.45,.33,10.04,.98s5.07,1.63,7.45,2.93l3.56-14.33,13.6-55.37-2.91-.65c-3.02,12.81-7.28,24.16-12.79,34.03-5.5,9.88-12.14,15.04-19.91,15.47l-116.32,5.55c3.43-3.42,7.39-7.65,11.92-12.71,6.8-7.6,13-14.98,18.61-22.15,1.94-2.17,3.88-4.67,5.83-7.49l112.66-150.14v-3.58h-164.78l-.97,6.51-8.74,56.34,3.56,.65c1.94-12.81,5.34-24.26,10.2-34.36,4.86-10.1,11.49-15.25,19.91-15.47l115.06-3.46c-7.91,7.54-16.38,17.58-25.38,30.16Zm213.01-17.26c4.1-7.38,9.44-12.48,16.02-15.31,6.58-2.82,13.11-4.23,19.59-4.23v-3.58h-72.52v3.58c5.83,0,10.85,.54,15.05,1.63,4.21,1.09,7.17,3.04,8.9,5.86,1.72,2.82,1.08,6.84-1.94,12.05l-47.37,86.13-52.98-109.26h-44.35v3.58c6.47,0,13,1.47,19.59,4.4,6.58,2.93,11.71,8.2,15.38,15.8l50.18,100.64v56.67c0,8.47-2.32,14.39-6.96,17.75-4.64,3.37-10.09,5.05-16.35,5.05v3.58h65.39v-3.58c-6.26,0-11.65-1.68-16.19-5.05-4.53-3.36-6.8-9.28-6.8-17.75v-57.65l55.36-100.31Zm161.54,157.96v-83.7h102.62v83.7c0,8.47-2.32,14.39-6.96,17.75-4.64,3.37-10.09,5.05-16.35,5.05v3.58h65.39v-3.58c-6.26,0-11.65-1.68-16.19-5.05-4.53-3.36-6.8-9.28-6.8-17.75v-154.7c0-8.47,2.27-14.38,6.8-17.75,4.53-3.36,9.92-5.05,16.19-5.05v-3.58h-65.39v3.58c6.26,0,11.71,1.68,16.35,5.05,4.64,3.37,6.96,9.28,6.96,17.75v58.95h-102.62v-58.95c0-8.47,2.27-14.38,6.8-17.75,4.53-3.36,9.92-5.05,16.19-5.05v-3.58h-65.39v3.58c6.26,0,11.71,1.68,16.35,5.05,4.64,3.37,6.96,9.28,6.96,17.75v154.7c0,8.47-2.32,14.39-6.96,17.75-4.64,3.37-10.09,5.05-16.35,5.05v3.58h65.39v-3.58c-6.26,0-11.65-1.68-16.19-5.05-4.53-3.36-6.8-9.28-6.8-17.75Zm250.57-184.34c19.85,0,36.63,4.51,50.34,13.52,13.7,9.01,23.96,21.39,30.75,37.13,6.8,15.75,10.2,33.82,10.2,54.23s-3.4,38.81-10.2,55.2c-6.8,16.4-17.05,29.31-30.75,38.76-13.71,9.44-30.49,14.17-50.34,14.17s-36.64-4.72-50.34-14.17c-13.71-9.44-23.96-22.36-30.75-38.76-6.8-16.39-10.2-34.79-10.2-55.2s3.4-38.48,10.2-54.23c6.8-15.74,17.05-28.12,30.75-37.13,13.7-9.01,30.48-13.52,50.34-13.52Zm38.69,21.82c-10.68-8.47-23.58-12.7-38.69-12.7s-28,4.23-38.69,12.7-18.73,19.98-24.12,34.52c-5.4,14.55-8.09,30.73-8.09,48.53s2.7,34.58,8.09,49.67c5.39,15.09,13.44,27.09,24.12,35.99,10.68,8.91,23.58,13.35,38.69,13.35s28-4.45,38.69-13.35c10.68-8.9,18.72-20.9,24.12-35.99,5.39-15.09,8.09-31.64,8.09-49.67s-2.7-33.98-8.09-48.53c-5.4-14.54-13.44-26.06-24.12-34.52Zm155.88,162.52v-169.03h51.15c8.42,0,14.62,2.99,18.61,8.96,3.99,5.97,6.42,12.86,7.28,20.68l3.56-.65-3.88-33.87-.97-9.45c-2.38,.87-5.45,1.47-9.23,1.79-3.78,.33-8.58,.49-14.41,.49h-123.34c-5.83,0-10.63-.16-14.41-.49-3.78-.33-6.85-.92-9.23-1.79l-.97,9.45-3.88,33.55,3.56,.33c.86-7.6,3.29-14.33,7.28-20.19,3.99-5.86,10.2-8.79,18.61-8.79h51.15v169.03c0,8.47-2.32,14.39-6.96,17.75-4.64,3.37-10.09,5.05-16.35,5.05v3.58h65.39v-3.58c-6.26,0-11.65-1.68-16.19-5.05-4.53-3.36-6.8-9.28-6.8-17.75Zm131.11,26.38h113.95l1.94-7.49,8.74-32.24-3.56-.98c-1.94,7.6-5.34,14.28-10.2,20.03-4.86,5.76-11.49,8.63-19.91,8.63h-87.41v-94.12h69.93c8.42,0,14.29,1.79,17.64,5.37,3.34,3.58,5.02,7.65,5.02,12.21h3.56v-46.57h-3.56c0,4.56-1.67,8.63-5.02,12.21-3.35,3.58-9.23,5.37-17.64,5.37h-69.93v-77.84h89.35c7.77,0,13.38,2.72,16.83,8.14,3.45,5.43,5.5,11.72,6.15,18.89l3.24-.33-2.59-31.27-.65-7.49h-154.75v3.58c6.26,0,11.71,1.68,16.35,5.05,4.64,3.37,6.96,9.28,6.96,17.75v154.7c0,8.47-2.32,14.39-6.96,17.75-4.64,3.37-10.09,5.05-16.35,5.05v3.58h38.85Zm283.27-39.08c-1.94,7.17-5.29,13.46-10.04,18.89-4.75,5.43-11.33,8.14-19.75,8.14h-65.39v-169.03c0-8.47,2.27-14.38,6.8-17.75,4.53-3.36,9.92-5.05,16.19-5.05v-3.58h-65.39v3.58c6.26,0,11.71,1.68,16.35,5.05,4.64,3.37,6.96,9.28,6.96,17.75v154.7c0,8.47-2.32,14.39-6.96,17.75-4.64,3.37-10.09,5.05-16.35,5.05v3.58h130.79l1.94-7.49,8.42-30.61-3.56-.98ZM115.44,980.26H405.44v-3H115.44v3Zm1544.83,0h290v-3h-290v3ZM587.42,282.68c-1.59,1.3-3.75,1.95-6.48,1.95-1.66,0-3.2-.25-4.62-.75-1.42-.5-2.68-1.22-3.77-2.14-1.09-.93-1.99-2.06-2.71-3.4-.72-1.34-1.21-2.84-1.47-4.51h-2.05l.83,12.48h1.27l1.55-2.73c1.73,1.41,3.44,2.41,5.12,3.01,1.68,.59,3.57,.89,5.68,.89,2.21,0,4.24-.31,6.09-.92,1.85-.61,3.43-1.48,4.76-2.59,1.33-1.11,2.36-2.45,3.1-4.01,.74-1.56,1.11-3.27,1.11-5.12,0-1.45-.22-2.76-.67-3.93-.44-1.17-1.2-2.28-2.27-3.34-1.07-1.06-2.51-2.12-4.32-3.17-1.81-1.06-4.08-2.2-6.81-3.43-1.59-.7-2.92-1.38-3.99-2.03-1.07-.65-1.94-1.3-2.6-1.95-.67-.65-1.15-1.34-1.44-2.06-.29-.72-.44-1.53-.44-2.42,0-1.89,.66-3.4,1.99-4.51,1.33-1.11,3.12-1.67,5.37-1.67,2.36,0,4.38,.74,6.07,2.23,1.68,1.49,2.96,3.75,3.85,6.8h2.05l-.61-11.09h-1.27l-1.44,2.51c-1.44-1.15-2.86-1.99-4.26-2.51-1.4-.52-2.92-.78-4.54-.78-1.81,0-3.47,.29-4.98,.86-1.51,.58-2.82,1.39-3.93,2.45-1.11,1.06-1.97,2.31-2.58,3.76-.61,1.45-.91,3.03-.91,4.73,0,1.45,.19,2.74,.58,3.87,.39,1.13,1.04,2.2,1.97,3.2,.92,1,2.16,1.97,3.71,2.9,1.55,.93,3.47,1.89,5.76,2.9,1.88,.82,3.44,1.58,4.68,2.28,1.24,.71,2.22,1.42,2.96,2.14,.74,.72,1.27,1.48,1.58,2.26,.31,.78,.47,1.63,.47,2.56,0,2.23-.79,3.99-2.38,5.29Zm31.84,2.12c-1.29-.04-2.33-.15-3.13-.34-.79-.18-1.4-.58-1.83-1.17-.42-.59-.71-1.43-.86-2.51-.15-1.08-.22-2.54-.22-4.4v-21.84c0-1.67,.06-3.04,.19-4.12,.13-1.08,.39-1.92,.78-2.54,.39-.61,.94-1.05,1.66-1.31,.72-.26,1.67-.41,2.85-.45v-2.12h-16.84v2.12c1.18,.08,2.14,.23,2.88,.47,.74,.24,1.3,.66,1.69,1.25,.39,.59,.64,1.4,.77,2.42,.13,1.02,.19,2.31,.19,3.87v22.62c0,1.75-.08,3.13-.22,4.15-.15,1.02-.44,1.81-.89,2.37-.44,.56-1.06,.94-1.85,1.14-.79,.21-1.84,.33-3.13,.36v2.12h17.94v-2.12Zm19.94,0c-1.18-.04-2.13-.15-2.85-.34-.72-.18-1.27-.58-1.66-1.17-.39-.59-.65-1.43-.78-2.51-.13-1.08-.19-2.54-.19-4.4v-23.79h.22l26.3,34.87h3.32v-33.31c0-1.71,.07-3.08,.22-4.12,.15-1.04,.44-1.84,.88-2.4,.44-.56,1.06-.94,1.85-1.14,.8-.2,1.84-.32,3.13-.36v-2.12h-14.9v2.12c1.18,.04,2.13,.15,2.85,.34,.72,.19,1.27,.58,1.66,1.17,.39,.59,.65,1.44,.78,2.54,.13,1.1,.19,2.55,.19,4.37v21.95h-.22l-24.2-32.48h-10.97v2.12c1.18,.08,2.14,.23,2.88,.47,.74,.24,1.3,.66,1.69,1.25,.39,.59,.64,1.4,.77,2.42,.13,1.02,.2,2.31,.2,3.87v22.62c0,1.75-.08,3.13-.22,4.15-.15,1.02-.44,1.81-.89,2.37-.44,.56-1.06,.94-1.86,1.14-.79,.21-1.84,.33-3.13,.36v2.12h14.9v-2.12Zm40.84-3.09c1.79,1.84,3.95,3.26,6.48,4.26,2.53,1,5.36,1.5,8.5,1.5,5.5,0,10.19-1.65,14.07-4.96l1.27,4.4h1.94v-13.87h-2.27c-2.03,7.61-6.61,11.42-13.73,11.42-4.69,0-8.27-1.61-10.74-4.82-2.47-3.21-3.71-7.81-3.71-13.79,0-3.04,.32-5.78,.97-8.19,.64-2.41,1.58-4.46,2.8-6.13,1.22-1.67,2.71-2.95,4.49-3.85,1.77-.89,3.78-1.34,6.04-1.34,3.29,0,6.09,.93,8.42,2.79,2.33,1.86,3.89,4.42,4.71,7.69h2.05l-.5-12.81h-1.55l-1,3.45c-2.29-1.41-4.41-2.43-6.37-3.06-1.96-.63-4.04-.95-6.26-.95-3.14,0-6.01,.55-8.61,1.64-2.6,1.1-4.84,2.65-6.7,4.65-1.87,2.01-3.32,4.4-4.35,7.19-1.03,2.79-1.55,5.87-1.55,9.25s.49,6.17,1.47,8.8,2.36,4.87,4.15,6.71Zm73.18-5.77h-2.1c-.37,1.64-.83,3-1.38,4.1-.55,1.1-1.29,1.98-2.21,2.64-.92,.67-2.07,1.14-3.43,1.42-1.37,.28-3.03,.42-4.98,.42-1.74,0-3.19-.1-4.38-.31-1.18-.2-2.13-.56-2.85-1.06-.72-.5-1.23-1.15-1.52-1.95-.29-.8-.44-1.81-.44-3.04v-12.59c2.07,0,3.77,.14,5.12,.42,1.35,.28,2.42,.69,3.21,1.22,.79,.54,1.35,1.22,1.66,2.03,.31,.82,.47,1.78,.47,2.9h1.94v-15.21h-1.94c0,1.11-.18,2.08-.53,2.9-.35,.82-.92,1.49-1.72,2.01-.79,.52-1.87,.9-3.21,1.14-1.35,.24-3.02,.36-5.01,.36v-15.99c0-.63,.31-.95,.94-.95h7.03c1.88,0,3.49,.11,4.82,.34,1.33,.22,2.43,.61,3.29,1.17,.87,.56,1.55,1.31,2.05,2.26,.5,.95,.86,2.16,1.08,3.65h1.94l-.5-9.81h-32.01v2.12c1.18,.08,2.14,.19,2.88,.36,.74,.17,1.3,.48,1.69,.95,.39,.46,.64,1.1,.77,1.9,.13,.8,.19,1.85,.19,3.15v25.96c0,1.3-.08,2.36-.22,3.17-.15,.82-.44,1.45-.89,1.9-.44,.45-1.06,.76-1.85,.95-.8,.19-1.84,.3-3.13,.34v2.12h34.39l.83-10.98Zm573.1,.5h-2.05c-.41,1.3-.81,2.37-1.22,3.2-.41,.84-.87,1.5-1.38,1.98-.52,.48-1.11,.81-1.77,.97-.67,.17-1.44,.25-2.33,.25h-11.02l-.05-.28c2.69-2,5.22-4.04,7.59-6.1,2.36-2.06,4.43-4.16,6.2-6.3,1.77-2.13,3.16-4.31,4.18-6.52,1.01-2.21,1.52-4.46,1.52-6.77,0-1.78-.32-3.41-.97-4.87-.65-1.47-1.56-2.74-2.74-3.82-1.18-1.08-2.59-1.91-4.21-2.51-1.63-.59-3.42-.89-5.37-.89s-3.77,.3-5.45,.89c-1.68,.59-3.13,1.4-4.35,2.42-1.22,1.02-2.18,2.24-2.88,3.65-.7,1.41-1.05,2.95-1.05,4.62,0,1.22,.17,2.35,.52,3.37,.35,1.02,.85,1.9,1.5,2.65,.65,.74,1.4,1.32,2.27,1.73,.87,.41,1.82,.61,2.85,.61,1.14,0,2.1-.27,2.88-.81,.78-.54,1.25-1.25,1.44-2.14-1.88,0-3.37-.59-4.46-1.78-1.09-1.19-1.63-2.79-1.63-4.79,0-2.3,.69-4.18,2.08-5.63,1.38-1.45,3.18-2.17,5.4-2.17,2.33,0,4.16,.84,5.51,2.51,1.35,1.67,2.02,3.96,2.02,6.85,0,1.97-.29,3.91-.88,5.82-.59,1.91-1.66,4-3.21,6.27-1.55,2.27-3.68,4.82-6.4,7.66-2.71,2.84-6.17,6.16-10.38,9.94v1.84h25.75l2.1-11.87Zm8.17-.78c-.87-2.64-1.3-5.46-1.3-8.47,0-3.16,.43-6.09,1.3-8.8,.87-2.71,2.04-5.07,3.52-7.07,1.48-2.01,3.21-3.58,5.21-4.73,1.99-1.15,4.12-1.73,6.37-1.73s4.37,.58,6.37,1.73c1.99,1.15,3.73,2.73,5.21,4.73,1.48,2.01,2.65,4.36,3.52,7.07,.87,2.71,1.3,5.65,1.3,8.8s-.43,5.83-1.3,8.47c-.87,2.64-2.04,4.93-3.52,6.88-1.48,1.95-3.21,3.49-5.21,4.62-1.99,1.13-4.12,1.7-6.37,1.7s-4.38-.56-6.37-1.7c-1.99-1.13-3.73-2.67-5.21-4.62-1.48-1.95-2.65-4.24-3.52-6.88Zm5.9-8.3c0,3.64,.21,6.67,.64,9.08,.42,2.41,1.02,4.35,1.8,5.79,.78,1.45,1.74,2.47,2.88,3.06,1.14,.59,2.44,.89,3.88,.89s2.72-.3,3.85-.89c1.12-.59,2.08-1.62,2.88-3.06,.79-1.45,1.4-3.38,1.83-5.79,.42-2.41,.64-5.44,.64-9.08s-.21-6.94-.64-9.47c-.42-2.53-1.02-4.56-1.8-6.1-.78-1.54-1.74-2.64-2.88-3.29s-2.44-.98-3.88-.98-2.73,.33-3.88,.98-2.1,1.75-2.88,3.29c-.78,1.54-1.38,3.57-1.8,6.1-.42,2.53-.64,5.68-.64,9.47Zm38.6-16.27c.11,.45,.18,1.37,.19,2.79,.02,1.41,.03,3.2,.03,5.35v20.45c0,1.3-.06,2.37-.19,3.2-.13,.84-.41,1.49-.83,1.95-.42,.47-1.02,.8-1.77,1-.76,.21-1.74,.33-2.96,.36v2.12h16.94v-2.12c-1.25-.04-2.26-.15-3.02-.34-.76-.18-1.34-.53-1.74-1.03-.41-.5-.67-1.19-.8-2.06-.13-.87-.19-2.03-.19-3.48v-34.43c-1.81,.63-3.72,1.16-5.73,1.59-2.01,.43-3.92,.68-5.73,.75v2.12c1.85,0,3.23,.09,4.15,.28,.92,.19,1.48,.69,1.66,1.5Zm19.77,4.4c.37-1.04,.73-1.86,1.08-2.45,.35-.59,.8-1.05,1.36-1.37,.55-.31,1.27-.52,2.16-.61,.89-.09,2.05-.14,3.49-.14h10.3l-7.53,14.54c-1.51,2.97-2.81,5.51-3.88,7.6-1.07,2.1-1.97,3.87-2.69,5.32-.72,1.45-1.29,2.64-1.72,3.56-.42,.93-.74,1.68-.94,2.26-.2,.58-.33,1.04-.39,1.39-.06,.35-.08,.68-.08,.98,0,.52,.23,1.03,.69,1.53,.46,.5,1.02,.75,1.69,.75,.48,0,.93-.11,1.36-.33,.42-.22,.86-.64,1.3-1.25s.91-1.44,1.41-2.48c.5-1.04,1.06-2.4,1.69-4.07,.85-2.27,1.61-4.31,2.3-6.13,.68-1.82,1.35-3.53,1.99-5.12,.65-1.6,1.28-3.18,1.91-4.74,.63-1.56,1.32-3.22,2.08-4.99,.76-1.76,1.61-3.71,2.55-5.85,.94-2.14,2.02-4.6,3.24-7.38v-1.11h-16.23c-1.7,0-2.82-.11-3.38-.33-.55-.22-.83-.65-.83-1.28,0-.26,.02-.57,.06-.92,.04-.35,.09-.62,.17-.81h-2.22l-3.88,15.6h2.1l.83-2.17Zm-520.74,197.58c-37.58-50.12-58.28-116.75-58.28-187.61s20.7-137.48,58.28-187.6C915.65,27.65,965.73,0,1019.02,0s103.37,27.65,141.02,77.86c37.58,50.12,58.28,116.75,58.28,187.6s-20.7,137.48-58.28,187.61c-37.65,50.21-87.73,77.86-141.02,77.86s-103.37-27.65-141.02-77.86Zm-56.28-187.61c0,145.28,88.51,263.47,197.3,263.47s197.3-118.19,197.3-263.47S1127.81,2,1019.02,2s-197.3,118.19-197.3,263.47Zm71.14,177.65c-33.65-47.46-52.18-110.55-52.18-177.65s18.53-130.19,52.18-177.65c33.69-47.51,78.49-73.67,126.16-73.67s92.47,26.17,126.16,73.67c33.65,47.46,52.18,110.55,52.18,177.65s-18.53,130.19-52.18,177.65c-33.69,47.51-78.49,73.67-126.16,73.67s-92.47-26.17-126.16-73.67Zm126.16,72.67c97.78,0,177.34-112.29,177.34-250.32S1116.8,15.14,1019.02,15.14s-177.34,112.29-177.34,250.32,79.55,250.32,177.34,250.32Zm-49.38-281.9h0Zm-22.01,37.83v-37.64c0-8.31,3.13-15.55,12.16-15.55,12.33,0,21.19,15.55,42.39,15.55,13.72,0,22.23-9.01,22.23-19.44h-1.74c0,6.19-6.25,10.07-12.85,10.07-15.29,0-24.84-10.96-42.04-10.96-10.42,0-18.07,5.66-20.15,10.43v-78.29h28.66c39.95,0,62.88,9.54,62.88,21.38v.71h1.74v-23.86h-124.2v1.77c14.94,0,15.98,12.55,15.98,47.36v78.47c0,34.81-1.04,47.36-15.98,47.36v1.77h46.9v-1.77c-14.94,0-15.98-12.55-15.98-47.36Zm40.98,65.95v-78.47c0-6.1-.03-11.51-.17-16.29-.07-.02-.15-.04-.22-.06-7.78-2.24-13.8-5.99-18.59-8.96l.77-1.28c4.79,2.98,10.67,6.63,18.22,8.8,4.01,1.15,8.49,1.89,13.55,1.89,.5,0,1,0,1.49-.03,9.99-.39,18.44-4.66,23.76-11.26l1.14,.95c-5.61,6.96-14.48,11.41-24.84,11.81-.01,0-.03,0-.04,0-.1,4.32-.13,9.1-.13,14.43v26.44c-.03,.18-.04,.35-.06,.53h86.91v-26.97c0-34.82-1.04-47.36-15.98-47.36v-1.77h46.9v1.77c-14.94,0-15.98,12.55-15.98,47.36v78.47c0,34.81,1.04,47.36,15.98,47.36v1.77h-46.9v-1.77c14.94,0,15.98-12.55,15.98-47.36v-40.31h-86.82c0,.45,.02,.9,.06,1.35-.03,.44-.09,.86-.09,1.32v37.65c0,34.81,1.04,47.36,15.98,47.36v1.77h-46.9v-1.77c14.94,0,15.98-12.55,15.98-47.36Zm14.79-50.41c-.01,.36-.01,.72,0,1.08v-1.08Z"/>
</svg>