<?xml version="1.0" encoding="UTF-8"?>
<svg id="Layer_1" data-name="Layer 1" xmlns="http://www.w3.org/2000/svg" viewBox="0 0 2600 300">
  <defs>
    <style>
      .cls-1 {
        fill: #d28d47;
        stroke: #d28d47;
        stroke-miterlimit: 10;
      }
    </style>
  </defs>
  <path class="cls-1" d="M227.79,29.81l3.28,39.31-5.03,.5-.05-.5c-.8-8.76-3.36-16.58-7.61-23.23-4.2-6.56-11.13-9.88-20.61-9.88H86.67v98.48h85.63c10.32,0,17.61-2.19,21.67-6.51,4.07-4.33,6.13-9.32,6.13-14.82v-.5h5.45v58.83h-5.45v-.5c0-5.5-2.06-10.49-6.13-14.82-4.06-4.32-11.36-6.51-21.67-6.51H86.67v95.74c0,10.3,2.79,17.58,8.29,21.63,5.54,4.09,12.24,6.17,19.92,6.17h.5v5.45H32.7v-5.45h.5c7.68,0,14.45-2.08,20.13-6.17,5.63-4.06,8.49-11.34,8.49-21.63V53.31c0-10.29-2.86-17.57-8.49-21.63-5.69-4.1-12.46-6.17-20.13-6.17h-.5v-5.45H226.95l.85,9.76Zm255.47,243.38h.5v5.45h-92.39v-5.45h.5c10.1,0,18.31-1.95,24.4-5.79,5.96-3.75,7.52-10.71,4.64-20.67l-14.77-49.38h-95.98l-14.86,49.38c-2.89,9.96-1.46,16.92,4.24,20.67,5.81,3.84,13.88,5.78,23.99,5.78h.5v5.45h-84.71v-5.45h.5c7.96,0,15.64-2.02,22.81-6,7.12-3.96,12.21-10.93,15.13-20.73l58.63-194.51c2.91-10.06,.48-16.81-7.42-20.63-7.99-3.86-18.53-5.81-31.32-5.81h-.5v-5.45h80.94l67.64,226.4c2.91,9.8,8,16.77,15.13,20.73,7.17,3.98,14.71,6,22.4,6Zm-81.89-91.79l-43.07-144.01-43.33,144.01h86.4ZM773.91,25.5h.5c7.38,0,13.25,2,17.45,5.93,4.15,3.89,4.91,10.94,2.28,20.94l-57.81,212.22L652.76,20.39l-.12-.34h-53.43v5.45h.5c7.69,0,15.3,1.95,22.61,5.81,7.26,3.83,12.69,10.75,16.14,20.54l3.15,9.25-68.17,205.64L502.74,51.54c-3.16-9.73-2.72-16.56,1.28-20.31,4.07-3.8,9.87-5.73,17.25-5.73h.5v-5.45h-83.09v5.45h.5c7.96,0,15.7,1.95,23.02,5.81,7.26,3.83,12.55,10.74,15.73,20.54l74.4,226.45,.11,.34h35.5l55.11-166.94c3.2-9.6,5.75-17.66,7.61-24.07l65.04,190.68,.12,.34h34.71l61.57-226.01c2.64-10.06,7.53-17.17,14.52-21.12,7.03-3.98,14.63-6,22.6-6h.5v-5.45h-75.81v5.45Zm310.16,170.03c-3.75,15.8-9.11,29.98-15.92,42.13-6.75,12.05-14.98,18.43-24.46,18.95l-144,6.82c4.09-4.11,8.77-9.08,13.99-14.89,8.41-9.34,16.24-18.6,23.25-27.5,2.42-2.69,4.89-5.84,7.31-9.33L1084.96,25.3l.1-.13v-5.12h-206.76l-12.27,78.95,5.43,.99,.08-.51c2.41-15.78,6.68-30.09,12.69-42.52,5.95-12.29,14.17-18.66,24.43-18.92l142.41-4.25c-9.63,9.28-19.96,21.55-30.81,36.61l-4.85,6.47-150.43,197.33-.1,.13v4.31h180.04c5.05,0,9.23,.4,12.41,1.2,3.17,.79,6.26,2,9.18,3.59l.57,.31,21.71-87.66-4.62-1.03-.11,.48ZM1240.14,25.5h.5c7.19,0,13.48,.67,18.68,2.01,5.1,1.31,8.74,3.69,10.82,7.06,2.04,3.32,1.22,8.18-2.44,14.46l-58.71,106.1-65.76-134.79-.14-.28h-56.21v5.45h.5c7.98,0,16.14,1.82,24.26,5.42,8.06,3.57,14.44,10.09,18.96,19.38l62.62,124.84v70.24c0,10.3-2.85,17.57-8.49,21.63-5.68,4.1-12.45,6.17-20.13,6.17h-.5v5.45h82.68v-5.45h-.5c-7.68,0-14.38-2.08-19.92-6.17-5.5-4.06-8.29-11.34-8.29-21.63v-71.45l69.08-124.43c5.04-9.02,11.69-15.34,19.78-18.79,8.13-3.46,16.3-5.22,24.27-5.22h.5v-5.45h-91.58v5.45Zm346.94,0h.5c7.67,0,14.44,2.08,20.13,6.17,5.63,4.07,8.49,11.34,8.49,21.63V126h-127.19V53.31c0-10.29,2.79-17.57,8.29-21.64,5.55-4.09,12.25-6.17,19.92-6.17h.5v-5.45h-82.68v5.45h.5c7.67,0,14.44,2.08,20.13,6.17,5.63,4.07,8.49,11.35,8.49,21.63V245.39c0,10.29-2.86,17.57-8.49,21.63-5.68,4.1-12.45,6.17-20.13,6.17h-.5v5.45h82.68v-5.45h-.5c-7.68,0-14.38-2.08-19.92-6.17h0c-5.5-4.06-8.29-11.34-8.29-21.63v-103.42h127.19v103.42c0,10.3-2.86,17.57-8.49,21.63-5.68,4.1-12.45,6.17-20.13,6.17h-.5v5.45h82.68v-5.45h-.5c-7.68,0-14.38-2.08-19.92-6.17h0c-5.5-4.06-8.29-11.34-8.29-21.63V53.31c0-10.29,2.79-17.57,8.29-21.64,5.55-4.09,12.25-6.17,19.92-6.17h.5v-5.45h-82.68v5.45Zm316.17,53.69c8.48,19.52,12.78,42.24,12.78,67.53s-4.3,48.42-12.78,68.73c-8.49,20.35-21.47,36.61-38.59,48.34-17.13,11.73-38.38,17.68-63.16,17.68s-46.04-5.95-63.16-17.68c-17.12-11.72-30.1-27.99-38.59-48.34-8.48-20.32-12.78-43.44-12.78-68.73s4.3-48,12.78-67.53c8.49-19.55,21.48-35.13,38.6-46.32,17.13-11.19,38.37-16.86,63.15-16.86s46.02,5.67,63.15,16.86c17.12,11.19,30.11,26.78,38.6,46.32Zm-23.77,7.45c-6.68-17.9-16.76-32.25-29.97-42.65-13.19-10.39-29.35-15.66-48.01-15.66s-34.82,5.27-48.01,15.66c-13.21,10.41-23.29,24.76-29.97,42.65-6.69,17.92-10.08,38.13-10.08,60.08s3.39,42.91,10.08,61.5c6.67,18.56,16.76,33.52,29.97,44.47,13.19,10.92,29.34,16.46,48,16.46s34.82-5.54,48-16.46c13.21-10.94,23.29-25.9,29.97-44.47,6.69-18.6,10.08-39.29,10.08-61.5s-3.39-42.14-10.08-60.08Zm260.1-69.61l-.6,.22c-2.9,1.06-6.74,1.79-11.4,2.2-4.68,.4-10.72,.6-17.95,.6h-154.07c-7.24,0-13.28-.2-17.95-.6-4.67-.4-8.5-1.14-11.4-2.2l-.6-.22-1.28,12.36-4.91,42.16,5.44,.5,.06-.49c1.06-9.31,4.09-17.67,9.02-24.85,4.86-7.1,12.55-10.7,22.84-10.7h63.39V245.39c0,10.29-2.86,17.57-8.49,21.63-5.68,4.1-12.45,6.17-20.13,6.17h-.5v5.45h82.68v-5.45h-.5c-7.68,0-14.38-2.08-19.92-6.17h0c-5.5-4.06-8.29-11.33-8.29-21.63V36.02h63.39c10.28,0,17.96,3.67,22.84,10.9,4.92,7.32,7.95,15.88,9.02,25.46l.06,.53,5.44-.99-4.91-42.51-1.28-12.36Zm219.46,210.43c-2.4,9.32-6.65,17.62-12.63,24.67h0c-5.93,6.99-14.17,10.54-24.49,10.54h-108.68v-115.86h86.84c10.32,0,17.61,2.19,21.67,6.51,4.07,4.33,6.13,9.32,6.13,14.82v.5h5.45v-58.83h-5.45v.5c0,5.5-2.06,10.49-6.13,14.82-4.06,4.32-11.36,6.51-21.67,6.51h-86.84V36.02h111.11c9.47,0,16.41,3.32,20.61,9.88,4.25,6.65,6.81,14.47,7.61,23.23l.05,.5,5.03-.5-3.28-39.31-.85-9.76h-194.25v5.45h.5c7.67,0,14.44,2.08,20.13,6.17,5.63,4.07,8.49,11.35,8.49,21.63V245.39c0,10.29-2.86,17.57-8.49,21.63-5.68,4.1-12.45,6.17-20.13,6.17h-.5v5.45h191.75l2.52-9.67,11.05-40.52-5.42-1.48-.13,.49Zm202.72,1.53l-.13,.48c-2.4,8.78-6.58,16.61-12.43,23.25-5.8,6.6-13.98,9.94-24.29,9.94h-81.18V53.31c0-10.29,2.79-17.57,8.29-21.64,5.55-4.09,12.25-6.17,19.92-6.17h.5v-5.45h-82.68v5.45h.5c7.67,0,14.44,2.08,20.13,6.17,5.63,4.07,8.49,11.35,8.49,21.63V245.39c0,10.29-2.85,17.57-8.49,21.63-5.68,4.1-12.45,6.17-20.13,6.17h-.5v5.45h164.25l2.52-9.67,10.65-38.5-5.42-1.48Z"/>
</svg>