<?xml version="1.0" encoding="UTF-8"?>
<svg id="Layer_1" data-name="Layer 1" xmlns="http://www.w3.org/2000/svg" viewBox="0 0 2600 300">
  <defs>
    <style>
      .cls-1 {
        fill: #231f20;
      }
    </style>
  </defs>
  <path class="cls-1" d="M1083.81,194.46l5.6,1.25-21.99,88.78-1.14-.62c-2.88-1.57-5.93-2.76-9.07-3.55-3.14-.79-7.28-1.18-12.29-1.18h-180.54v-4.98l.21-.27,150.43-197.33,4.85-6.46c10.49-14.56,20.56-26.59,29.94-35.77l-141.12,4.21c-10.07,.26-18.14,6.53-24,18.64-5.99,12.38-10.25,26.64-12.65,42.38l-.15,1.02-6.42-1.17,12.41-79.85h207.68v5.79l-.2,.27-140.72,186.41c-2.43,3.51-4.9,6.66-7.33,9.37-6.99,8.87-14.82,18.13-23.25,27.5-4.82,5.36-9.22,10.06-13.1,13.99l142.72-6.76c9.29-.51,17.38-6.81,24.04-18.7,6.79-12.11,12.13-26.25,15.87-42l.23-.96ZM773.41,26h1c7.25,0,13.01,1.95,17.11,5.79,4,3.75,4.72,10.63,2.15,20.44l-57.38,210.65L653.24,20.23l-.23-.68h-54.28v6.45h1c7.61,0,15.14,1.93,22.38,5.75,7.15,3.77,12.5,10.59,15.9,20.26l3.1,9.09-67.64,204.05L503.22,51.38c-3.09-9.53-2.7-16.18,1.15-19.79,3.97-3.71,9.66-5.59,16.91-5.59h1v-6.45h-84.09v6.45h1c7.87,0,15.54,1.93,22.79,5.75,7.14,3.77,12.35,10.58,15.49,20.25l74.4,226.45,.23,.69h36.22l55.22-167.29c2.94-8.84,5.35-16.42,7.17-22.58l64.53,189.19,.23,.68h35.45l61.67-226.39c2.61-9.92,7.42-16.93,14.29-20.82,6.95-3.94,14.47-5.93,22.35-5.93h1v-6.45h-76.81v6.45ZM227.41,19.55H32.2v6.45h1c7.56,0,14.23,2.04,19.84,6.08,5.49,3.97,8.28,11.11,8.28,21.23V245.39c0,10.12-2.79,17.27-8.28,21.23-5.59,4.03-12.27,6.08-19.84,6.08h-1v6.45H115.88v-6.45h-1c-7.57,0-14.17-2.04-19.63-6.07-5.36-3.96-8.08-11.1-8.08-21.23v-95.24h85.13c10.17,0,17.34,2.14,21.31,6.36,3.98,4.24,6,9.11,6,14.48v1h6.45v-59.83h-6.45v1c0,5.37-2.02,10.24-6,14.48-3.97,4.22-11.13,6.36-21.31,6.36H87.17V36.52h110.61c9.29,0,16.08,3.25,20.19,9.65,4.21,6.58,6.74,14.32,7.53,23l.09,1.01,6.02-.6-3.32-39.8-.89-10.22Zm255.86,253.14h1v6.45h-93.39v-6.45h1c10,0,18.12-1.92,24.13-5.71,5.75-3.62,7.24-10.38,4.43-20.11l-14.66-49.01h-95.24l-14.75,49.02c-2.82,9.72-1.46,16.49,4.04,20.11,5.73,3.78,13.71,5.7,23.71,5.7h1v6.45h-85.71v-6.45h1c7.88,0,15.47-2,22.56-5.94,7-3.89,12.01-10.77,14.89-20.44l58.63-194.51c2.83-9.78,.49-16.34-7.16-20.04-7.92-3.82-18.39-5.76-31.11-5.76h-1v-6.45h81.81l.11,.36,67.64,226.4c2.87,9.67,7.88,16.54,14.89,20.44,7.1,3.94,14.55,5.94,22.16,5.94ZM358.3,39.13l-42.66,141.77h85.06l-42.4-141.77Zm1781.72-22.79l-1.2,.44c-2.86,1.04-6.66,1.77-11.27,2.17-4.65,.4-10.68,.6-17.91,.6h-154.07c-7.24,0-13.26-.2-17.91-.6-4.62-.4-8.41-1.12-11.27-2.17l-1.21-.44-1.34,12.99-4.97,42.67,6.44,.59,.11-.97c1.05-9.23,4.06-17.51,8.93-24.62,4.76-6.96,12.31-10.48,22.43-10.48h62.89V245.39c0,10.12-2.79,17.27-8.28,21.23-5.59,4.03-12.27,6.08-19.84,6.08h-1v6.45h83.68v-6.45h-1c-7.57,0-14.17-2.04-19.62-6.07-5.36-3.96-8.08-11.1-8.08-21.23V36.52h62.89c10.11,0,17.65,3.59,22.42,10.68,4.87,7.25,7.88,15.74,8.93,25.23l.12,1.06,6.42-1.17-4.96-42.97-1.34-13Zm421.4,212.04l-.26,.96c-2.38,8.71-6.52,16.46-12.32,23.06-5.7,6.48-13.75,9.77-23.92,9.77h-80.68V53.31c0-10.12,2.72-17.27,8.08-21.23,5.46-4.03,12.06-6.07,19.63-6.07h1v-6.45h-83.68v6.45h1c7.56,0,14.23,2.04,19.84,6.08,5.49,3.97,8.28,11.11,8.28,21.23V245.39c0,10.12-2.79,17.27-8.28,21.23-5.59,4.03-12.27,6.08-19.84,6.08h-1v6.45h165.14l2.62-10.03,10.78-38.98-6.38-1.74ZM1239.64,26h1c7.15,0,13.4,.67,18.55,1.99,4.97,1.28,8.51,3.58,10.52,6.83,1.94,3.15,1.11,7.84-2.45,13.95l-58.24,105.26-65.34-133.92-.27-.56h-57.03v6.45h1c7.91,0,16,1.81,24.06,5.37,7.95,3.52,14.25,9.96,18.72,19.15l62.57,124.74v70.12c0,10.12-2.79,17.27-8.28,21.23-5.59,4.03-12.27,6.08-19.83,6.08h-1v6.45h83.68v-6.45h-1c-7.57,0-14.17-2.04-19.62-6.07-5.37-3.96-8.09-11.1-8.09-21.23v-71.31l69.02-124.32c4.98-8.92,11.56-15.17,19.54-18.57,8.07-3.43,16.17-5.18,24.07-5.18h1v-6.45h-92.58v6.45Zm1118.92,201.34c-2.38,9.25-6.59,17.48-12.53,24.47-5.84,6.88-13.95,10.36-24.11,10.36h-108.18v-114.86h86.34c10.17,0,17.34,2.14,21.31,6.36,3.98,4.23,6,9.11,6,14.48v1h6.45v-59.83h-6.45v1c0,5.37-2.02,10.24-6,14.48-3.97,4.22-11.14,6.36-21.31,6.36h-86.34V36.52h110.61c9.29,0,16.08,3.25,20.19,9.65,4.21,6.58,6.74,14.32,7.53,23l.09,1.01,6.02-.6-3.32-39.8-.89-10.21h-195.21v6.45h1c7.56,0,14.23,2.04,19.84,6.08,5.49,3.97,8.28,11.11,8.28,21.23V245.39c0,10.12-2.79,17.27-8.28,21.23-5.59,4.03-12.27,6.08-19.84,6.08h-1v6.45h192.64l2.62-10.04,11.18-41-6.39-1.74-.25,.98Zm-454.85-148.35c8.51,19.58,12.82,42.37,12.82,67.73s-4.31,48.55-12.82,68.92c-8.52,20.43-21.57,36.77-38.77,48.56-17.21,11.79-38.56,17.77-63.45,17.77s-46.24-5.98-63.44-17.77c-17.2-11.78-30.25-28.12-38.77-48.56-8.5-20.38-12.82-43.57-12.82-68.92s4.31-48.14,12.82-67.73c8.53-19.64,21.58-35.3,38.79-46.54,17.21-11.24,38.55-16.94,63.43-16.94s46.21,5.7,63.43,16.94c17.21,11.25,30.26,26.91,38.78,46.54Zm-24.7,7.82h0c-6.65-17.81-16.68-32.08-29.81-42.43-13.1-10.32-29.15-15.56-47.7-15.56s-34.6,5.23-47.7,15.56c-13.14,10.35-23.17,24.63-29.81,42.43-6.67,17.86-10.04,38.02-10.04,59.9s3.38,42.79,10.05,61.33c6.64,18.47,16.67,33.36,29.82,44.25,13.1,10.85,29.14,16.35,47.68,16.35s34.59-5.5,47.69-16.35c13.14-10.88,23.17-25.77,29.82-44.25,6.67-18.55,10.05-39.18,10.05-61.33s-3.38-42.03-10.05-59.9Zm-292.43-60.81h1c7.56,0,14.23,2.04,19.84,6.08,5.49,3.97,8.28,11.11,8.28,21.23V125.5h-126.19V53.31c0-10.13,2.72-17.27,8.08-21.23,5.46-4.03,12.06-6.07,19.63-6.07h1v-6.45h-83.68v6.45h1c7.56,0,14.23,2.04,19.84,6.08,5.49,3.97,8.28,11.11,8.28,21.23V245.39c0,10.12-2.79,17.27-8.28,21.23-5.59,4.03-12.27,6.08-19.84,6.08h-1v6.45h83.68v-6.45h-1c-7.57,0-14.17-2.04-19.63-6.07-5.36-3.96-8.08-11.1-8.08-21.23v-102.92h126.19v102.92c0,10.12-2.79,17.27-8.28,21.23-5.59,4.03-12.27,6.08-19.84,6.08h-1v6.45h83.68v-6.45h-1c-7.57,0-14.17-2.04-19.62-6.07-5.37-3.96-8.09-11.1-8.09-21.23V53.31c0-10.12,2.72-17.27,8.09-21.23,5.46-4.03,12.06-6.07,19.62-6.07h1v-6.45h-83.68v6.45Z"/>
</svg>