<?xml version="1.0" encoding="UTF-8"?>
<svg id="Layer_1" data-name="Layer 1" xmlns="http://www.w3.org/2000/svg" viewBox="0 0 2600 300">
  <defs>
    <style>
      .cls-1 {
        fill: #a05030;
      }
    </style>
  </defs>
  <path class="cls-1" d="M461.1,266.75c-7.01-3.9-12.02-10.77-14.89-20.44L378.57,19.91l-.11-.36h-81.81v6.45h1c12.72,0,23.19,1.94,31.11,5.76,7.65,3.7,9.99,10.26,7.16,20.04l-58.63,194.51c-2.88,9.67-7.89,16.55-14.89,20.44-7.1,3.94-14.69,5.94-22.56,5.94h-1v6.45h85.71v-6.45h-1c-10,0-17.98-1.92-23.71-5.7-5.5-3.62-6.86-10.39-4.04-20.11l14.75-49.02h95.24l14.66,49.01c2.81,9.72,1.32,16.49-4.43,20.11-6.01,3.79-14.13,5.71-24.13,5.71h-1v6.45h93.39v-6.45h-1c-7.61,0-15.06-2-22.16-5.94Zm-60.4-85.85h-85.06l42.66-141.77,42.4,141.77ZM773.41,19.55h76.81v6.45h-1c-7.88,0-15.4,2-22.35,5.93-6.87,3.89-11.68,10.89-14.29,20.82l-61.67,226.39h-35.45l-.23-.68-64.53-189.19c-1.82,6.16-4.23,13.74-7.17,22.58l-55.22,167.29h-36.22l-.23-.69L477.46,52c-3.14-9.67-8.35-16.48-15.49-20.25-7.25-3.81-14.91-5.75-22.79-5.75h-1v-6.45h84.09v6.45h-1c-7.25,0-12.94,1.88-16.91,5.59-3.85,3.6-4.24,10.26-1.15,19.79l70.24,213.76,67.64-204.05-3.1-9.09c-3.4-9.67-8.75-16.49-15.9-20.26-7.24-3.81-14.77-5.75-22.38-5.75h-1v-6.45h54.28l.23,.68,83.05,242.66,57.38-210.65c2.58-9.81,1.86-16.68-2.15-20.44-4.1-3.84-9.86-5.79-17.11-5.79h-1v-6.45Zm1794.39,210.57l-10.78,38.98-2.62,10.03h-165.14v-6.45h1c7.57,0,14.24-2.04,19.84-6.08,5.49-3.96,8.28-11.1,8.28-21.23V53.31c0-10.12-2.79-17.26-8.28-21.23-5.6-4.03-12.28-6.08-19.84-6.08h-1v-6.45h83.68v6.45h-1c-7.56,0-14.16,2.04-19.63,6.07-5.36,3.96-8.08,11.11-8.08,21.23v208.87h80.68c10.17,0,18.21-3.29,23.92-9.77,5.8-6.59,9.95-14.35,12.32-23.06l.26-.96,6.38,1.74ZM228.29,29.77l3.32,39.8-6.02,.6-.09-1.01c-.79-8.68-3.32-16.42-7.53-23-4.1-6.4-10.89-9.65-20.19-9.65H87.17v97.48h85.13c10.17,0,17.34-2.14,21.31-6.36,3.98-4.24,6-9.11,6-14.48v-1h6.45v59.83h-6.45v-1c0-5.37-2.02-10.24-6-14.48-3.97-4.22-11.14-6.36-21.31-6.36H87.17v95.24c0,10.13,2.72,17.28,8.08,21.23,5.45,4.03,12.06,6.07,19.63,6.07h1v6.45H32.2v-6.45h1c7.57,0,14.24-2.04,19.84-6.08,5.49-3.96,8.28-11.1,8.28-21.23V53.31c0-10.12-2.79-17.26-8.28-21.23-5.6-4.03-12.28-6.08-19.84-6.08h-1v-6.45H227.41l.89,10.22Zm855.52,164.69l5.6,1.25-21.99,88.78-1.14-.62c-2.88-1.57-5.93-2.76-9.07-3.55-3.14-.79-7.28-1.18-12.29-1.18h-180.54v-4.98l.21-.27,150.43-197.33,4.85-6.46c10.49-14.56,20.56-26.59,29.94-35.77l-141.12,4.21c-10.07,.26-18.14,6.53-24,18.64-5.99,12.38-10.25,26.64-12.65,42.38l-.15,1.02-6.42-1.17,12.41-79.85h207.68v5.79l-.2,.27-140.72,186.41c-2.43,3.51-4.9,6.66-7.33,9.37-6.99,8.87-14.82,18.13-23.25,27.5-4.82,5.36-9.22,10.06-13.1,13.99l142.72-6.76c9.29-.51,17.38-6.81,24.04-18.7,6.79-12.11,12.13-26.25,15.87-42l.23-.96ZM1239.64,19.55h92.58v6.45h-1c-7.91,0-16.01,1.74-24.07,5.18-7.98,3.4-14.55,9.65-19.54,18.57l-69.02,124.32v71.31c0,10.13,2.72,17.27,8.09,21.23,5.46,4.03,12.06,6.07,19.62,6.07h1v6.45h-83.68v-6.45h1c7.57,0,14.24-2.04,19.83-6.08,5.49-3.96,8.28-11.1,8.28-21.23v-70.12l-62.57-124.74c-4.47-9.18-10.76-15.62-18.72-19.15-8.06-3.57-16.15-5.37-24.06-5.37h-1v-6.45h57.03l.27,.56,65.34,133.92,58.24-105.26c3.56-6.11,4.39-10.8,2.45-13.95-2.01-3.26-5.55-5.56-10.52-6.83-5.16-1.32-11.4-1.99-18.55-1.99h-1v-6.45Zm625.29,12.9c-17.21-11.24-38.55-16.94-63.43-16.94s-46.22,5.7-63.43,16.94c-17.2,11.24-30.25,26.9-38.79,46.54-8.51,19.59-12.82,42.38-12.82,67.73s4.31,48.54,12.82,68.92c8.53,20.44,21.57,36.78,38.77,48.56,17.21,11.79,38.55,17.77,63.44,17.77s46.23-5.98,63.45-17.77c17.2-11.79,30.25-28.12,38.77-48.56,8.5-20.38,12.82-43.57,12.82-68.92s-4.31-48.14-12.82-67.73c-8.53-19.63-21.58-35.29-38.78-46.54Zm24.13,114.27c0,22.15-3.38,42.78-10.05,61.33-6.65,18.48-16.68,33.37-29.82,44.25-13.1,10.85-29.14,16.35-47.69,16.35s-34.59-5.5-47.68-16.35c-13.15-10.89-23.18-25.78-29.82-44.25-6.67-18.54-10.05-39.17-10.05-61.33s3.38-42.04,10.04-59.9c6.64-17.8,16.67-32.08,29.81-42.43,13.1-10.32,29.15-15.56,47.7-15.56s34.6,5.23,47.7,15.56c13.13,10.34,23.16,24.62,29.81,42.43h0c6.67,17.88,10.05,38.03,10.05,59.9Zm469.76,79.64l6.39,1.74-11.18,41-2.62,10.04h-192.64v-6.45h1c7.57,0,14.24-2.04,19.84-6.08,5.49-3.96,8.28-11.1,8.28-21.23V53.31c0-10.12-2.79-17.26-8.28-21.23-5.6-4.03-12.28-6.08-19.84-6.08h-1v-6.45h195.21l.89,10.21,3.32,39.8-6.02,.6-.09-1.01c-.79-8.68-3.32-16.42-7.53-23-4.1-6.4-10.89-9.65-20.19-9.65h-110.61v94.65h86.34c10.17,0,17.34-2.14,21.31-6.36,3.98-4.24,6-9.11,6-14.48v-1h6.45v59.83h-6.45v-1c0-5.37-2.02-10.24-6-14.48-3.97-4.22-11.14-6.36-21.31-6.36h-86.34v114.86h108.18c10.16,0,18.27-3.49,24.11-10.36,5.94-6.99,10.15-15.22,12.53-24.47l.25-.98ZM1586.59,19.55h83.68v6.45h-1c-7.56,0-14.16,2.04-19.62,6.07-5.37,3.96-8.09,11.11-8.09,21.23V245.39c0,10.13,2.72,17.27,8.09,21.23,5.45,4.03,12.06,6.07,19.62,6.07h1v6.45h-83.68v-6.45h1c7.57,0,14.24-2.04,19.84-6.08,5.49-3.96,8.28-11.1,8.28-21.23v-102.92h-126.19v102.92c0,10.13,2.72,17.28,8.08,21.23,5.45,4.03,12.06,6.07,19.63,6.07h1v6.45h-83.68v-6.45h1c7.57,0,14.24-2.04,19.84-6.08,5.49-3.96,8.28-11.1,8.28-21.23V53.31c0-10.12-2.79-17.26-8.28-21.23-5.6-4.03-12.28-6.08-19.84-6.08h-1v-6.45h83.68v6.45h-1c-7.56,0-14.16,2.04-19.63,6.07-5.36,3.96-8.08,11.11-8.08,21.23V125.5h126.19V53.31c0-10.12-2.79-17.26-8.28-21.23-5.6-4.03-12.28-6.08-19.84-6.08h-1v-6.45Zm554.77,9.79l4.96,42.97-6.42,1.17-.12-1.06c-1.06-9.49-4.06-17.98-8.93-25.23-4.77-7.09-12.32-10.68-22.42-10.68h-62.89V245.39c0,10.13,2.72,17.28,8.08,21.23,5.46,4.03,12.06,6.07,19.62,6.07h1v6.45h-83.68v-6.45h1c7.57,0,14.24-2.04,19.84-6.08,5.49-3.96,8.28-11.1,8.28-21.23V36.52h-62.89c-10.12,0-17.66,3.53-22.43,10.48-4.87,7.11-7.88,15.4-8.93,24.62l-.11,.97-6.44-.59,4.97-42.67,1.34-12.99,1.21,.44c2.86,1.04,6.65,1.77,11.27,2.17,4.65,.4,10.67,.6,17.91,.6h154.07c7.23,0,13.25-.2,17.91-.6,4.61-.4,8.4-1.12,11.27-2.17l1.2-.44,1.34,13Z"/>
</svg>