<?xml version="1.0" encoding="UTF-8"?>
<svg id="Layer_1" data-name="Layer 1" xmlns="http://www.w3.org/2000/svg" viewBox="0 0 1810 410">
  <defs>
    <style>
      .cls-1 {
        fill: #d28d47;
      }
    </style>
  </defs>
  <path class="cls-1" d="M692.92,322.85c-.64,2.36-.96,4.24-.96,5.63,0,1.82,.63,3.06,1.88,3.7,1.25,.64,3.32,.96,6.2,.96l-.96,3.22h-27.11l.88-3.22c1.71,0,3.17-.12,4.4-.36,1.23-.24,2.29-.71,3.2-1.41,.91-.7,1.67-1.66,2.28-2.9,.61-1.23,1.19-2.84,1.72-4.83l3.68-14.32-9.6-23.17c-.8-1.93-1.52-3.46-2.16-4.59-.64-1.13-1.31-1.98-2-2.57-.69-.59-1.48-.97-2.36-1.13s-1.99-.24-3.32-.24l.88-3.22h22.47l-.88,3.22c-2.03,0-3.48,.2-4.36,.6-.88,.4-1.32,1.14-1.32,2.21,0,.38,.04,.8,.12,1.29,.08,.48,.25,1.02,.52,1.61l8.56,20.75,11.11-16.33c1.17-1.66,2.01-2.95,2.52-3.86,.51-.91,.76-1.85,.76-2.81,0-1.13-.52-1.98-1.56-2.57-1.04-.59-2.49-.89-4.36-.89l.88-3.22h19.75l-.88,3.22c-1.07,0-1.97,.08-2.72,.24-.75,.16-1.44,.48-2.08,.97-.64,.48-1.28,1.15-1.92,2.01-.64,.86-1.44,1.96-2.4,3.3l-17.11,24.21-3.76,14.48Zm31.02,14.32c-1.81,0-3.51-.36-5.08-1.09-1.57-.72-2.95-1.78-4.12-3.18-1.17-1.39-2.11-3.1-2.8-5.11-.69-2.01-1.04-4.28-1.04-6.8,0-3.49,.65-6.92,1.96-10.3,1.31-3.38,3.02-6.38,5.16-9.01,2.13-2.63,4.57-4.75,7.32-6.35,2.74-1.61,5.58-2.41,8.52-2.41,1.92,0,3.69,.36,5.32,1.09,1.62,.72,3.01,1.77,4.16,3.14,1.15,1.37,2.05,3,2.72,4.91,.67,1.9,1,4.01,1,6.32,0,3.38-.67,6.78-2,10.22-1.33,3.43-3.08,6.52-5.24,9.25-2.16,2.73-4.62,4.97-7.4,6.72-2.77,1.74-5.6,2.62-8.48,2.62Zm.48-4.02c1.81,0,3.61-.94,5.4-2.81,1.79-1.88,3.38-4.25,4.8-7.12,1.41-2.87,2.56-5.99,3.44-9.37,.88-3.38,1.32-6.6,1.32-9.65,0-2.84-.49-4.8-1.48-5.87-.99-1.07-2.33-1.61-4.04-1.61-1.17,0-2.36,.42-3.56,1.25-1.2,.83-2.33,1.97-3.4,3.42-1.07,1.45-2.07,3.11-3,4.99-.93,1.88-1.75,3.86-2.44,5.95-.69,2.09-1.23,4.22-1.6,6.39-.37,2.17-.56,4.25-.56,6.23,0,3,.48,5.12,1.44,6.36,.96,1.23,2.19,1.85,3.68,1.85Zm39.9-1.77c.85,0,1.97-.6,3.36-1.81,1.39-1.21,2.85-2.81,4.4-4.83,1.55-2.01,3.05-4.3,4.52-6.88,1.46-2.58,2.7-5.26,3.72-8.04l5.92-16.09h7.44l-5.92,18.42c-.85,2.68-1.57,4.97-2.16,6.88-.59,1.9-1.07,3.51-1.44,4.83-.37,1.31-.64,2.39-.8,3.22-.16,.83-.24,1.49-.24,1.97,0,1.4,.48,2.09,1.44,2.09,.53,0,1.17-.25,1.92-.76,.75-.51,1.51-1.21,2.28-2.09,.77-.88,1.52-1.88,2.24-2.98,.72-1.1,1.35-2.26,1.88-3.5l2.4,1.21c-.69,1.77-1.6,3.5-2.72,5.19-1.12,1.69-2.33,3.21-3.64,4.55-1.31,1.34-2.68,2.41-4.12,3.22-1.44,.8-2.85,1.21-4.24,1.21-1.65,0-2.77-.59-3.36-1.77-.59-1.18-.88-2.87-.88-5.07,0-.91,.04-1.89,.12-2.94,.08-1.05,.23-2.08,.44-3.1l-.24-.24c-1.44,2.57-2.84,4.69-4.2,6.35-1.36,1.66-2.68,3-3.96,4.02-1.28,1.02-2.53,1.73-3.76,2.13-1.23,.4-2.43,.6-3.6,.6-2.51,0-4.25-.7-5.24-2.09-.99-1.39-1.48-3.11-1.48-5.15,0-2.25,.43-4.73,1.28-7.44,.85-2.71,1.76-5.27,2.72-7.68,.96-2.41,1.77-4.45,2.44-6.11,.67-1.66,1.2-3.06,1.6-4.18s.69-2.04,.88-2.73c.19-.7,.28-1.26,.28-1.69,0-.21-.04-.42-.12-.6-.08-.19-.28-.28-.6-.28-.69,0-1.69,.62-3,1.85-1.31,1.23-3.08,3.22-5.32,5.95l-2.08-1.13c.8-1.56,1.81-3.11,3.04-4.67,1.23-1.56,2.53-2.95,3.92-4.18,1.39-1.23,2.82-2.22,4.32-2.98,1.49-.75,2.88-1.13,4.16-1.13,2.66,0,4,1.56,4,4.67,0,1.88-.52,4.3-1.56,7.28-1.04,2.98-2.39,6.53-4.04,10.66-1.07,2.63-1.95,4.99-2.64,7.08-.69,2.09-1.04,4-1.04,5.71,0,1.13,.16,1.92,.48,2.37,.32,.46,.72,.68,1.2,.68Zm35.58-26.46c.59-1.34,1.48-2.72,2.68-4.14,1.2-1.42,2.51-2.71,3.92-3.86,1.41-1.15,2.84-2.1,4.28-2.86,1.44-.75,2.69-1.13,3.76-1.13,1.28,0,2.21,.48,2.8,1.45,.59,.97,.88,2.52,.88,4.67,0,.86-.04,1.69-.12,2.49-.08,.8-.23,1.74-.44,2.81l.24,.24c.64-1.55,1.55-3.08,2.72-4.58,1.17-1.5,2.44-2.83,3.8-3.98,1.36-1.15,2.74-2.09,4.16-2.81,1.41-.72,2.73-1.09,3.96-1.09,1.55,0,2.84,.5,3.88,1.49,1.04,.99,1.56,2.21,1.56,3.66s-.44,2.55-1.32,3.46c-.88,.91-2.01,1.37-3.4,1.37-.85,0-1.53-.16-2.04-.48-.51-.32-.95-.66-1.32-1.01-.37-.35-.72-.68-1.04-1.01-.32-.32-.72-.48-1.2-.48-1.01,0-2.19,.68-3.52,2.05-1.33,1.37-2.72,3.23-4.16,5.59-1.44,2.36-2.87,5.12-4.28,8.29-1.41,3.17-2.71,6.57-3.88,10.22l-3.6,11.1h-7.44l5.2-16.65c1.01-3.22,1.85-5.88,2.52-8,.67-2.12,1.19-3.89,1.56-5.31,.37-1.42,.63-2.53,.76-3.34,.13-.8,.2-1.5,.2-2.09,0-1.18-.4-1.77-1.2-1.77-.53,0-1.19,.21-1.96,.64-.77,.43-1.53,.96-2.28,1.61-.75,.64-1.45,1.37-2.12,2.17-.67,.8-1.16,1.58-1.48,2.33l-2.08-1.05Zm108.5,16.25c-1.87,2.84-3.69,5.28-5.48,7.32-1.79,2.04-3.64,3.7-5.56,4.99-1.92,1.29-3.95,2.22-6.08,2.81-2.13,.59-4.42,.89-6.88,.89-3.63,0-6.88-.58-9.76-1.73-2.88-1.15-5.32-2.81-7.32-4.99-2-2.17-3.55-4.8-4.64-7.88-1.09-3.08-1.64-6.56-1.64-10.42,0-5.09,.93-9.96,2.8-14.6,1.87-4.64,4.36-8.73,7.48-12.27s6.73-6.37,10.83-8.49c4.1-2.12,8.4-3.18,12.87-3.18,2.56,0,5,.39,7.32,1.17,2.32,.78,4.68,2,7.08,3.66l2.96-4.02h2.96l-3.68,20.19h-3.04c-.43-5.84-1.67-10.11-3.72-12.79-2.05-2.68-5.13-4.02-9.24-4.02-3.52,0-6.8,.89-9.83,2.65-3.04,1.77-5.68,4.21-7.92,7.32-2.24,3.11-4,6.76-5.28,10.94-1.28,4.18-1.92,8.69-1.92,13.51,0,13.3,5.14,19.95,15.43,19.95,3.84,0,7.32-1.05,10.43-3.14,3.12-2.09,6.09-5.36,8.92-9.81l2.88,1.93Zm19.99,16.01c-1.81,0-3.51-.36-5.08-1.09-1.57-.72-2.95-1.78-4.12-3.18-1.17-1.39-2.11-3.1-2.8-5.11-.69-2.01-1.04-4.28-1.04-6.8,0-3.49,.65-6.92,1.96-10.3,1.31-3.38,3.02-6.38,5.16-9.01,2.13-2.63,4.57-4.75,7.32-6.35,2.74-1.61,5.58-2.41,8.52-2.41,1.92,0,3.69,.36,5.32,1.09,1.62,.72,3.01,1.77,4.16,3.14,1.15,1.37,2.05,3,2.72,4.91,.67,1.9,1,4.01,1,6.32,0,3.38-.67,6.78-2,10.22-1.33,3.43-3.08,6.52-5.24,9.25-2.16,2.73-4.62,4.97-7.4,6.72-2.77,1.74-5.6,2.62-8.48,2.62Zm.48-4.02c1.81,0,3.61-.94,5.4-2.81,1.79-1.88,3.38-4.25,4.8-7.12,1.41-2.87,2.56-5.99,3.44-9.37,.88-3.38,1.32-6.6,1.32-9.65,0-2.84-.49-4.8-1.48-5.87-.99-1.07-2.33-1.61-4.04-1.61-1.17,0-2.36,.42-3.56,1.25-1.2,.83-2.33,1.97-3.4,3.42-1.07,1.45-2.07,3.11-3,4.99-.93,1.88-1.75,3.86-2.44,5.95-.69,2.09-1.23,4.22-1.6,6.39-.37,2.17-.56,4.25-.56,6.23,0,3,.48,5.12,1.44,6.36,.96,1.23,2.19,1.85,3.68,1.85Zm79.4-23.57c.69-1.98,1.24-3.57,1.64-4.75,.4-1.18,.71-2.1,.92-2.78,.21-.67,.35-1.19,.4-1.57,.05-.37,.08-.72,.08-1.05,0-1.55-.53-2.33-1.6-2.33-1.44,0-3.15,.98-5.12,2.94-1.97,1.96-4.11,4.79-6.4,8.49-.8,1.29-1.55,2.59-2.24,3.9-.69,1.31-1.44,2.95-2.24,4.91-.8,1.96-1.73,4.44-2.8,7.44-1.07,3-2.43,6.87-4.08,11.58h-7.52l5.28-16.17c1.12-3.43,2.05-6.32,2.8-8.65,.75-2.33,1.33-4.28,1.76-5.83,.43-1.55,.73-2.79,.92-3.7,.19-.91,.28-1.66,.28-2.25,0-1.77-.67-2.65-2-2.65-1.07,0-2.35,.62-3.84,1.85-1.49,1.23-3.01,2.84-4.56,4.83-1.55,1.98-3.03,4.22-4.44,6.72-1.41,2.49-2.6,5.03-3.56,7.6l-6.72,18.26h-7.04l5.92-18.42c1.01-3.11,1.84-5.72,2.48-7.84,.64-2.12,1.15-3.86,1.52-5.23,.37-1.37,.64-2.45,.8-3.26s.24-1.47,.24-2.01c0-1.5-.45-2.25-1.36-2.25-.59,0-1.27,.35-2.04,1.05-.77,.7-1.56,1.65-2.36,2.86-.8,1.21-1.59,2.59-2.36,4.14-.77,1.56-1.45,3.19-2.04,4.91l-2.4-1.21c1.87-5.52,3.96-9.6,6.28-12.23,2.32-2.63,4.97-3.94,7.96-3.94,1.71,0,2.92,.48,3.64,1.45,.72,.97,1.08,2.57,1.08,4.83,0,2.57-.45,5.04-1.36,7.4l.24,.24c4.96-9.28,10.21-13.92,15.75-13.92,2.08,0,3.7,.63,4.88,1.89,1.17,1.26,1.76,3.02,1.76,5.27,0,.75-.09,1.61-.28,2.57-.19,.97-.55,2.39-1.08,4.26l.16,.24c1.49-2.58,2.92-4.76,4.28-6.56,1.36-1.8,2.68-3.26,3.96-4.38,1.28-1.13,2.57-1.96,3.88-2.49,1.31-.53,2.65-.8,4.04-.8,2.08,0,3.64,.56,4.68,1.69,1.04,1.13,1.56,2.9,1.56,5.31,0,.75-.08,1.57-.24,2.45-.16,.88-.4,1.93-.72,3.14s-.73,2.6-1.24,4.18c-.51,1.58-1.11,3.45-1.8,5.59-.91,2.74-1.63,4.92-2.16,6.56-.53,1.64-.93,2.94-1.2,3.9-.27,.97-.44,1.69-.52,2.17-.08,.48-.12,.97-.12,1.45,0,1.02,.27,1.53,.8,1.53,.8,0,2-.76,3.6-2.29,1.6-1.53,3.68-3.9,6.24-7.12l2.08,1.13c-.91,1.77-2.07,3.53-3.48,5.27-1.41,1.74-2.89,3.3-4.44,4.67-1.55,1.37-3.08,2.48-4.6,3.34-1.52,.86-2.84,1.29-3.96,1.29-1.33,0-2.39-.58-3.16-1.73-.77-1.15-1.16-2.69-1.16-4.63,0-.64,.07-1.37,.2-2.17,.13-.8,.43-1.96,.88-3.46,.45-1.5,1.09-3.49,1.92-5.95,.83-2.47,1.93-5.68,3.32-9.65Zm28.7,20.91c-1.39,5.47-2.77,9.93-4.16,13.39-1.39,3.46-2.88,6.18-4.48,8.16-1.6,1.98-3.32,3.35-5.16,4.1-1.84,.75-3.9,1.12-6.2,1.12s-4.08-.59-5.52-1.77c-1.44-1.18-2.16-2.63-2.16-4.34,0-1.34,.35-2.4,1.04-3.18,.69-.78,1.65-1.17,2.88-1.17,1.12,0,1.89,.29,2.32,.88,.43,.59,.79,1.23,1.08,1.93,.29,.7,.63,1.34,1,1.93,.37,.59,1.09,.88,2.16,.88,1.23,0,2.35-.64,3.36-1.93,1.01-1.29,1.78-2.98,2.32-5.07l11.59-45.29h-7.68l1.04-3.7h7.6c1.17-4.83,2.45-8.93,3.84-12.31,1.39-3.38,2.88-6.15,4.48-8.32,1.6-2.17,3.3-3.75,5.12-4.75,1.81-.99,3.76-1.49,5.84-1.49,3.14,0,5.73,.66,7.76,1.97,2.03,1.31,3.04,2.96,3.04,4.95,0,1.23-.33,2.28-1,3.14-.67,.86-1.61,1.29-2.84,1.29-1.01,0-1.8-.19-2.36-.56-.56-.37-.99-.86-1.28-1.45-.29-.59-.51-1.21-.64-1.85-.13-.64-.31-1.26-.52-1.85-.21-.59-.53-1.07-.96-1.45-.43-.38-1.07-.56-1.92-.56-1.07,0-2.12,.58-3.16,1.73-1.04,1.15-2.04,2.76-3,4.83-.96,2.06-1.87,4.52-2.72,7.36-.85,2.84-1.63,5.95-2.32,9.33h8.08l-1.12,3.7h-7.84l-7.52,30.33Zm29.11,6.68c-1.81,0-3.51-.36-5.08-1.09-1.57-.72-2.95-1.78-4.12-3.18-1.17-1.39-2.11-3.1-2.8-5.11-.69-2.01-1.04-4.28-1.04-6.8,0-3.49,.65-6.92,1.96-10.3,1.31-3.38,3.02-6.38,5.16-9.01,2.13-2.63,4.57-4.75,7.32-6.35,2.74-1.61,5.58-2.41,8.52-2.41,1.92,0,3.69,.36,5.32,1.09,1.62,.72,3.01,1.77,4.16,3.14,1.15,1.37,2.05,3,2.72,4.91,.67,1.9,1,4.01,1,6.32,0,3.38-.67,6.78-2,10.22-1.33,3.43-3.08,6.52-5.24,9.25-2.16,2.73-4.62,4.97-7.4,6.72-2.77,1.74-5.6,2.62-8.48,2.62Zm.48-4.02c1.81,0,3.61-.94,5.4-2.81,1.79-1.88,3.38-4.25,4.8-7.12,1.41-2.87,2.56-5.99,3.44-9.37,.88-3.38,1.32-6.6,1.32-9.65,0-2.84-.49-4.8-1.48-5.87-.99-1.07-2.33-1.61-4.04-1.61-1.17,0-2.36,.42-3.56,1.25-1.2,.83-2.33,1.97-3.4,3.42-1.07,1.45-2.07,3.11-3,4.99-.93,1.88-1.75,3.86-2.44,5.95-.69,2.09-1.23,4.22-1.6,6.39-.37,2.17-.56,4.25-.56,6.23,0,3,.48,5.12,1.44,6.36,.96,1.23,2.19,1.85,3.68,1.85Zm28.06-28.23c.59-1.34,1.48-2.72,2.68-4.14,1.2-1.42,2.51-2.71,3.92-3.86,1.41-1.15,2.84-2.1,4.28-2.86,1.44-.75,2.69-1.13,3.76-1.13,1.28,0,2.21,.48,2.8,1.45,.59,.97,.88,2.52,.88,4.67,0,.86-.04,1.69-.12,2.49-.08,.8-.23,1.74-.44,2.81l.24,.24c.64-1.55,1.55-3.08,2.72-4.58,1.17-1.5,2.44-2.83,3.8-3.98,1.36-1.15,2.74-2.09,4.16-2.81,1.41-.72,2.73-1.09,3.96-1.09,1.55,0,2.84,.5,3.88,1.49,1.04,.99,1.56,2.21,1.56,3.66s-.44,2.55-1.32,3.46c-.88,.91-2.01,1.37-3.4,1.37-.85,0-1.53-.16-2.04-.48-.51-.32-.95-.66-1.32-1.01-.37-.35-.72-.68-1.04-1.01-.32-.32-.72-.48-1.2-.48-1.01,0-2.19,.68-3.52,2.05-1.33,1.37-2.72,3.23-4.16,5.59-1.44,2.36-2.87,5.12-4.28,8.29-1.41,3.17-2.71,6.57-3.88,10.22l-3.6,11.1h-7.44l5.2-16.65c1.01-3.22,1.85-5.88,2.52-8,.67-2.12,1.19-3.89,1.56-5.31,.37-1.42,.63-2.53,.76-3.34,.13-.8,.2-1.5,.2-2.09,0-1.18-.4-1.77-1.2-1.77-.53,0-1.19,.21-1.96,.64-.77,.43-1.53,.96-2.28,1.61-.75,.64-1.45,1.37-2.12,2.17-.67,.8-1.16,1.58-1.48,2.33l-2.08-1.05Zm54.13-4.51l-6.64,22.12c-.91,2.9-1.39,5.1-1.44,6.6,0,.48,.12,.91,.36,1.29,.24,.38,.65,.56,1.24,.56,.96,0,1.97-.36,3.04-1.09,1.07-.72,2.09-1.58,3.08-2.58,.99-.99,1.87-2.01,2.64-3.06,.77-1.05,1.35-1.86,1.72-2.45l2.32,1.37c-.91,1.82-2.05,3.58-3.44,5.27-1.39,1.69-2.85,3.18-4.4,4.46-1.55,1.29-3.11,2.32-4.68,3.1-1.57,.78-3,1.17-4.28,1.17-1.87,0-3.21-.4-4.04-1.21-.83-.8-1.24-2.14-1.24-4.02,0-1.07,.19-2.52,.56-4.34,.37-1.82,1.01-4.32,1.92-7.48l5.92-19.71h-6.88l1.04-3.7h6.96l4.16-13.84h7.36l-4.16,13.84h8.72l-1.12,3.7h-8.71Zm98.67-16.73l-32.78,52.69h-3.44l-6.24-52.69h-.32l-10.23,39.18c-.16,.64-.29,1.26-.4,1.85-.11,.59-.16,1.15-.16,1.69,0,2.25,.63,3.93,1.88,5.03,1.25,1.1,2.92,1.68,5,1.73l-.96,3.22h-22.07l.88-3.22c2.5,0,4.74-.9,6.72-2.69,1.97-1.8,3.33-4.06,4.08-6.8l9.35-35.55c.8-2.95,1.2-5.15,1.2-6.6,0-1.66-.6-2.72-1.8-3.18-1.2-.46-3.24-.68-6.12-.68l.88-3.22h19.19l5.68,47.94h.32l30.14-47.94h16.87l-.88,3.22c-1.55,0-2.8,.17-3.76,.52-.96,.35-1.8,1.01-2.52,1.97-.72,.97-1.37,2.31-1.96,4.02-.59,1.72-1.23,3.94-1.92,6.68l-8.4,32.02c-.64,2.36-.96,4.24-.96,5.63,0,1.82,.63,3.06,1.88,3.7,1.25,.64,3.32,.96,6.2,.96l-.96,3.22h-25.51l.88-3.22c1.44,0,2.66-.12,3.68-.36,1.01-.24,1.91-.71,2.68-1.41,.77-.7,1.44-1.66,2-2.9,.56-1.23,1.11-2.84,1.64-4.83l10.55-39.98h-.32Zm46.06,10.05h6.64l-4.56,12.31c-.75,2.04-1.48,4.21-2.2,6.52-.72,2.31-1.36,4.53-1.92,6.68s-1,4.1-1.32,5.87c-.32,1.77-.48,3.08-.48,3.94,0,1.56,.51,2.33,1.52,2.33,.75,0,1.83-.78,3.24-2.33,1.41-1.55,3-3.57,4.76-6.03l2.08,1.69c-2.24,3.97-4.65,7.04-7.24,9.21-2.59,2.17-5.08,3.26-7.48,3.26-1.23,0-2.17-.47-2.84-1.41-.67-.94-1-2.48-1-4.62,0-.48,.01-1.05,.04-1.69,.03-.64,.09-1.5,.2-2.57l-.32-.08c-.8,1.5-1.75,2.88-2.84,4.14-1.09,1.26-2.28,2.36-3.56,3.3-1.28,.94-2.61,1.66-4,2.17-1.39,.51-2.75,.76-4.08,.76-2.72,0-4.84-1.03-6.36-3.1-1.52-2.06-2.28-4.92-2.28-8.57s.77-7.48,2.32-11.34c1.55-3.86,3.54-7.36,6-10.5,2.45-3.14,5.17-5.71,8.16-7.72,2.99-2.01,5.92-3.02,8.8-3.02,1.76,0,3.2,.42,4.32,1.25,1.12,.83,2.03,2.19,2.72,4.06l1.68-4.51Zm-8.24,3.38c-2.03,0-4.12,.94-6.28,2.82-2.16,1.88-4.12,4.22-5.88,7.04-1.76,2.82-3.2,5.85-4.32,9.09-1.12,3.25-1.68,6.26-1.68,9.05,0,1.93,.4,3.47,1.2,4.62,.8,1.15,1.89,1.73,3.28,1.73,1.23,0,2.51-.5,3.84-1.49,1.33-.99,2.63-2.31,3.88-3.94,1.25-1.63,2.44-3.5,3.56-5.59,1.12-2.09,2.1-4.25,2.96-6.48,.85-2.22,1.52-4.41,2-6.56,.48-2.14,.72-4.08,.72-5.79,0-1.39-.29-2.49-.88-3.3-.59-.8-1.39-1.21-2.4-1.21Zm37.82,3.3l-6.64,22.12c-.91,2.9-1.39,5.1-1.44,6.6,0,.48,.12,.91,.36,1.29,.24,.38,.65,.56,1.24,.56,.96,0,1.97-.36,3.04-1.09,1.07-.72,2.09-1.58,3.08-2.58,.99-.99,1.87-2.01,2.64-3.06,.77-1.05,1.35-1.86,1.72-2.45l2.32,1.37c-.91,1.82-2.05,3.58-3.44,5.27-1.39,1.69-2.85,3.18-4.4,4.46-1.55,1.29-3.11,2.32-4.68,3.1-1.57,.78-3,1.17-4.28,1.17-1.87,0-3.21-.4-4.04-1.21-.83-.8-1.24-2.14-1.24-4.02,0-1.07,.19-2.52,.56-4.34,.37-1.82,1.01-4.32,1.92-7.48l5.92-19.71h-6.88l1.04-3.7h6.96l4.16-13.84h7.36l-4.16,13.84h8.72l-1.12,3.7h-8.71Zm29.18,0l-6.64,22.12c-.91,2.9-1.39,5.1-1.44,6.6,0,.48,.12,.91,.36,1.29,.24,.38,.65,.56,1.24,.56,.96,0,1.97-.36,3.04-1.09,1.07-.72,2.09-1.58,3.08-2.58,.99-.99,1.87-2.01,2.64-3.06,.77-1.05,1.35-1.86,1.72-2.45l2.32,1.37c-.91,1.82-2.05,3.58-3.44,5.27-1.39,1.69-2.85,3.18-4.4,4.46-1.55,1.29-3.11,2.32-4.68,3.1-1.57,.78-3,1.17-4.28,1.17-1.87,0-3.21-.4-4.04-1.21-.83-.8-1.24-2.14-1.24-4.02,0-1.07,.19-2.52,.56-4.34,.37-1.82,1.01-4.32,1.92-7.48l5.92-19.71h-6.88l1.04-3.7h6.96l4.16-13.84h7.36l-4.16,13.84h8.72l-1.12,3.7h-8.71Zm40.06,25.26c-4.64,7.67-10.34,11.5-17.11,11.5-3.68,0-6.5-1.14-8.48-3.42-1.97-2.28-2.96-5.51-2.96-9.69,0-3.7,.76-7.4,2.28-11.1,1.52-3.7,3.5-7.04,5.96-10.01,2.45-2.98,5.2-5.39,8.24-7.24,3.04-1.85,6.08-2.77,9.12-2.77,2.56,0,4.65,.66,6.28,1.97,1.63,1.31,2.44,2.99,2.44,5.03,0,1.88-.69,3.81-2.08,5.79-1.39,1.99-3.27,3.86-5.64,5.63-2.37,1.77-5.15,3.38-8.32,4.83-3.17,1.45-6.54,2.57-10.11,3.38-.11,.75-.19,1.49-.24,2.21-.05,.72-.08,1.46-.08,2.21,0,5.85,2.05,8.77,6.16,8.77,1.97,0,4.01-.78,6.12-2.33,2.1-1.55,4.06-3.7,5.88-6.43l2.56,1.69Zm-4.56-28.96c-1.39,0-2.83,.54-4.32,1.61-1.49,1.07-2.92,2.51-4.28,4.3-1.36,1.8-2.6,3.85-3.72,6.15-1.12,2.31-2.03,4.69-2.72,7.16,2.56-.7,4.93-1.61,7.12-2.73,2.19-1.13,4.06-2.4,5.64-3.82,1.57-1.42,2.81-2.92,3.72-4.5,.91-1.58,1.36-3.18,1.36-4.79,0-2.25-.93-3.38-2.8-3.38Zm13.03,8.21c.59-1.34,1.48-2.72,2.68-4.14,1.2-1.42,2.51-2.71,3.92-3.86,1.41-1.15,2.84-2.1,4.28-2.86s2.69-1.13,3.76-1.13c1.28,0,2.21,.48,2.8,1.45,.59,.97,.88,2.52,.88,4.67,0,.86-.04,1.69-.12,2.49-.08,.8-.23,1.74-.44,2.81l.24,.24c.64-1.55,1.55-3.08,2.72-4.58,1.17-1.5,2.44-2.83,3.8-3.98,1.36-1.15,2.74-2.09,4.16-2.81,1.41-.72,2.73-1.09,3.96-1.09,1.55,0,2.84,.5,3.88,1.49,1.04,.99,1.56,2.21,1.56,3.66s-.44,2.55-1.32,3.46c-.88,.91-2.01,1.37-3.4,1.37-.85,0-1.53-.16-2.04-.48-.51-.32-.95-.66-1.32-1.01-.37-.35-.72-.68-1.04-1.01-.32-.32-.72-.48-1.2-.48-1.01,0-2.19,.68-3.52,2.05-1.33,1.37-2.72,3.23-4.16,5.59-1.44,2.36-2.87,5.12-4.28,8.29-1.41,3.17-2.71,6.57-3.88,10.22l-3.6,11.1h-7.44l5.2-16.65c1.01-3.22,1.85-5.88,2.52-8,.67-2.12,1.19-3.89,1.56-5.31,.37-1.42,.63-2.53,.76-3.34,.13-.8,.2-1.5,.2-2.09,0-1.18-.4-1.77-1.2-1.77-.53,0-1.19,.21-1.96,.64-.77,.43-1.53,.96-2.28,1.61-.75,.64-1.45,1.37-2.12,2.17-.67,.8-1.16,1.58-1.48,2.33l-2.08-1.05Zm41.5,.32c0-1.77,.33-3.41,1-4.91,.67-1.5,1.59-2.8,2.76-3.9,1.17-1.1,2.57-1.96,4.2-2.57,1.62-.62,3.4-.93,5.32-.93,2.56,0,4.69,.64,6.4,1.93,1.71,1.29,2.56,2.95,2.56,4.99,0,1.12-.31,2.01-.92,2.65-.61,.64-1.45,.97-2.52,.97-1.23,0-2.11-.36-2.64-1.09-.53-.72-.99-1.53-1.36-2.41-.37-.89-.77-1.7-1.2-2.45-.43-.75-1.15-1.13-2.16-1.13-1.17,0-2.16,.51-2.96,1.53-.8,1.02-1.2,2.28-1.2,3.78,0,1.77,.52,3.42,1.56,4.95,1.04,1.53,2.2,3.13,3.48,4.79,1.28,1.66,2.44,3.49,3.48,5.47,1.04,1.98,1.56,4.32,1.56,7,0,1.82-.39,3.54-1.16,5.15-.77,1.61-1.81,3.02-3.12,4.22-1.31,1.21-2.81,2.16-4.52,2.86-1.71,.7-3.47,1.05-5.28,1.05-3.2,0-5.74-.7-7.64-2.09-1.89-1.39-2.84-3.22-2.84-5.47,0-1.55,.36-2.77,1.08-3.66,.72-.88,1.69-1.33,2.92-1.33,2.29,0,3.6,1.58,3.92,4.75,.16,1.72,.44,2.86,.84,3.42s1.21,.85,2.44,.85c1.92,0,3.44-.58,4.56-1.73,1.12-1.15,1.68-2.75,1.68-4.79,0-2.14-.53-4.05-1.6-5.71-1.07-1.66-2.24-3.28-3.52-4.87-1.28-1.58-2.45-3.26-3.52-5.03-1.07-1.77-1.6-3.86-1.6-6.27ZM383.2,233c4.42,0,8.27-1.19,11.55-3.57,3.28-2.38,4.92-6.56,4.92-12.54V107.59c0-5.98-1.64-10.16-4.92-12.54-3.28-2.38-7.13-3.57-11.55-3.57v-2.53h29.96v127.94c0,5.98,1.6,10.16,4.8,12.54,3.2,2.38,7.01,3.57,11.44,3.57v2.53h-46.2v-2.53Zm91.15-82.72c2.36-2.53,3.54-5.41,3.54-8.63h2.52v32.91h-2.52c0-3.22-1.18-6.1-3.54-8.63-2.37-2.53-6.52-3.8-12.47-3.8h-52.61v-8.05h52.61c5.95,0,10.1-1.27,12.47-3.8Zm18.64-56.03l1.83,22.09-2.29,.23c-.46-5.06-1.91-9.51-4.35-13.35-2.44-3.83-6.4-5.75-11.89-5.75h-66.33v-8.51h82.57l.46,5.29Zm-63.09,141.78h-47.2v-3.53h.5c4.29,0,8.08-1.17,11.26-3.47,3.13-2.27,4.71-6.35,4.71-12.14V107.59c0-5.78-1.59-9.87-4.71-12.14-3.18-2.3-6.97-3.47-11.26-3.47h-.5v-3.53h110.29l.5,5.75,1.87,22.58-3.28,.33-.05-.5c-.45-4.95-1.88-9.37-4.27-13.12-2.33-3.66-6.19-5.52-11.47-5.52h-62.63v55.61h48.22c5.77,0,9.84-1.22,12.1-3.64h0c2.26-2.42,3.41-5.21,3.41-8.29v-.5h3.52v33.91h-3.52v-.5c0-3.07-1.15-5.86-3.41-8.29-2.26-2.41-6.33-3.64-12.1-3.64h-48.22v54.27c0,5.79,1.55,9.87,4.6,12.14,3.1,2.3,6.84,3.47,11.14,3.47h.5v3.53Zm-46.2-1h45.2v-1.54c-4.31-.09-8.08-1.32-11.23-3.66-3.32-2.46-5-6.82-5-12.94v-54.27h-3.89v-9.05h3.89v-55.61h-3.2v-8.51h-25.76v1.54c4.3,.09,8.11,1.32,11.34,3.66,3.4,2.47,5.12,6.83,5.12,12.95v109.3c0,6.12-1.72,10.48-5.12,12.95-3.22,2.34-7.04,3.57-11.34,3.66v1.54Zm94.68-60.98h1.53v-31.91h-1.53c-.12,3.14-1.35,5.99-3.67,8.47h0c-2.45,2.63-6.77,3.96-12.83,3.96h-48.22v7.05h48.22c6.06,0,10.38,1.33,12.83,3.95,2.32,2.49,3.55,5.33,3.67,8.47Zm-68.61-12.42h2.89v-7.05h-2.89v7.05Zm3.89-64.66h62.63c5.64,0,9.79,2.01,12.32,5.98,2.39,3.76,3.86,8.16,4.37,13.07l1.3-.13-2.21-26.44h-78.41v7.51Zm-3.2,0h2.2v-7.51h-2.2v7.51Zm120.72,120.62c-1.68,5.83-.84,9.86,2.52,12.08,3.35,2.23,7.93,3.34,13.72,3.34v2.53h-47.35v-2.53c4.57,0,8.92-1.15,13.04-3.45,4.12-2.3,7.01-6.29,8.69-11.96l33.17-110.68c1.68-5.83,.23-9.86-4.35-12.08-4.57-2.22-10.52-3.34-17.84-3.34v-2.53h45.29l38.2,128.63c1.68,5.68,4.57,9.66,8.69,11.96,4.12,2.3,8.38,3.45,12.81,3.45v2.53h-51.69v-2.53c5.79,0,10.44-1.11,13.95-3.34,3.51-2.22,4.42-6.25,2.74-12.08l-37.28-125.41h3.2l-37.51,125.41Zm72.96-36.82v8.51h-70.22v-8.51h70.22Zm34.12,55.27h-52.69v-3.53h.5c5.67,0,10.28-1.1,13.68-3.26,3.33-2.11,4.15-5.88,2.53-11.52l-8.31-27.94h-53.97l-8.36,27.94c-1.63,5.65-.87,9.42,2.31,11.52,3.25,2.16,7.78,3.25,13.45,3.25h.5v3.53h-48.35v-3.53h.5c4.47,0,8.77-1.14,12.79-3.39,3.98-2.22,6.82-6.15,8.46-11.67l33.17-110.68c1.61-5.61,.27-9.37-4.09-11.49-4.49-2.18-10.42-3.29-17.62-3.29h-.5v-3.53h46.16l.11,.36,38.2,128.63c1.63,5.52,4.47,9.45,8.46,11.67,4.02,2.25,8.25,3.39,12.56,3.39h.5v3.53Zm-51.69-1h50.69v-1.54c-4.32-.08-8.54-1.26-12.55-3.51-4.22-2.36-7.22-6.48-8.93-12.26l-38.09-128.27h-44.41v1.53c7.13,.05,13.04,1.19,17.56,3.38,4.8,2.34,6.35,6.6,4.61,12.67l-21.94,73.22h8.31l24.74-82.72-1.74-5.87h4.54l-1.76,5.87,24.59,82.72h12.44v9.51h-9.62l8.22,27.66c1.74,6.05,.74,10.3-2.96,12.64-3.47,2.2-8.08,3.35-13.72,3.41v1.53Zm-86,0h46.35v-1.53c-5.64-.06-10.18-1.21-13.5-3.42-3.54-2.35-4.46-6.6-2.72-12.63h0s8.27-27.66,8.27-27.66h-5.55v-9.24l-11.14,37.19c-1.71,5.78-4.71,9.9-8.93,12.26-4.02,2.25-8.32,3.43-12.78,3.51v1.54Zm94.16-46.25h8.91v-7.51h-11.15l2.23,7.51Zm-54.41,0h53.37l-2.23-7.51h-48.89l-2.25,7.51Zm-5.89,0h4.85l2.25-7.51h-7.1v7.51Zm8.44-8.51h48.29l-24.07-80.97-24.22,80.97Zm23.29-87.59l.93,3.12,.93-3.12h-1.86Zm59.83,2.15c-4.2-2.22-8.58-3.34-13.15-3.34v-2.53h46.43v2.53c-4.27,0-7.59,1.11-9.95,3.34-2.37,2.23-2.63,6.18-.8,11.85l42.09,128.86h-13.49l-42.08-128.86c-1.83-5.67-4.84-9.62-9.03-11.85Zm108.76,17.14c0,3.68-.54,7.56-1.6,11.62-1.07,4.07-2.82,9.78-5.26,17.14l-31.11,94.8h-9.83l41.4-125.64,6.4,2.07Zm-18.18-17.14c-4.2-2.22-8.5-3.34-12.92-3.34v-2.53h29.73l49.86,146.58h-13.72l-43.69-128.86c-1.98-5.67-5.07-9.62-9.26-11.85Zm95.95,.11c-2.44-2.3-5.8-3.45-10.06-3.45v-2.53h42.31v2.53c-4.57,0-8.88,1.15-12.92,3.45-4.04,2.3-6.83,6.37-8.35,12.2l-34.77,128.4h-9.61l34.77-128.4c1.52-5.83,1.07-9.9-1.37-12.2Zm-23.4,141.09h-19.95l-36.68-108.19c-1.04,3.54-2.41,7.91-4.12,13.04l-31.22,95.15h-20.4l-.11-.34-42.08-128.86c-1.78-5.52-4.74-9.41-8.79-11.56-4.11-2.17-8.45-3.28-12.92-3.28h-.5v-3.53h47.43v3.53h-.5c-4.12,0-7.35,1.08-9.61,3.2-2.2,2.07-2.42,5.88-.67,11.33l39.79,121.83,38.33-116.32-1.76-5.19c-1.93-5.52-4.97-9.41-9.02-11.57-4.11-2.17-8.38-3.28-12.69-3.28h-.5v-3.53h30.59l47.16,138.63,32.51-120.08c1.46-5.61,1.05-9.55-1.23-11.7h0c-2.33-2.2-5.6-3.32-9.72-3.32h-.5v-3.53h43.31v3.53h-.5c-4.47,0-8.73,1.14-12.68,3.39-3.9,2.22-6.63,6.22-8.11,11.89l-34.87,128.77Zm-5.51-1h4.75l34.67-128.03c1.55-5.93,4.44-10.14,8.58-12.5,3.95-2.25,8.21-3.43,12.67-3.51v-1.54h-41.31v1.54c4.15,.09,7.48,1.29,9.91,3.58h0c2.57,2.43,3.08,6.69,1.51,12.69l-32.9,121.52,2.13,6.25Zm-3.82,0h2.77l-1.54-4.53-1.23,4.53Zm-9.9,0h8.87l1.69-6.22-47.41-139.36h-28.88v1.54c4.31,.08,8.56,1.22,12.66,3.39h0c4.29,2.28,7.48,6.36,9.5,12.13l1.34,3.94,.39-1.18,7.22,2.34v.36c0,3.7-.54,7.65-1.62,11.75-.2,.75-.42,1.57-.67,2.44l36.91,108.88Zm-78.91,0h5.45l30.99-94.46c1.93-5.82,3.44-10.64,4.5-14.39l-4.27-12.58-38.34,116.35,1.66,5.08Zm-3.33,0h2.28l-1.13-3.47-1.14,3.47Zm-10.16,0h9.11l1.67-5.08-40.21-123.13c-1.89-5.85-1.57-10.01,.93-12.37,2.36-2.21,5.65-3.38,9.79-3.47v-1.54h-45.43v1.54c4.45,.08,8.79,1.22,12.89,3.39h0c4.29,2.28,7.41,6.36,9.28,12.14l41.97,128.51Zm50.7-123.01l4.22,12.45c.1-.35,.19-.69,.27-1.02,1.02-3.88,1.55-7.62,1.58-11.13l-5.58-1.81-.49,1.5Zm234.39,124.2c-1.83-.46-4.2-.69-7.09-.69h-101.55v-2.07l85.09-112.29c.46-.61,.91-1.23,1.37-1.84,.46-.61,.91-1.23,1.37-1.84,7.47-10.43,14.41-18.41,20.81-23.93l7.78,2.3-91.95,2.76c-5.95,.15-10.64,3.8-14.07,10.93-3.43,7.13-5.83,15.23-7.2,24.28l-2.52-.46,6.18-39.81,.69-4.6h116.42v2.53l-79.6,106.08c-1.37,1.99-2.74,3.76-4.12,5.29-3.97,5.06-8.35,10.28-13.15,15.65-4.8,5.37-8.73,9.44-11.78,12.2l-6.18-2.76,91.72-4.37c5.49-.31,10.18-3.95,14.07-10.93,3.89-6.98,6.9-14.99,9.03-24.05l2.06,.46-9.61,39.12-2.52,10.12c-1.68-.92-3.43-1.61-5.26-2.07Zm5.59,2.82l-.57-.31c-1.63-.9-3.36-1.58-5.14-2.02-1.78-.45-4.13-.67-6.97-.67h-102.05v-2.74l.1-.13,85.09-112.29,2.74-3.68c5.99-8.37,11.71-15.23,17.05-20.47l-79.99,2.4c-5.72,.15-10.3,3.73-13.63,10.65-3.39,7.06-5.8,15.17-7.16,24.13l-.08,.51-3.5-.64,7-45.32h117.35v3.2l-.1,.13-79.6,106.08c-1.37,1.99-2.77,3.79-4.14,5.33-3.96,5.05-8.39,10.32-13.15,15.65-2.79,3.12-5.31,5.83-7.53,8.09l80.9-3.86c5.28-.29,9.87-3.89,13.65-10.67,3.84-6.9,6.87-14.95,8.99-23.92l.11-.48,3.04,.68-12.4,50.37Zm-113.73-4.01h101.05c2.92,0,5.35,.24,7.21,.71h0c1.65,.42,3.27,1.03,4.81,1.81l2.36-9.5,9.48-38.62-1.08-.24c-2.13,8.87-5.15,16.84-8.97,23.69-3.96,7.11-8.83,10.87-14.48,11.19l-81.99,3.91c-1.17,1.17-2.25,2.2-3.24,3.1l-.24,.22-8.39-3.75,11.44-.54c2.39-2.4,5.15-5.35,8.26-8.82,4.75-5.31,9.17-10.56,13.13-15.62,1.37-1.53,2.74-3.29,4.1-5.27l79.51-105.96v-1.87h-115.49l-.62,4.18-6.1,39.33,1.53,.28c1.39-8.86,3.8-16.9,7.17-23.91,3.5-7.28,8.38-11.05,14.5-11.21l81.09-2.44c.93-.89,1.86-1.72,2.76-2.51l.21-.18,11.03,3.26-13.59,.41c-5.52,5.29-11.47,12.37-17.73,21.11l-2.75,3.69-84.99,112.16v1.4Zm10.77-6.69l3.96,1.77c.68-.62,1.41-1.31,2.18-2.06l-6.14,.29Zm97.5-134.22c-.56,.49-1.13,1-1.7,1.53l6.22-.19-4.52-1.34Zm30.64,.48c-4.65-2.07-9.26-3.11-13.84-3.11v-2.53h31.33l41.4,85.37h-8.46l37.97-69.03c2.13-3.68,2.59-6.52,1.37-8.51-1.22-1.99-3.32-3.37-6.29-4.14-2.97-.77-6.52-1.15-10.64-1.15v-2.53h51.23v2.53c-4.57,0-9.19,1-13.84,2.99-4.65,1.99-8.43,5.6-11.32,10.82l-39.11,70.87v40.73c0,5.98,1.6,10.16,4.8,12.54,3.2,2.38,7.01,3.57,11.44,3.57v2.53h-46.2v-2.53c4.42,0,8.27-1.19,11.55-3.57,3.28-2.38,4.92-6.56,4.92-12.54v-40.04l-35.45-71.1c-2.59-5.37-6.22-9.09-10.86-11.16Zm76.55,141.44h-47.2v-3.53h.5c4.29,0,8.08-1.17,11.26-3.47,3.13-2.27,4.71-6.35,4.71-12.14v-39.92l-35.4-71c-2.53-5.24-6.11-8.92-10.62-10.93h0c-4.57-2.03-9.15-3.06-13.63-3.06h-.5v-3.53h32.15l37.15,76.6,33.01-60.01c2.03-3.5,2.49-6.2,1.38-8.01-1.15-1.87-3.16-3.19-5.99-3.92-2.92-.75-6.46-1.13-10.51-1.13h-.5v-3.53h52.23v3.53h-.5c-4.48,0-9.07,.99-13.64,2.95-4.53,1.94-8.25,5.51-11.08,10.6l-39.05,70.76v40.6c0,5.79,1.55,9.87,4.6,12.14,3.1,2.3,6.84,3.47,11.14,3.47h.5v3.53Zm-46.2-1h45.2v-1.54c-4.31-.09-8.08-1.32-11.23-3.66-3.32-2.46-5.01-6.82-5.01-12.94v-40.86l39.17-70.98c2.94-5.29,6.83-9,11.56-11.03,4.53-1.94,9.08-2.96,13.54-3.03v-1.54h-50.23v1.53c3.93,.03,7.38,.42,10.26,1.16,3.09,.8,5.3,2.27,6.59,4.36,1.32,2.15,.86,5.19-1.37,9.03l-33.34,60.62,4.2,8.66h-10.11l4.78-8.69-37.18-76.68h-30.52v1.54c4.46,.07,9.02,1.13,13.54,3.15h0c4.74,2.11,8.47,5.95,11.11,11.4l35.5,71.2v40.16c0,6.12-1.72,10.48-5.12,12.95-3.23,2.34-7.04,3.57-11.34,3.66v1.54Zm20.93-61.21h6.82l-3.19-6.59-3.62,6.59Zm166.58,55.61c3.2,2.38,7.01,3.57,11.44,3.57v2.53h-46.2v-2.53c4.42,0,8.27-1.19,11.55-3.57,3.28-2.38,4.92-6.56,4.92-12.54V107.59c0-5.98-1.64-10.16-4.92-12.54-3.28-2.38-7.13-3.57-11.55-3.57v-2.53h46.2v2.53c-4.42,0-8.23,1.19-11.44,3.57-3.2,2.38-4.8,6.56-4.8,12.54v109.3c0,5.98,1.6,10.16,4.8,12.54Zm70.45-80.19v8.51h-77.54v-8.51h77.54Zm15.55,80.19c3.2,2.38,7.01,3.57,11.44,3.57v2.53h-46.2v-2.53c4.42,0,8.27-1.19,11.55-3.57,3.28-2.38,4.92-6.56,4.92-12.54V107.59c0-5.98-1.64-10.16-4.92-12.54-3.28-2.38-7.13-3.57-11.55-3.57v-2.53h46.2v2.53c-4.42,0-8.23,1.19-11.44,3.57-3.2,2.38-4.8,6.56-4.8,12.54v109.3c0,5.98,1.6,10.16,4.8,12.54Zm11.94,6.6h-47.2v-3.53h.5c4.29,0,8.08-1.17,11.26-3.47,3.13-2.27,4.71-6.35,4.71-12.14v-58.64h-71.51v58.64c0,5.79,1.55,9.87,4.6,12.14h0c3.1,2.3,6.84,3.47,11.14,3.47h.5v3.53h-47.2v-3.53h.5c4.29,0,8.08-1.17,11.26-3.47,3.13-2.27,4.71-6.35,4.71-12.14V107.59c0-5.78-1.59-9.87-4.71-12.14-3.18-2.3-6.97-3.47-11.26-3.47h-.5v-3.53h47.2v3.53h-.5c-4.29,0-8.04,1.17-11.14,3.47-3.05,2.27-4.6,6.35-4.6,12.14v41.15h71.51v-41.15c0-5.78-1.58-9.87-4.71-12.14-3.18-2.3-6.97-3.47-11.26-3.47h-.5v-3.53h47.2v3.53h-.5c-4.29,0-8.04,1.17-11.14,3.47-3.05,2.27-4.6,6.35-4.6,12.14v109.3c0,5.79,1.55,9.87,4.6,12.14h0c3.1,2.3,6.84,3.47,11.14,3.47h.5v3.53Zm-46.2-1h45.2v-1.54c-4.31-.09-8.08-1.32-11.23-3.66h0c-3.32-2.46-5-6.82-5-12.94V107.59c0-6.12,1.68-10.47,5-12.94,3.16-2.34,6.93-3.57,11.23-3.66v-1.54h-45.2v1.54c4.3,.09,8.11,1.32,11.34,3.66,3.4,2.47,5.12,6.83,5.12,12.95v41.15h2.75v9.51h-2.75v58.64c0,6.12-1.72,10.48-5.12,12.95-3.23,2.34-7.04,3.57-11.34,3.66v1.54Zm-86,0h45.2v-1.54c-4.31-.09-8.08-1.32-11.23-3.66h0c-3.32-2.46-5-6.82-5-12.94v-58.64h-2.29v-9.51h2.29v-41.15c0-6.12,1.68-10.47,5-12.94,3.16-2.34,6.93-3.57,11.23-3.66v-1.54h-45.2v1.54c4.3,.09,8.11,1.32,11.34,3.66,3.4,2.47,5.12,6.83,5.12,12.95v109.3c0,6.12-1.72,10.48-5.12,12.95-3.22,2.34-7.04,3.57-11.34,3.66v1.54Zm102.47-77.78h1.75v-7.51h-1.75v7.51Zm-72.51,0h71.51v-7.51h-71.51v7.51Zm-2.29,0h1.29v-7.51h-1.29v7.51Zm214.39-61.05c9.68,6.37,16.93,15.11,21.73,26.23,4.8,11.12,7.2,23.9,7.2,38.31s-2.4,27.42-7.2,39c-4.8,11.58-12.05,20.71-21.73,27.38-9.69,6.67-21.54,10.01-35.57,10.01s-25.89-3.34-35.57-10.01c-9.69-6.67-16.93-15.8-21.73-27.38-4.8-11.58-7.2-24.58-7.2-39s2.4-27.19,7.2-38.31c4.8-11.12,12.04-19.87,21.73-26.23,9.68-6.36,21.54-9.55,35.57-9.55s25.88,3.19,35.57,9.55Zm-8.23,125.06c7.55-6.29,13.23-14.76,17.04-25.43,3.81-10.66,5.72-22.36,5.72-35.09s-1.91-24.01-5.72-34.29c-3.81-10.27-9.49-18.41-17.04-24.39-7.55-5.98-16.66-8.97-27.33-8.97s-19.78,2.99-27.33,8.97c-7.55,5.98-13.23,14.12-17.04,24.39-3.81,10.28-5.72,21.71-5.72,34.29s1.9,24.43,5.72,35.09c3.81,10.66,9.49,19.14,17.04,25.43,7.55,6.29,16.66,9.43,27.33,9.43s19.78-3.14,27.33-9.43Zm-27.33,16.38c-14.07,0-26.13-3.4-35.85-10.1-9.72-6.7-17.09-15.98-21.91-27.6-4.81-11.59-7.24-24.78-7.24-39.19s2.44-27.37,7.25-38.51c4.82-11.16,12.19-20.06,21.91-26.45,9.72-6.39,21.78-9.63,35.84-9.63s26.11,3.24,35.84,9.63h0c9.72,6.39,17.09,15.29,21.91,26.45,4.81,11.14,7.25,24.09,7.25,38.51s-2.44,27.61-7.24,39.19c-4.82,11.62-12.19,20.9-21.91,27.6-9.73,6.7-21.79,10.1-35.85,10.1Zm0-150.49c-13.86,0-25.73,3.19-35.29,9.47-9.55,6.28-16.8,15.03-21.54,26.01-4.75,11.01-7.16,23.83-7.16,38.11s2.41,27.34,7.17,38.81c4.74,11.44,11.99,20.58,21.55,27.16,9.55,6.58,21.42,9.92,35.28,9.92s25.73-3.34,35.28-9.92c9.56-6.59,16.81-15.73,21.55-27.16,4.76-11.47,7.17-24.52,7.17-38.81s-2.41-27.1-7.16-38.11c-4.74-10.98-11.99-19.73-21.54-26.01-9.56-6.28-21.44-9.47-35.29-9.47Zm0,144.05c-10.75,0-20.05-3.21-27.65-9.55-7.58-6.32-13.37-14.95-17.19-25.64-3.81-10.66-5.75-22.52-5.75-35.26s1.93-24.17,5.75-34.46c3.83-10.32,9.61-18.6,17.2-24.61,7.6-6.03,16.9-9.08,27.64-9.08s20.04,3.06,27.64,9.08c7.58,6.01,13.37,14.29,17.2,24.61,3.81,10.29,5.75,21.89,5.75,34.46s-1.93,24.59-5.75,35.26c-3.83,10.7-9.61,19.33-17.19,25.64-7.6,6.34-16.91,9.55-27.65,9.55Zm0-137.6c-10.51,0-19.6,2.98-27.02,8.87-7.44,5.9-13.12,14.03-16.88,24.17-3.77,10.17-5.69,21.65-5.69,34.11s1.91,24.37,5.69,34.92c3.76,10.53,9.44,19.01,16.89,25.21,7.42,6.18,16.51,9.32,27.01,9.32s19.59-3.13,27.01-9.32h0c7.44-6.2,13.12-14.68,16.89-25.21,3.77-10.56,5.69-22.31,5.69-34.92s-1.91-23.93-5.69-34.11c-3.76-10.14-9.44-18.28-16.88-24.17-7.42-5.88-16.52-8.87-27.02-8.87Zm76.97-4.99c2.67,.23,6.06,.34,10.18,.34h87.14c4.12,0,7.51-.11,10.18-.34,2.67-.23,4.84-.65,6.52-1.26l.69,6.67,2.74,23.93-2.52,.46c-.61-5.52-2.33-10.39-5.15-14.61-2.82-4.22-7.2-6.33-13.15-6.33h-85.77c-5.95,0-10.33,2.07-13.15,6.21-2.82,4.14-4.54,8.9-5.15,14.27l-2.52-.23,2.74-23.7,.69-6.67c1.68,.61,3.85,1.03,6.52,1.26Zm65.3,140.82c3.2,2.38,7.01,3.57,11.44,3.57v2.53h-46.2v-2.53c4.42,0,8.27-1.19,11.55-3.57,3.28-2.38,4.92-6.56,4.92-12.54V88.95h13.49v127.94c0,5.98,1.6,10.16,4.8,12.54Zm11.94,6.6h-47.2v-3.53h.5c4.29,0,8.08-1.17,11.26-3.47,3.13-2.27,4.71-6.35,4.71-12.14V97.97h-35.64c-5.75,0-10.03,2.02-12.74,5.99-2.76,4.05-4.47,8.78-5.06,14.04l-.05,.49-3.51-.32,2.8-24.21,.75-7.31,.6,.22c1.63,.6,3.78,1.01,6.39,1.24h0c2.63,.23,6.04,.34,10.13,.34h87.14c4.09,0,7.5-.12,10.14-.34,2.61-.22,4.76-.64,6.39-1.24l.6-.22,.75,7.31,2.8,24.39-3.5,.64-.06-.53c-.6-5.41-2.3-10.25-5.06-14.39-2.71-4.05-7-6.11-12.74-6.11h-35.64v118.93c0,5.79,1.55,9.87,4.6,12.14h0c3.1,2.3,6.84,3.47,11.14,3.47h.5v3.53Zm-46.2-1h45.2v-1.54c-4.31-.09-8.08-1.32-11.23-3.66h0c-3.32-2.46-5-6.82-5-12.94V97.97h-12.5v118.93c0,6.12-1.72,10.48-5.12,12.95-3.23,2.34-7.04,3.57-11.34,3.66v1.54Zm29.96-138.06h35.64c6.09,0,10.66,2.2,13.57,6.55,2.76,4.13,4.5,8.94,5.17,14.3l1.53-.28-2.69-23.47-.62-6.05c-1.62,.52-3.65,.88-6.04,1.09-2.66,.23-6.1,.35-10.22,.35h-36.32v7.51Zm-70.39,20.3l1.52,.14c.66-5.23,2.4-9.94,5.17-14.01,2.91-4.27,7.47-6.43,13.57-6.43h35.64v-7.51h-36.32c-4.12,0-7.56-.12-10.22-.35-2.39-.21-4.42-.57-6.04-1.09l-.62,6.05-2.69,23.2Zm56.9-20.3h12.5v-7.51h-12.5v7.51Zm78.18,136.03c4.42,0,8.27-1.19,11.55-3.57,3.28-2.38,4.92-6.56,4.92-12.54V107.59c0-5.98-1.64-10.16-4.92-12.54-3.28-2.38-7.13-3.57-11.55-3.57v-2.53h29.96V235.53h-29.96v-2.53Zm111.62-116.66l-2.29,.23c-.46-5.06-1.91-9.51-4.35-13.35-2.44-3.83-6.4-5.75-11.89-5.75h-66.33v-8.51h82.57l.46,5.29,1.83,22.09Zm-19.78,32.33c2.36-2.53,3.55-5.41,3.55-8.63h2.52v32.91h-2.52c0-3.22-1.18-6.1-3.55-8.63-2.37-2.53-6.52-3.8-12.47-3.8h-52.61v-8.05h52.61c5.95,0,10.1-1.26,12.47-3.8Zm13.95,72.25c3.43-4.06,5.83-8.78,7.2-14.15l2.52,.69-6.18,22.78-1.37,5.29h-80.51v-8.51h64.27c5.95,0,10.64-2.03,14.07-6.1Zm2.56,15.11h-108.84v-3.53h.5c4.29,0,8.08-1.17,11.26-3.47,3.13-2.27,4.71-6.35,4.71-12.14V107.59c0-5.78-1.59-9.87-4.71-12.14-3.18-2.3-6.97-3.47-11.26-3.47h-.5v-3.53h110.29l.5,5.75,1.87,22.58-3.28,.33-.05-.5c-.45-4.95-1.88-9.37-4.27-13.12-2.33-3.66-6.19-5.52-11.47-5.52h-62.63v54h48.9c5.77,0,9.85-1.22,12.1-3.64,2.26-2.42,3.41-5.21,3.41-8.29v-.5h3.52v33.91h-3.52v-.5c0-3.08-1.15-5.86-3.41-8.29-2.26-2.41-6.33-3.64-12.1-3.64h-48.9v65.5h61.26c5.77,0,10.37-1.99,13.68-5.92h0c3.36-3.98,5.75-8.68,7.1-13.95l.13-.49,3.49,.96-6.31,23.26-1.47,5.66Zm-77.88-1h77.11l1.28-4.92,6.05-22.3-1.55-.42c-1.41,5.22-3.82,9.88-7.18,13.86h0c-3.51,4.17-8.37,6.28-14.45,6.28h-61.26v7.51Zm-2.52,0h1.52v-7.51h-1.52v7.51Zm-27.45,0h26.45v-8.51h2.52v-65.5h-3.2v-9.05h3.2v-54h-3.2v-8.51h-25.76v1.54c4.3,.09,8.11,1.32,11.34,3.66,3.4,2.47,5.12,6.83,5.12,12.95v109.3c0,6.12-1.72,10.48-5.12,12.95-3.22,2.34-7.04,3.57-11.34,3.66v1.54Zm95.37-62.59h1.53v-31.91h-1.53c-.12,3.14-1.35,5.98-3.67,8.47h0c-2.45,2.62-6.77,3.96-12.83,3.96h-48.9v7.05h48.9c6.06,0,10.38,1.33,12.83,3.96,2.32,2.48,3.55,5.33,3.67,8.47Zm-68.61-12.43h2.2v-7.05h-2.2v7.05Zm3.2-63.05h62.63c5.64,0,9.79,2.01,12.32,5.98,2.39,3.76,3.86,8.16,4.37,13.07l1.3-.13-2.21-26.44h-78.41v7.51Zm-3.2,0h2.2v-7.51h-2.2v7.51Zm103.11,138.56v-2.53c4.42,0,8.27-1.19,11.55-3.57,3.28-2.38,4.92-6.56,4.92-12.54V107.59c0-5.98-1.64-10.16-4.92-12.54-3.28-2.38-7.13-3.57-11.55-3.57v-2.53h46.2v2.53c-4.42,0-8.23,1.19-11.44,3.57-3.2,2.38-4.8,6.56-4.8,12.54v127.94h-29.96Zm90.12-14.27c3.35-3.83,5.72-8.28,7.09-13.35l2.52,.69-5.95,21.63-1.37,5.29h-64.96v-8.51h48.72c5.95,0,10.6-1.92,13.95-5.75Zm2.67,14.77h-93.29v-3.53h.5c4.29,0,8.08-1.17,11.26-3.47,3.13-2.27,4.71-6.35,4.71-12.14V107.59c0-5.78-1.59-9.87-4.71-12.14-3.18-2.3-6.97-3.47-11.26-3.47h-.5v-3.53h47.2v3.53h-.5c-4.29,0-8.04,1.17-11.14,3.47-3.05,2.27-4.6,6.35-4.6,12.14v118.92h45.7c5.77,0,10.34-1.88,13.58-5.58,3.29-3.76,5.64-8.19,6.98-13.15l.13-.48,3.48,.96-6.08,22.11-1.47,5.66Zm-62.33-1h61.56l1.27-4.92,5.82-21.15-1.55-.43c-1.4,4.92-3.78,9.31-7.06,13.06h0c-3.44,3.93-8.26,5.92-14.33,5.92h-45.7v7.51Zm-2.52,0h1.52v-7.51h-1.52v7.51Zm-27.45,0h26.45v-8.51h2.52V107.59c0-6.12,1.68-10.47,5-12.94,3.16-2.34,6.93-3.57,11.23-3.66v-1.54h-45.2v1.54c4.3,.09,8.11,1.32,11.34,3.66,3.4,2.47,5.12,6.83,5.12,12.95v109.3c0,6.12-1.72,10.48-5.12,12.95-3.22,2.34-7.04,3.57-11.34,3.66v1.54ZM165.92,409.9c-84.91,0-153.99-91.92-153.99-204.9S81,.1,165.92,.1s153.99,91.92,153.99,204.9-69.08,204.9-153.99,204.9Zm0-406.97C82.57,2.93,14.76,93.58,14.76,205s67.81,202.07,151.15,202.07,151.16-90.65,151.16-202.07S249.26,2.93,165.92,2.93Zm0,395.76c-75.84,0-137.54-86.89-137.54-193.7S90.08,11.3,165.92,11.3s137.54,86.89,137.54,193.7-61.7,193.7-137.54,193.7Zm0-385.98C90.86,12.72,29.79,98.98,29.79,205s61.06,192.28,136.12,192.28,136.12-86.26,136.12-192.28S240.97,12.72,165.92,12.72Zm-37.99,167.99c3.69,2.29,8.32,5.17,14.3,6.9,3.18,.91,6.73,1.5,10.73,1.5,.4,0,.8,0,1.19-.02,7.98-.31,14.8-3.73,19.12-9.09l-.87-.73c-4.09,5.08-10.6,8.37-18.28,8.67-.38,.02-.76,.02-1.15,.02-3.89,0-7.34-.57-10.42-1.46-5.81-1.67-10.34-4.48-14.02-6.77l-.59,.98h0Zm-28.43,29.11v-60.37c0-26.79-.8-36.44-12.3-36.44v-1.36h95.56v18.36h-1.34v-.54c0-9.11-17.64-16.45-48.38-16.45h-22.05v60.24c1.6-3.67,7.48-8.02,15.5-8.02,13.23,0,20.58,8.43,32.34,8.43,5.08,0,9.89-2.99,9.89-7.75h1.34c0,8.02-6.55,14.96-17.11,14.96-16.31,0-23.12-11.97-32.61-11.97-6.95,0-9.36,5.57-9.36,11.97v28.96c0,26.79,.8,36.44,12.3,36.44v1.36h-36.09v-1.36c11.49,0,12.3-9.65,12.3-36.44Zm54.52,50.74v-28.97c0-.35,.04-.67,.07-1.01-.07-.8-.07-1.6,0-2.39-.04-.75-.04-1.51,.04-2.24-.06-.64-.09-1.27-.07-1.9,0-.03-.01-.06-.02-.09,0,0,0,.01-.01,.02v-.11c-.17-1.11-.17-2.23,0-3.34v-20.35c0-4.34,.02-8.22,.11-11.68-.39,.01-.78,.02-1.17,.02-3.94,0-7.45-.58-10.58-1.48,.12,3.82,.14,8.19,.14,13.14v60.37c0,26.79-.8,36.44-12.3,36.44v1.36h36.09v-1.36c-11.49,0-12.3-9.65-12.3-36.44Zm90.62-96.82v-1.36h-36.08v1.36c11.49,0,12.29,9.65,12.29,36.44v60.37c0,26.79-.8,36.44-12.29,36.44v1.36h36.08v-1.36c-11.49,0-12.29-9.65-12.29-36.44v-60.37c0-26.79,.8-36.44,12.29-36.44Zm-23.79,57.2h-66.94v8.6h66.94v-8.6Zm395.28,91.09h-204.89v2.84h204.89v-2.84Zm1105.84,0h-204.89v2.84h204.89v-2.84Z"/>
</svg>