<?xml version="1.0" encoding="UTF-8"?>
<svg id="Layer_1" data-name="Layer 1" xmlns="http://www.w3.org/2000/svg" viewBox="0 0 892.96 892.96">
  <defs>
    <style>
      .cls-1 {
        fill: #fff;
        stroke: #fff;
        stroke-miterlimit: 10;
        stroke-width: 2px;
      }
    </style>
  </defs>
  <path class="cls-1" d="M531.08,891.96c31.25,0,62.53-11.71,86.69-35.05h.09l1.53-1.53c24.37-24.37,36.58-56.35,36.57-88.29,0-.14,0-.27,0-.41,44.08-28.9,81.83-66.64,110.72-110.72,.14,0,.27,0,.41,0,31.94,0,63.93-12.2,88.29-36.57,24.38-24.37,36.59-56.36,36.58-88.29,0-30.37-11.05-60.75-33.07-84.62,22.02-23.86,33.08-54.24,33.07-84.6,0-31.25-11.71-62.53-35.05-86.68v-.1l-1.53-1.53c-24.37-24.37-56.35-36.58-88.29-36.57-.13,0-.27,0-.4,0-28.9-44.08-66.65-81.83-110.73-110.73,0-.13,0-.27,0-.4,0-31.94-12.2-63.93-36.57-88.29C595.01,13.21,563.03,1,531.09,1c-30.37,0-60.75,11.05-84.61,33.07C422.62,12.05,392.23,.99,361.88,1c-31.25,0-62.52,11.71-86.68,35.05h-.09l-1.53,1.53c-24.37,24.37-36.58,56.35-36.57,88.29,0,.14,0,.27,0,.41-44.08,28.9-81.82,66.64-110.72,110.72-.14,0-.27,0-.41,0-31.94,0-63.93,12.2-88.29,36.57C13.2,297.94,.99,329.93,1,361.86c0,30.37,11.05,60.75,33.07,84.61C12.05,470.33,.99,500.72,1,531.08c0,31.25,11.71,62.52,35.05,86.68v.1l1.53,1.53c24.37,24.37,56.36,36.58,88.29,36.57,.14,0,.28,0,.41,0,28.89,44.08,66.64,81.82,110.71,110.71,0,.14,0,.28,0,.41,0,31.94,12.2,63.93,36.57,88.29,24.38,24.38,56.36,36.59,88.29,36.58,30.37,0,60.75-11.05,84.62-33.07,23.86,22.02,54.24,33.08,84.6,33.07Zm-257.01-51.54l36.28-36.29,4.05-4.05,4.05-4.05,57.29-57.29,4.33-4.33,4.39-4.39,56.8-56.81v176.23c-22.16,21.37-50.73,32.06-79.39,32.07-29.29,0-58.54-11.16-80.9-33.52-2.44-2.44-4.72-4.97-6.89-7.57Zm-26.43-67c-.12-2.09-.19-4.18-.19-6.28,0-.02,0-.04,0-.06,0-2,.06-4,.17-6,1.27-24.32,10.26-48.26,26.97-67.94,1.13-1.33,2.29-2.64,3.49-3.94,.95-1.02,1.89-2.04,2.88-3.03l.78-.78,159.51-159.51v132.54l-68.72,68.73-4.26,4.26-4.26,4.26-56.23,56.23-4.01,4.01-4.01,4.01-32.09,32.1c-12.22-17.68-18.9-38-20.04-58.6ZM60.94,625.28l32.09-32.09,4.01-4.01,4.01-4.01,56.23-56.23,4.26-4.26,4.26-4.26,68.72-68.72h132.56l-159.51,159.51-.79,.79c-.99,.99-2.01,1.93-3.03,2.88-1.29,1.2-2.6,2.36-3.94,3.49-19.67,16.7-43.62,25.7-67.94,26.97-2,.1-4,.17-6,.17-.02,0-.04,0-.06,0-2.09,0-4.19-.08-6.28-.19-20.61-1.14-40.93-7.82-58.6-20.04ZM119.54,247.64c2.09-.12,4.18-.19,6.28-.19,.02,0,.04,0,.06,0,2,0,4,.06,6,.17,24.32,1.27,48.26,10.26,67.94,26.96,1.33,1.13,2.64,2.29,3.94,3.49,1.02,.95,2.04,1.89,3.04,2.89l.78,.78,159.51,159.51H234.53l-68.73-68.72-4.26-4.26-4.26-4.26-56.24-56.23-4.01-4.01-4.01-4.01-32.09-32.09c17.67-12.22,38-18.9,58.6-20.04ZM267.68,60.94l32.09,32.09,4.01,4.01,4.01,4.01,56.23,56.23,4.26,4.26,4.26,4.26,68.72,68.72v132.56l-159.51-159.51-.78-.78c-.99-.99-1.94-2.02-2.89-3.04-1.2-1.29-2.36-2.6-3.49-3.94-16.7-19.68-25.69-43.62-26.96-67.94-.1-2-.17-3.99-.17-5.99,0-.02,0-.04,0-.06,0-2.09,.08-4.19,.19-6.28,1.14-20.6,7.82-40.92,20.04-58.59Zm12.96-15.63l.34-.34c22.35-22.36,51.61-33.52,80.9-33.52,28.64,0,57.22,10.7,79.37,32.07V219.74l-56.8-56.8-4.39-4.39-4.33-4.33-57.29-57.29-4.05-4.05-4.05-4.05-36.28-36.28c2.07-2.48,4.25-4.9,6.57-7.23Zm338.25,7.23l-36.27,36.28-4.05,4.05-4.05,4.05-57.29,57.29-4.33,4.33-4.39,4.39-56.8,56.81V43.52c22.16-21.37,50.73-32.06,79.39-32.07,29.29,0,58.54,11.16,80.9,33.52,2.44,2.44,4.72,4.97,6.89,7.57Zm26.43,66.99c.12,2.09,.19,4.18,.19,6.28,0,.02,0,.05,0,.07,0,2-.06,3.99-.17,5.99-1.27,24.32-10.26,48.26-26.96,67.94-1.13,1.33-2.29,2.65-3.49,3.94-.95,1.02-1.9,2.05-2.89,3.04l-.78,.78-159.52,159.52V234.53l68.73-68.74,4.26-4.26,4.26-4.26,56.23-56.24,4.01-4.01,4.01-4.01,32.08-32.09c12.22,17.67,18.9,37.99,20.04,58.59Zm186.7,148.15l-32.09,32.09-4.01,4.01-4.01,4.01-56.23,56.23-4.26,4.26-4.26,4.26-68.72,68.72h-132.56l159.52-159.52,.78-.78c.99-.99,2.02-1.94,3.04-2.89,1.29-1.2,2.6-2.36,3.94-3.49,19.68-16.7,43.62-25.69,67.94-26.96,1.99-.1,3.99-.17,5.99-.17,.02,0,.05,0,.07,0,2.09,0,4.19,.08,6.28,.19,20.6,1.14,40.92,7.82,58.59,20.04Zm-58.59,377.64c-2.09,.12-4.18,.19-6.28,.19-.02,0-.04,0-.06,0-2,0-4-.06-5.99-.17-24.32-1.27-48.26-10.26-67.94-26.96-1.33-1.13-2.65-2.29-3.94-3.49-1.02-.95-2.04-1.89-3.04-2.89l-.78-.78-159.51-159.51h132.54l68.74,68.73,4.26,4.26,4.26,4.26,56.24,56.23,4.01,4.01,4.01,4.01,32.09,32.09c-17.67,12.22-37.99,18.9-58.6,20.04Zm-148.14,186.7l-32.09-32.09-4.01-4.01-4.01-4.01-56.23-56.23-4.26-4.26-4.26-4.26-68.72-68.72v-132.56l159.51,159.51,.78,.78c.99,.99,1.94,2.02,2.89,3.04,1.2,1.29,2.36,2.6,3.49,3.94,16.7,19.67,25.69,43.62,26.96,67.94,.1,2,.17,4,.17,5.99,0,.02,0,.04,0,.06,0,2.09-.08,4.19-.19,6.28-1.14,20.6-7.82,40.92-20.04,58.59Zm-12.97,15.64l-.33,.33c-22.35,22.36-51.6,33.52-80.9,33.52-28.64,0-57.22-10.7-79.37-32.07v-176.22l56.79,56.79,4.39,4.39,4.33,4.33,57.29,57.29,4.05,4.05,4.05,4.05,36.28,36.28c-2.08,2.48-4.26,4.91-6.58,7.25Zm-398.14-228.27l172.91-172.91-172.91-172.91c-.15-.15-.3-.28-.45-.43,8.41-11.28,17.63-21.93,27.56-31.87,9.93-9.93,20.58-19.14,31.86-27.55,.15,.15,.28,.31,.43,.45l172.91,172.91,172.91-172.91c.15-.15,.29-.31,.44-.46,11.28,8.41,21.93,17.63,31.86,27.56,9.93,9.93,19.14,20.58,27.56,31.86-.15,.15-.31,.29-.46,.44l-172.91,172.91,172.91,172.91c.15,.15,.3,.28,.45,.43-8.41,11.28-17.62,21.93-27.55,31.86-9.93,9.93-20.59,19.15-31.87,27.56-.15-.15-.28-.3-.43-.45l-172.91-172.91-172.91,172.91c-.15,.15-.28,.3-.43,.45-11.28-8.41-21.93-17.63-31.86-27.56-9.93-9.93-19.14-20.58-27.56-31.86,.15-.15,.3-.28,.45-.43Zm412.7,67.62c22.77-17.1,43.03-37.36,60.13-60.13,19.72,16.52,43.35,26.02,67.54,28.44-13.25,19.5-28.29,37.69-44.91,54.31-16.62,16.62-34.81,31.67-54.32,44.92-2.43-24.19-11.93-47.82-28.44-67.54Zm177.25-104.39l-4.05-4.05-4.05-4.05-57.29-57.29-4.33-4.33-4.39-4.39-56.81-56.8h176.23c21.37,22.16,32.06,50.74,32.07,79.39,0,29.29-11.16,58.54-33.52,80.9-2.44,2.44-4.97,4.72-7.57,6.89l-36.28-36.28Zm24.89-141.36h-155.81l56.8-56.8,4.39-4.39,4.33-4.33,57.29-57.29,4.05-4.05,4.05-4.05,36.28-36.28c2.47,2.07,4.88,4.24,7.21,6.55l.36,.36c22.36,22.35,33.52,51.6,33.52,80.9,0,28.64-10.7,57.22-32.07,79.37h-20.41Zm-142.02-175.18c-17.1-22.77-37.36-43.03-60.13-60.13,16.52-19.72,26.02-43.35,28.44-67.54,19.51,13.25,37.69,28.3,54.32,44.91,16.62,16.62,31.67,34.81,44.91,54.31-24.19,2.43-47.82,11.92-67.54,28.44Zm-420.93-60.13c-22.77,17.1-43.03,37.36-60.13,60.13-19.72-16.52-43.34-26.02-67.54-28.44,13.25-19.51,28.3-37.69,44.91-54.32,16.62-16.62,34.81-31.66,54.31-44.91,2.43,24.19,11.92,47.82,28.44,67.54Zm-177.25,104.4l4.05,4.05,4.05,4.05,57.29,57.29,4.33,4.33,4.39,4.39,56.81,56.8H43.52c-21.37-22.16-32.06-50.73-32.07-79.39,0-29.29,11.16-58.54,33.52-80.9,2.44-2.44,4.97-4.72,7.57-6.89l36.29,36.28Zm-24.89,141.36H219.74l-56.79,56.79-4.39,4.39-4.33,4.33-57.29,57.29-4.05,4.05-4.05,4.05-36.28,36.28c-2.47-2.07-4.88-4.24-7.21-6.55l-.37-.36c-22.36-22.35-33.52-51.61-33.52-80.9,0-28.64,10.7-57.22,32.07-79.37h20.42Zm142.02,175.17c17.1,22.77,37.36,43.03,60.13,60.13-16.52,19.72-26.02,43.34-28.45,67.54-19.5-13.25-37.69-28.29-54.31-44.91-16.62-16.62-31.66-34.81-44.91-54.31,24.19-2.43,47.82-11.93,67.54-28.45Z"/>
</svg>