<?xml version="1.0" encoding="UTF-8"?>
<svg id="Layer_1" data-name="Layer 1" xmlns="http://www.w3.org/2000/svg" viewBox="0 0 1156.61 1530.65">
  <defs>
    <style>
      .cls-1 {
        fill: #eee5d3;
      }

      .cls-2 {
        fill: #a05030;
      }
    </style>
  </defs>
  <rect class="cls-2" y="-2" width="1154.61" height="1532.65"/>
  <path class="cls-1" d="M1111.19,466.12c-29.11-91.24-70.79-173.19-123.88-243.57-53.1-70.4-114.95-125.67-183.81-164.29C732.18,18.28,656.41-2,578.3-2s-153.88,20.28-225.2,60.27c-68.87,38.62-130.71,93.89-183.81,164.29-53.09,70.38-94.76,152.32-123.88,243.57C15.28,560.57,0,660.9,0,764.33s15.28,203.75,45.42,298.2c29.11,91.24,70.79,173.19,123.88,243.57,53.1,70.4,114.95,125.67,183.81,164.29,71.32,39.99,147.09,60.27,225.2,60.27s153.88-20.28,225.2-60.27c68.87-38.62,130.71-93.89,183.81-164.29,53.09-70.38,94.76-152.32,123.88-243.57,30.14-94.45,45.41-194.78,45.41-298.2s-15.28-203.75-45.41-298.2Zm-1.91,595.8c-29.04,91.03-70.62,172.77-123.57,242.97-52.94,70.17-114.57,125.27-183.19,163.75-71.02,39.82-146.46,60.02-224.22,60.02s-153.2-20.19-224.22-60.02c-68.62-38.48-130.26-93.57-183.19-163.75-52.95-70.2-94.52-151.94-123.57-242.97C17.25,967.67,2,867.54,2,764.33s15.25-203.34,45.32-297.6c29.04-91.03,70.62-172.77,123.57-242.97,52.94-70.17,114.57-125.27,183.19-163.75C425.1,20.19,500.54,0,578.3,0s153.2,20.19,224.22,60.02c68.62,38.48,130.26,93.57,183.19,163.75,52.95,70.2,94.52,151.94,123.57,242.97,30.07,94.25,45.32,194.38,45.32,297.6s-15.25,203.34-45.32,297.6ZM944.81,250.79c-47.59-66.72-103.01-119.1-164.72-155.69-63.91-37.9-131.8-57.11-201.78-57.11s-137.88,19.21-201.78,57.11c-61.71,36.59-117.13,88.98-164.72,155.69-47.58,66.7-84.94,144.38-111.03,230.86-27.01,89.53-40.71,184.64-40.71,282.68s13.7,193.14,40.71,282.68c26.09,86.49,63.45,164.16,111.03,230.86,47.59,66.72,103.01,119.1,164.72,155.69,63.91,37.9,131.8,57.11,201.78,57.11s137.88-19.21,201.78-57.11c61.71-36.59,117.13-88.98,164.72-155.69,47.58-66.71,84.94-144.38,111.03-230.86,27.01-89.53,40.71-184.64,40.71-282.68s-13.7-193.14-40.71-282.68c-26.09-86.49-63.45-164.16-111.03-230.86Zm110.07,795.93c-26.06,86.38-63.37,163.96-110.88,230.57-47.51,66.6-102.83,118.89-164.42,155.41-63.75,37.8-131.47,56.97-201.27,56.97s-137.52-19.17-201.27-56.97c-61.59-36.52-116.91-88.81-164.42-155.41-47.52-66.62-84.82-144.19-110.88-230.57-26.98-89.44-40.67-184.45-40.67-282.39s13.68-192.95,40.67-282.39c26.06-86.38,63.37-163.96,110.88-230.57,47.51-66.6,102.83-118.89,164.42-155.41,63.75-37.8,131.47-56.97,201.27-56.97s137.52,19.17,201.27,56.97c61.59,36.52,116.91,88.81,164.42,155.41,47.52,66.62,84.82,144.19,110.88,230.57,26.98,89.44,40.67,184.45,40.67,282.39s-13.68,192.95-40.67,282.39ZM399.83,657.45h0Zm-21.79,306.08v6.35H208.52v-6.35c54,0,57.76-45.08,57.76-170.16V511.45c0-125.08-3.77-170.16-57.76-170.16v-6.35h448.92v85.72h-6.28v-2.54c0-42.54-82.88-76.83-227.29-76.83h-103.6v281.28c7.53-17.14,35.16-37.46,72.83-37.46,62.16,0,96.69,39.37,151.94,39.37,23.86,0,46.46-13.97,46.46-36.19h6.28c0,37.46-30.77,69.84-80.37,69.84-76.6,0-108.62-55.87-153.2-55.87-32.65,0-43.95,26.03-43.95,55.87v135.24c0,125.08,3.77,170.16,57.76,170.16Zm400.53-385.29c53.99,0,57.75,45.07,57.75,170.17v96.9h-314.18c.07-.63,.16-1.27,.26-1.9v-95.01c0-19.14,.1-36.37,.45-51.86,.05,0,.11,0,.16,0,37.47-1.44,69.52-17.41,89.8-42.43l-4.11-3.41c-19.23,23.73-49.79,39.07-85.89,40.47-1.79,.07-3.58,.11-5.39,.11-18.27,0-34.48-2.65-48.97-6.8-27.3-7.8-48.55-20.92-65.86-31.61l-2.77,4.59c17.31,10.69,39.07,24.16,67.18,32.2,.27,.08,.54,.15,.8,.22,.48,17.18,.59,36.62,.59,58.53v281.91c0,125.08-3.77,170.15-57.77,170.15v6.36h169.53v-6.36c-54,0-57.77-45.07-57.77-170.15v-135.25c0-1.62,.21-3.15,.31-4.73-.14-1.62-.21-3.24-.23-4.86h313.84v144.84c0,125.08-3.76,170.15-57.75,170.15v6.36h169.51v-6.36c-53.99,0-57.75-45.07-57.75-170.15v-281.92c0-125.09,3.76-170.17,57.75-170.17v-6.34h-169.51v6.34Zm-256.7,270.3v5.2c-.09-1.73-.09-3.47,0-5.2Z"/>
</svg>