<?xml version="1.0" encoding="UTF-8"?>
<svg id="Layer_1" data-name="Layer 1" xmlns="http://www.w3.org/2000/svg" viewBox="0 0 1070.68 1315.08">
  <defs>
    <style>
      .cls-1 {
        fill: #eee5d3;
      }

      .cls-2 {
        fill: #12332d;
      }

      .cls-3 {
        stroke-width: 2px;
      }

      .cls-3, .cls-4 {
        fill: none;
        stroke: #12332d;
        stroke-miterlimit: 10;
      }
    </style>
  </defs>
  <rect class="cls-1" x="2" width="1067.68" height="1315.08"/>
  <g>
    <ellipse class="cls-3" cx="539.11" cy="650.31" rx="511.88" ry="650.31"/>
    <ellipse class="cls-4" cx="539.11" cy="650.31" rx="459.06" ry="616.76"/>
    <g>
      <g>
        <path class="cls-2" d="M380.87,559.49c15.35,9.09,34.64,20.53,59.57,27.36,13.23,3.63,28.04,5.95,44.7,5.95,1.66,0,3.31-.03,4.96-.09,33.23-1.22,61.64-14.8,79.62-36.05l-3.64-2.89c-17.05,20.16-44.14,33.2-76.16,34.39-1.59,.06-3.18,.09-4.78,.09-16.2,0-30.57-2.25-43.42-5.77-24.21-6.63-43.05-17.77-58.39-26.86l-2.46,3.9h0Z"/>
        <path class="cls-2" d="M262.45,674.98v-239.54c0-106.28-3.34-144.59-51.22-144.59v-5.4h398.04v72.83h-5.57v-2.16c0-36.15-73.48-65.28-201.53-65.28h-91.86v239c6.68-14.57,31.18-31.83,64.58-31.83,55.11,0,85.73,33.45,134.72,33.45,21.15,0,41.2-11.87,41.2-30.75h5.57c0,31.83-27.28,59.35-71.26,59.35-67.92,0-96.31-47.48-135.84-47.48-28.95,0-38.97,22.12-38.97,47.48v114.92c0,106.28,3.34,144.59,51.22,144.59v5.4H211.24v-5.4c47.88,0,51.22-38.31,51.22-144.59Z"/>
        <path class="cls-2" d="M489.54,876.32v-114.92c0-1.38,.19-2.68,.28-4.02-.28-3.18-.29-6.36-.02-9.48-.16-2.99-.17-5.98,.16-8.9-.26-2.52-.4-5.05-.3-7.55-.02-.12-.06-.23-.08-.35-.01,.03-.03,.06-.05,.09v-.44c-.69-4.4-.72-8.86,0-13.24v-80.73c0-17.2,.09-32.61,.46-46.35-1.62,.06-3.23,.09-4.87,.09-16.43,0-31.02-2.28-44.06-5.86,.49,15.18,.6,32.48,.6,52.12v239.54c0,106.28-3.35,144.58-51.22,144.58v5.4h150.32v-5.4c-47.88,0-51.22-38.3-51.22-144.58Z"/>
        <path class="cls-2" d="M866.98,492.18v-5.39h-150.3v5.39c47.87,0,51.2,38.3,51.2,144.59v239.55c0,106.28-3.33,144.58-51.2,144.58v5.4h150.3v-5.4c-47.87,0-51.2-38.3-51.2-144.58v-239.55c0-106.29,3.33-144.59,51.2-144.59Z"/>
      </g>
      <rect class="cls-2" x="489.08" y="719.11" width="278.81" height="34.13"/>
    </g>
  </g>
</svg>