<?xml version="1.0" encoding="UTF-8"?>
<svg id="Layer_1" data-name="Layer 1" xmlns="http://www.w3.org/2000/svg" viewBox="0 0 1129.34 1441.85">
  <defs>
    <style>
      .cls-1 {
        fill: #12332d;
      }
    </style>
  </defs>
  <path class="cls-1" d="M1084.99,450.29c-28.43-84.99-69.12-161.32-120.96-226.87-51.85-65.57-112.24-117.05-179.48-153.02-69.64-37.25-143.62-56.13-219.88-56.13s-150.24,18.89-219.88,56.13c-67.24,35.97-127.63,87.45-179.48,153.02-51.84,65.55-92.54,141.88-120.96,226.87C14.92,538.26,0,631.72,0,728.05s14.92,189.79,44.35,277.77c28.43,84.99,69.12,161.32,120.96,226.87,51.85,65.57,112.24,117.05,179.48,153.02,69.64,37.25,143.62,56.13,219.88,56.13s150.24-18.89,219.88-56.13c67.24-35.97,127.63-87.45,179.48-153.02,51.84-65.55,92.54-141.88,120.96-226.87,29.43-87.98,44.35-181.43,44.35-277.77s-14.92-189.79-44.35-277.77Zm-1.9,554.9c-28.35,84.77-68.94,160.9-120.64,226.27-51.68,65.35-111.86,116.66-178.86,152.5-69.35,37.09-143.01,55.9-218.93,55.9s-149.59-18.81-218.93-55.9c-67-35.84-127.18-87.14-178.86-152.5-51.69-65.37-92.28-141.5-120.64-226.27C16.89,917.41,2,824.17,2,728.05s14.89-189.36,44.24-277.13c28.35-84.77,68.94-160.9,120.64-226.27,51.68-65.35,111.86-116.66,178.86-152.5,69.35-37.09,143.01-55.9,218.93-55.9s149.59,18.81,218.93,55.9c67,35.84,127.18,87.14,178.86,152.5,51.69,65.37,92.28,141.5,120.64,226.27,29.36,87.77,44.24,181.02,44.24,277.13s-14.89,189.36-44.24,277.13ZM922.52,249.74c-46.47-62.14-100.58-110.93-160.84-145.01-62.4-35.29-128.68-53.19-197.01-53.19s-134.62,17.9-197.01,53.19c-60.26,34.08-114.37,82.87-160.84,145.01-46.46,62.13-82.93,134.48-108.41,215.03-26.38,83.39-39.75,171.98-39.75,263.29s13.37,179.9,39.75,263.29c25.48,80.55,61.95,152.9,108.41,215.03,46.47,62.14,100.58,110.93,160.84,145.01,62.4,35.29,128.68,53.19,197.01,53.19s134.62-17.9,197.01-53.19c60.26-34.08,114.37-82.87,160.84-145.01,46.46-62.13,82.93-134.48,108.41-215.03,26.38-83.39,39.75-171.97,39.75-263.29s-13.37-179.9-39.75-263.29c-25.48-80.55-61.95-152.9-108.41-215.03Zm107.46,741.31c-25.44,80.45-61.87,152.69-108.26,214.73-46.38,62.03-100.39,110.73-160.53,144.74-62.25,35.21-128.37,53.06-196.52,53.06s-134.28-17.85-196.52-53.06c-60.14-34.01-114.15-82.71-160.53-144.74-46.39-62.04-82.82-134.29-108.26-214.73-26.34-83.29-39.7-171.78-39.7-262.99s13.36-179.69,39.7-262.99c25.44-80.45,61.87-152.69,108.26-214.73,46.38-62.03,100.39-110.73,160.53-144.74,62.25-35.21,128.37-53.06,196.52-53.06s134.28,17.85,196.52,53.06c60.14,34.01,114.15,82.71,160.53,144.74,46.39,62.04,82.82,134.29,108.26,214.73,26.34,83.29,39.7,171.78,39.7,262.99s-13.36,179.69-39.7,262.99ZM390.41,628.51h0Zm-21.27,285.07v5.91H203.62v-5.91c52.72,0,56.4-41.99,56.4-158.48V492.54c0-116.5-3.68-158.48-56.4-158.48v-5.91h438.32v79.83h-6.13v-2.37c0-39.62-80.92-71.55-221.92-71.55h-101.15v261.97c7.36-15.97,34.33-34.89,71.11-34.89,60.69,0,94.41,36.66,148.35,36.66,23.29,0,45.36-13.01,45.36-33.71h6.13c0,34.89-30.04,65.05-78.47,65.05-74.79,0-106.06-52.04-149.58-52.04-31.88,0-42.91,24.25-42.91,52.04v125.96c0,116.5,3.68,158.48,56.4,158.48Zm391.07-358.85c52.72,0,56.39,41.98,56.39,158.49v90.25H509.84c.07-.59,.16-1.18,.25-1.77v-88.49c0-17.82,.1-33.87,.44-48.3,.05,0,.11,0,.16,0,36.59-1.34,67.88-16.22,87.68-39.52l-4.01-3.17c-18.78,22.1-48.61,36.39-83.86,37.69-1.75,.06-3.5,.1-5.26,.1-17.84,0-33.66-2.47-47.81-6.33-26.66-7.27-47.41-19.48-64.3-29.44l-2.71,4.27c16.9,9.96,38.15,22.51,65.6,29.99,.26,.07,.52,.14,.78,.21,.47,16,.58,34.11,.58,54.51v262.56c0,116.49-3.69,158.47-56.41,158.47v5.92h165.53v-5.92c-52.72,0-56.41-41.98-56.41-158.47v-125.97c0-1.51,.2-2.93,.31-4.4-.14-1.51-.2-3.02-.22-4.53h306.43v134.9c0,116.49-3.67,158.47-56.39,158.47v5.92h165.51v-5.92c-52.72,0-56.39-41.98-56.39-158.47v-262.56c0-116.51,3.67-158.49,56.39-158.49v-5.91h-165.51v5.91Zm-250.63,251.75v4.84c-.09-1.61-.09-3.23,0-4.84Z"/>
</svg>