<?xml version="1.0" encoding="UTF-8"?>
<svg id="Layer_1" data-name="Layer 1" xmlns="http://www.w3.org/2000/svg" viewBox="0 0 1054.67 1400.82">
  <defs>
    <style>
      .cls-1 {
        fill: #eee5d3;
      }

      .cls-2 {
        fill: #12332d;
      }
    </style>
  </defs>
  <rect class="cls-2" y="-2" width="1054.67" height="1402.82"/>
  <path class="cls-1" d="M1015.1,426.47c-26.64-83.51-64.79-158.52-113.38-222.93-48.61-64.43-105.21-115.03-168.25-150.37C668.19,16.56,598.83-2,527.34-2s-140.85,18.56-206.14,55.17c-63.04,35.35-119.64,85.94-168.25,150.37-48.59,64.42-86.74,139.42-113.38,222.93C11.99,512.92-2,604.75-2,699.41s13.99,186.49,41.57,272.93c26.64,83.51,64.79,158.52,113.38,222.93,48.61,64.43,105.21,115.03,168.25,150.37,65.29,36.61,134.64,55.17,206.14,55.17s140.85-18.56,206.14-55.17c63.04-35.35,119.64-85.94,168.25-150.37,48.59-64.42,86.74-139.42,113.38-222.93,27.58-86.45,41.57-178.28,41.57-272.93s-13.98-186.49-41.57-272.93Zm-1.91,545.26c-26.58,83.3-64.62,158.1-113.07,222.33-48.44,64.21-104.84,114.62-167.63,149.83-64.98,36.44-134.01,54.91-205.16,54.91s-140.18-18.48-205.16-54.91c-62.79-35.21-119.19-85.62-167.63-149.83-48.45-64.23-86.5-139.04-113.07-222.33C13.95,885.48,0,793.86,0,699.41s13.95-186.08,41.47-272.33c26.58-83.3,64.62-158.1,113.07-222.33,48.44-64.21,104.84-114.62,167.63-149.83C387.16,18.48,456.18,0,527.34,0s140.18,18.48,205.16,54.91c62.79,35.21,119.19,85.62,167.63,149.83,48.45,64.23,86.5,139.04,113.07,222.33,27.52,86.25,41.47,177.88,41.47,272.33s-13.95,186.08-41.47,272.33ZM862.79,229.4c-43.56-61.06-94.28-109.01-150.76-142.5-58.49-34.69-120.63-52.27-184.69-52.27s-126.19,17.59-184.69,52.27c-56.48,33.49-107.21,81.44-150.76,142.5-43.55,61.05-77.74,132.14-101.62,211.29-24.72,81.94-37.26,168.98-37.26,258.71s12.54,176.77,37.26,258.71c23.88,79.15,58.07,150.24,101.62,211.29,43.56,61.06,94.28,109.01,150.76,142.5,58.49,34.69,120.63,52.27,184.69,52.27s126.19-17.59,184.69-52.27c56.48-33.49,107.21-81.44,150.76-142.5,43.55-61.05,77.74-132.14,101.62-211.29,24.72-81.94,37.26-168.98,37.26-258.71s-12.53-176.77-37.26-258.71c-23.88-79.15-58.07-150.24-101.62-211.29Zm100.66,728.43c-23.85,79.05-57.99,150.04-101.47,211-43.47,60.95-94.1,108.8-150.46,142.22-58.34,34.59-120.3,52.13-184.18,52.13s-125.84-17.54-184.18-52.13c-56.36-33.42-106.98-81.27-150.46-142.22-43.48-60.96-77.62-131.95-101.47-211-24.69-81.85-37.21-168.79-37.21-258.42s12.52-176.57,37.21-258.42c23.85-79.05,57.99-150.04,101.47-211,43.47-60.95,94.1-108.8,150.46-142.22,58.34-34.59,120.3-52.13,184.18-52.13s125.84,17.54,184.18,52.13c56.36,33.42,106.98,81.27,150.46,142.22,43.48,60.96,77.62,131.95,101.47,211,24.69,81.85,37.21,168.79,37.21,258.42s-12.52,176.57-37.21,258.42ZM364,601.59h0s0,0,0,0Zm-19.94,280.12v5.81H188.92v-5.81c49.42,0,52.86-41.26,52.86-155.73V467.98c0-114.47-3.45-155.73-52.86-155.73v-5.81h410.84v78.45h-5.75v-2.32c0-38.93-75.85-70.31-208.01-70.31h-94.81v257.42c6.9-15.69,32.18-34.28,66.65-34.28,56.89,0,88.49,36.03,139.05,36.03,21.83,0,42.52-12.78,42.52-33.12h5.75c0,34.28-28.16,63.92-73.55,63.92-70.1,0-99.41-51.13-140.2-51.13-29.88,0-40.22,23.82-40.22,51.13v123.77c0,114.47,3.45,155.73,52.86,155.73Zm366.56-352.61c49.41,0,52.85,41.25,52.85,155.73v88.69H475.94c.07-.58,.15-1.16,.24-1.74v-86.95c0-17.51,.09-33.28,.42-47.46,.05,0,.1,0,.15,0,34.29-1.32,63.62-15.94,82.18-38.83l-3.76-3.12c-17.6,21.71-45.56,35.76-78.61,37.03-1.64,.06-3.28,.1-4.93,.1-16.73,0-31.55-2.42-44.81-6.22-24.99-7.14-44.44-19.14-60.27-28.93l-2.54,4.2c15.84,9.79,35.76,22.11,61.48,29.47,.24,.07,.49,.14,.74,.2,.44,15.72,.54,33.51,.54,53.57v258c0,114.47-3.45,155.72-52.87,155.72v5.82h155.15v-5.82c-49.42,0-52.87-41.25-52.87-155.72v-123.78c0-1.49,.19-2.88,.29-4.33-.13-1.49-.19-2.97-.21-4.45h287.22v132.55c0,114.47-3.44,155.72-52.85,155.72v5.82h155.13v-5.82c-49.41,0-52.85-41.25-52.85-155.72v-258c0-114.48,3.44-155.73,52.85-155.73v-5.8h-155.13v5.8Zm-234.92,247.37v4.76c-.08-1.59-.08-3.17,0-4.76Z"/>
</svg>